<?xml version="1.0" encoding="utf-8"?>
<svg xmlns="http://www.w3.org/2000/svg" xmlns:xlink="http://www.w3.org/1999/xlink" width="600" height="400" viewBox="0 0 2400 1600">
<defs>
  <clipPath id="clip910">
    <rect x="0" y="0" width="2400" height="1600"/>
  </clipPath>
</defs>
<path clip-path="url(#clip910)" d="
M0 1600 L2400 1600 L2400 0 L0 0  Z
  " fill="#ffffff" fill-rule="evenodd" fill-opacity="1"/>
<defs>
  <clipPath id="clip911">
    <rect x="480" y="0" width="1681" height="1600"/>
  </clipPath>
</defs>
<path clip-path="url(#clip910)" d="
M232.389 1423.18 L2352.76 1423.18 L2352.76 47.2441 L232.389 47.2441  Z
  " fill="#ffffff" fill-rule="evenodd" fill-opacity="1"/>
<defs>
  <clipPath id="clip912">
    <rect x="232" y="47" width="2121" height="1377"/>
  </clipPath>
</defs>
<polyline clip-path="url(#clip912)" style="stroke:#000000; stroke-linecap:butt; stroke-linejoin:round; stroke-width:2; stroke-opacity:0.1; fill:none" points="
  298.003,1423.18 298.003,47.2441 
  "/>
<polyline clip-path="url(#clip912)" style="stroke:#000000; stroke-linecap:butt; stroke-linejoin:round; stroke-width:2; stroke-opacity:0.1; fill:none" points="
  813.498,1423.18 813.498,47.2441 
  "/>
<polyline clip-path="url(#clip912)" style="stroke:#000000; stroke-linecap:butt; stroke-linejoin:round; stroke-width:2; stroke-opacity:0.1; fill:none" points="
  1328.99,1423.18 1328.99,47.2441 
  "/>
<polyline clip-path="url(#clip912)" style="stroke:#000000; stroke-linecap:butt; stroke-linejoin:round; stroke-width:2; stroke-opacity:0.1; fill:none" points="
  1844.49,1423.18 1844.49,47.2441 
  "/>
<polyline clip-path="url(#clip912)" style="stroke:#000000; stroke-linecap:butt; stroke-linejoin:round; stroke-width:2; stroke-opacity:0.1; fill:none" points="
  2343.17,1423.18 2343.17,47.2441 
  "/>
<polyline clip-path="url(#clip910)" style="stroke:#000000; stroke-linecap:butt; stroke-linejoin:round; stroke-width:4; stroke-opacity:1; fill:none" points="
  232.389,1423.18 2352.76,1423.18 
  "/>
<polyline clip-path="url(#clip910)" style="stroke:#000000; stroke-linecap:butt; stroke-linejoin:round; stroke-width:4; stroke-opacity:1; fill:none" points="
  298.003,1423.18 298.003,1404.28 
  "/>
<polyline clip-path="url(#clip910)" style="stroke:#000000; stroke-linecap:butt; stroke-linejoin:round; stroke-width:4; stroke-opacity:1; fill:none" points="
  813.498,1423.18 813.498,1404.28 
  "/>
<polyline clip-path="url(#clip910)" style="stroke:#000000; stroke-linecap:butt; stroke-linejoin:round; stroke-width:4; stroke-opacity:1; fill:none" points="
  1328.99,1423.18 1328.99,1404.28 
  "/>
<polyline clip-path="url(#clip910)" style="stroke:#000000; stroke-linecap:butt; stroke-linejoin:round; stroke-width:4; stroke-opacity:1; fill:none" points="
  1844.49,1423.18 1844.49,1404.28 
  "/>
<polyline clip-path="url(#clip910)" style="stroke:#000000; stroke-linecap:butt; stroke-linejoin:round; stroke-width:4; stroke-opacity:1; fill:none" points="
  2343.17,1423.18 2343.17,1404.28 
  "/>
<path clip-path="url(#clip910)" d="M169.798 1481.64 L186.117 1481.64 L186.117 1485.58 L164.173 1485.58 L164.173 1481.64 Q166.835 1478.89 171.418 1474.26 Q176.024 1469.61 177.205 1468.27 Q179.45 1465.74 180.33 1464.01 Q181.233 1462.25 181.233 1460.56 Q181.233 1457.8 179.288 1456.07 Q177.367 1454.33 174.265 1454.33 Q172.066 1454.33 169.612 1455.09 Q167.182 1455.86 164.404 1457.41 L164.404 1452.69 Q167.228 1451.55 169.682 1450.97 Q172.136 1450.39 174.173 1450.39 Q179.543 1450.39 182.737 1453.08 Q185.932 1455.77 185.932 1460.26 Q185.932 1462.39 185.122 1464.31 Q184.335 1466.2 182.228 1468.8 Q181.649 1469.47 178.548 1472.69 Q175.446 1475.88 169.798 1481.64 Z" fill="#000000" fill-rule="evenodd" fill-opacity="1" /><path clip-path="url(#clip910)" d="M205.932 1454.1 Q202.321 1454.1 200.492 1457.66 Q198.686 1461.2 198.686 1468.33 Q198.686 1475.44 200.492 1479.01 Q202.321 1482.55 205.932 1482.55 Q209.566 1482.55 211.371 1479.01 Q213.2 1475.44 213.2 1468.33 Q213.2 1461.2 211.371 1457.66 Q209.566 1454.1 205.932 1454.1 M205.932 1450.39 Q211.742 1450.39 214.797 1455 Q217.876 1459.58 217.876 1468.33 Q217.876 1477.06 214.797 1481.67 Q211.742 1486.25 205.932 1486.25 Q200.122 1486.25 197.043 1481.67 Q193.987 1477.06 193.987 1468.33 Q193.987 1459.58 197.043 1455 Q200.122 1450.39 205.932 1450.39 Z" fill="#000000" fill-rule="evenodd" fill-opacity="1" /><path clip-path="url(#clip910)" d="M230.121 1481.64 L246.441 1481.64 L246.441 1485.58 L224.496 1485.58 L224.496 1481.64 Q227.158 1478.89 231.742 1474.26 Q236.348 1469.61 237.529 1468.27 Q239.774 1465.74 240.654 1464.01 Q241.556 1462.25 241.556 1460.56 Q241.556 1457.8 239.612 1456.07 Q237.691 1454.33 234.589 1454.33 Q232.39 1454.33 229.936 1455.09 Q227.506 1455.86 224.728 1457.41 L224.728 1452.69 Q227.552 1451.55 230.006 1450.97 Q232.459 1450.39 234.496 1450.39 Q239.867 1450.39 243.061 1453.08 Q246.256 1455.77 246.256 1460.26 Q246.256 1462.39 245.445 1464.31 Q244.658 1466.2 242.552 1468.8 Q241.973 1469.47 238.871 1472.69 Q235.769 1475.88 230.121 1481.64 Z" fill="#000000" fill-rule="evenodd" fill-opacity="1" /><path clip-path="url(#clip910)" d="M257.066 1481.64 L264.704 1481.64 L264.704 1455.28 L256.394 1456.95 L256.394 1452.69 L264.658 1451.02 L269.334 1451.02 L269.334 1481.64 L276.973 1481.64 L276.973 1485.58 L257.066 1485.58 L257.066 1481.64 Z" fill="#000000" fill-rule="evenodd" fill-opacity="1" /><path clip-path="url(#clip910)" d="M283.663 1470.7 L296.14 1470.7 L296.14 1474.49 L283.663 1474.49 L283.663 1470.7 Z" fill="#000000" fill-rule="evenodd" fill-opacity="1" /><path clip-path="url(#clip910)" d="M313.524 1454.1 Q309.913 1454.1 308.084 1457.66 Q306.278 1461.2 306.278 1468.33 Q306.278 1475.44 308.084 1479.01 Q309.913 1482.55 313.524 1482.55 Q317.158 1482.55 318.963 1479.01 Q320.792 1475.44 320.792 1468.33 Q320.792 1461.2 318.963 1457.66 Q317.158 1454.1 313.524 1454.1 M313.524 1450.39 Q319.334 1450.39 322.389 1455 Q325.468 1459.58 325.468 1468.33 Q325.468 1477.06 322.389 1481.67 Q319.334 1486.25 313.524 1486.25 Q307.714 1486.25 304.635 1481.67 Q301.579 1477.06 301.579 1468.33 Q301.579 1459.58 304.635 1455 Q307.714 1450.39 313.524 1450.39 Z" fill="#000000" fill-rule="evenodd" fill-opacity="1" /><path clip-path="url(#clip910)" d="M333.732 1451.02 L352.088 1451.02 L352.088 1454.96 L338.014 1454.96 L338.014 1463.43 Q339.033 1463.08 340.051 1462.92 Q341.07 1462.73 342.088 1462.73 Q347.875 1462.73 351.255 1465.9 Q354.635 1469.08 354.635 1474.49 Q354.635 1480.07 351.162 1483.17 Q347.69 1486.25 341.371 1486.25 Q339.195 1486.25 336.926 1485.88 Q334.681 1485.51 332.274 1484.77 L332.274 1480.07 Q334.357 1481.2 336.579 1481.76 Q338.801 1482.32 341.278 1482.32 Q345.283 1482.32 347.621 1480.21 Q349.959 1478.1 349.959 1474.49 Q349.959 1470.88 347.621 1468.77 Q345.283 1466.67 341.278 1466.67 Q339.403 1466.67 337.528 1467.08 Q335.676 1467.5 333.732 1468.38 L333.732 1451.02 Z" fill="#000000" fill-rule="evenodd" fill-opacity="1" /><path clip-path="url(#clip910)" d="M361.093 1470.7 L373.57 1470.7 L373.57 1474.49 L361.093 1474.49 L361.093 1470.7 Z" fill="#000000" fill-rule="evenodd" fill-opacity="1" /><path clip-path="url(#clip910)" d="M390.954 1454.1 Q387.343 1454.1 385.514 1457.66 Q383.708 1461.2 383.708 1468.33 Q383.708 1475.44 385.514 1479.01 Q387.343 1482.55 390.954 1482.55 Q394.588 1482.55 396.394 1479.01 Q398.222 1475.44 398.222 1468.33 Q398.222 1461.2 396.394 1457.66 Q394.588 1454.1 390.954 1454.1 M390.954 1450.39 Q396.764 1450.39 399.82 1455 Q402.898 1459.58 402.898 1468.33 Q402.898 1477.06 399.82 1481.67 Q396.764 1486.25 390.954 1486.25 Q385.144 1486.25 382.065 1481.67 Q379.009 1477.06 379.009 1468.33 Q379.009 1459.58 382.065 1455 Q385.144 1450.39 390.954 1450.39 Z" fill="#000000" fill-rule="evenodd" fill-opacity="1" /><path clip-path="url(#clip910)" d="M411.926 1481.64 L419.565 1481.64 L419.565 1455.28 L411.255 1456.95 L411.255 1452.69 L419.518 1451.02 L424.194 1451.02 L424.194 1481.64 L431.833 1481.64 L431.833 1485.58 L411.926 1485.58 L411.926 1481.64 Z" fill="#000000" fill-rule="evenodd" fill-opacity="1" /><path clip-path="url(#clip910)" d="M685.293 1481.64 L701.612 1481.64 L701.612 1485.58 L679.668 1485.58 L679.668 1481.64 Q682.33 1478.89 686.913 1474.26 Q691.52 1469.61 692.7 1468.27 Q694.946 1465.74 695.825 1464.01 Q696.728 1462.25 696.728 1460.56 Q696.728 1457.8 694.784 1456.07 Q692.862 1454.33 689.76 1454.33 Q687.561 1454.33 685.108 1455.09 Q682.677 1455.86 679.899 1457.41 L679.899 1452.69 Q682.723 1451.55 685.177 1450.97 Q687.631 1450.39 689.668 1450.39 Q695.038 1450.39 698.233 1453.08 Q701.427 1455.77 701.427 1460.26 Q701.427 1462.39 700.617 1464.31 Q699.83 1466.2 697.723 1468.8 Q697.145 1469.47 694.043 1472.69 Q690.941 1475.88 685.293 1481.64 Z" fill="#000000" fill-rule="evenodd" fill-opacity="1" /><path clip-path="url(#clip910)" d="M721.427 1454.1 Q717.816 1454.1 715.987 1457.66 Q714.182 1461.2 714.182 1468.33 Q714.182 1475.44 715.987 1479.01 Q717.816 1482.55 721.427 1482.55 Q725.061 1482.55 726.867 1479.01 Q728.695 1475.44 728.695 1468.33 Q728.695 1461.2 726.867 1457.66 Q725.061 1454.1 721.427 1454.1 M721.427 1450.39 Q727.237 1450.39 730.293 1455 Q733.371 1459.58 733.371 1468.33 Q733.371 1477.06 730.293 1481.67 Q727.237 1486.25 721.427 1486.25 Q715.617 1486.25 712.538 1481.67 Q709.483 1477.06 709.483 1468.33 Q709.483 1459.58 712.538 1455 Q715.617 1450.39 721.427 1450.39 Z" fill="#000000" fill-rule="evenodd" fill-opacity="1" /><path clip-path="url(#clip910)" d="M745.617 1481.64 L761.936 1481.64 L761.936 1485.58 L739.992 1485.58 L739.992 1481.64 Q742.654 1478.89 747.237 1474.26 Q751.843 1469.61 753.024 1468.27 Q755.269 1465.74 756.149 1464.01 Q757.052 1462.25 757.052 1460.56 Q757.052 1457.8 755.107 1456.07 Q753.186 1454.33 750.084 1454.33 Q747.885 1454.33 745.431 1455.09 Q743.001 1455.86 740.223 1457.41 L740.223 1452.69 Q743.047 1451.55 745.501 1450.97 Q747.955 1450.39 749.992 1450.39 Q755.362 1450.39 758.556 1453.08 Q761.751 1455.77 761.751 1460.26 Q761.751 1462.39 760.941 1464.31 Q760.154 1466.2 758.047 1468.8 Q757.468 1469.47 754.367 1472.69 Q751.265 1475.88 745.617 1481.64 Z" fill="#000000" fill-rule="evenodd" fill-opacity="1" /><path clip-path="url(#clip910)" d="M772.561 1481.64 L780.2 1481.64 L780.2 1455.28 L771.89 1456.95 L771.89 1452.69 L780.153 1451.02 L784.829 1451.02 L784.829 1481.64 L792.468 1481.64 L792.468 1485.58 L772.561 1485.58 L772.561 1481.64 Z" fill="#000000" fill-rule="evenodd" fill-opacity="1" /><path clip-path="url(#clip910)" d="M799.158 1470.7 L811.635 1470.7 L811.635 1474.49 L799.158 1474.49 L799.158 1470.7 Z" fill="#000000" fill-rule="evenodd" fill-opacity="1" /><path clip-path="url(#clip910)" d="M829.019 1454.1 Q825.408 1454.1 823.579 1457.66 Q821.774 1461.2 821.774 1468.33 Q821.774 1475.44 823.579 1479.01 Q825.408 1482.55 829.019 1482.55 Q832.653 1482.55 834.459 1479.01 Q836.287 1475.44 836.287 1468.33 Q836.287 1461.2 834.459 1457.66 Q832.653 1454.1 829.019 1454.1 M829.019 1450.39 Q834.829 1450.39 837.885 1455 Q840.963 1459.58 840.963 1468.33 Q840.963 1477.06 837.885 1481.67 Q834.829 1486.25 829.019 1486.25 Q823.209 1486.25 820.13 1481.67 Q817.075 1477.06 817.075 1468.33 Q817.075 1459.58 820.13 1455 Q823.209 1450.39 829.019 1450.39 Z" fill="#000000" fill-rule="evenodd" fill-opacity="1" /><path clip-path="url(#clip910)" d="M859.181 1469.17 Q855.848 1469.17 853.926 1470.95 Q852.028 1472.73 852.028 1475.86 Q852.028 1478.98 853.926 1480.77 Q855.848 1482.55 859.181 1482.55 Q862.514 1482.55 864.435 1480.77 Q866.357 1478.96 866.357 1475.86 Q866.357 1472.73 864.435 1470.95 Q862.537 1469.17 859.181 1469.17 M854.505 1467.18 Q851.496 1466.44 849.806 1464.38 Q848.139 1462.32 848.139 1459.35 Q848.139 1455.21 851.079 1452.8 Q854.042 1450.39 859.181 1450.39 Q864.343 1450.39 867.283 1452.8 Q870.222 1455.21 870.222 1459.35 Q870.222 1462.32 868.533 1464.38 Q866.866 1466.44 863.88 1467.18 Q867.259 1467.96 869.134 1470.26 Q871.033 1472.55 871.033 1475.86 Q871.033 1480.88 867.954 1483.57 Q864.898 1486.25 859.181 1486.25 Q853.463 1486.25 850.385 1483.57 Q847.329 1480.88 847.329 1475.86 Q847.329 1472.55 849.227 1470.26 Q851.125 1467.96 854.505 1467.18 M852.792 1459.79 Q852.792 1462.48 854.459 1463.98 Q856.148 1465.49 859.181 1465.49 Q862.19 1465.49 863.88 1463.98 Q865.593 1462.48 865.593 1459.79 Q865.593 1457.11 863.88 1455.6 Q862.19 1454.1 859.181 1454.1 Q856.148 1454.1 854.459 1455.6 Q852.792 1457.11 852.792 1459.79 Z" fill="#000000" fill-rule="evenodd" fill-opacity="1" /><path clip-path="url(#clip910)" d="M876.588 1470.7 L889.065 1470.7 L889.065 1474.49 L876.588 1474.49 L876.588 1470.7 Z" fill="#000000" fill-rule="evenodd" fill-opacity="1" /><path clip-path="url(#clip910)" d="M906.449 1454.1 Q902.838 1454.1 901.009 1457.66 Q899.204 1461.2 899.204 1468.33 Q899.204 1475.44 901.009 1479.01 Q902.838 1482.55 906.449 1482.55 Q910.083 1482.55 911.889 1479.01 Q913.718 1475.44 913.718 1468.33 Q913.718 1461.2 911.889 1457.66 Q910.083 1454.1 906.449 1454.1 M906.449 1450.39 Q912.259 1450.39 915.315 1455 Q918.393 1459.58 918.393 1468.33 Q918.393 1477.06 915.315 1481.67 Q912.259 1486.25 906.449 1486.25 Q900.639 1486.25 897.56 1481.67 Q894.505 1477.06 894.505 1468.33 Q894.505 1459.58 897.56 1455 Q900.639 1450.39 906.449 1450.39 Z" fill="#000000" fill-rule="evenodd" fill-opacity="1" /><path clip-path="url(#clip910)" d="M927.421 1481.64 L935.06 1481.64 L935.06 1455.28 L926.75 1456.95 L926.75 1452.69 L935.014 1451.02 L939.69 1451.02 L939.69 1481.64 L947.329 1481.64 L947.329 1485.58 L927.421 1485.58 L927.421 1481.64 Z" fill="#000000" fill-rule="evenodd" fill-opacity="1" /><path clip-path="url(#clip910)" d="M1200.79 1481.64 L1217.11 1481.64 L1217.11 1485.58 L1195.16 1485.58 L1195.16 1481.64 Q1197.83 1478.89 1202.41 1474.26 Q1207.01 1469.61 1208.2 1468.27 Q1210.44 1465.74 1211.32 1464.01 Q1212.22 1462.25 1212.22 1460.56 Q1212.22 1457.8 1210.28 1456.07 Q1208.36 1454.33 1205.26 1454.33 Q1203.06 1454.33 1200.6 1455.09 Q1198.17 1455.86 1195.39 1457.41 L1195.39 1452.69 Q1198.22 1451.55 1200.67 1450.97 Q1203.13 1450.39 1205.16 1450.39 Q1210.53 1450.39 1213.73 1453.08 Q1216.92 1455.77 1216.92 1460.26 Q1216.92 1462.39 1216.11 1464.31 Q1215.33 1466.2 1213.22 1468.8 Q1212.64 1469.47 1209.54 1472.69 Q1206.44 1475.88 1200.79 1481.64 Z" fill="#000000" fill-rule="evenodd" fill-opacity="1" /><path clip-path="url(#clip910)" d="M1236.92 1454.1 Q1233.31 1454.1 1231.48 1457.66 Q1229.68 1461.2 1229.68 1468.33 Q1229.68 1475.44 1231.48 1479.01 Q1233.31 1482.55 1236.92 1482.55 Q1240.56 1482.55 1242.36 1479.01 Q1244.19 1475.44 1244.19 1468.33 Q1244.19 1461.2 1242.36 1457.66 Q1240.56 1454.1 1236.92 1454.1 M1236.92 1450.39 Q1242.73 1450.39 1245.79 1455 Q1248.87 1459.58 1248.87 1468.33 Q1248.87 1477.06 1245.79 1481.67 Q1242.73 1486.25 1236.92 1486.25 Q1231.11 1486.25 1228.03 1481.67 Q1224.98 1477.06 1224.98 1468.33 Q1224.98 1459.58 1228.03 1455 Q1231.11 1450.39 1236.92 1450.39 Z" fill="#000000" fill-rule="evenodd" fill-opacity="1" /><path clip-path="url(#clip910)" d="M1261.11 1481.64 L1277.43 1481.64 L1277.43 1485.58 L1255.49 1485.58 L1255.49 1481.64 Q1258.15 1478.89 1262.73 1474.26 Q1267.34 1469.61 1268.52 1468.27 Q1270.76 1465.74 1271.64 1464.01 Q1272.55 1462.25 1272.55 1460.56 Q1272.55 1457.8 1270.6 1456.07 Q1268.68 1454.33 1265.58 1454.33 Q1263.38 1454.33 1260.93 1455.09 Q1258.5 1455.86 1255.72 1457.41 L1255.72 1452.69 Q1258.54 1451.55 1261 1450.97 Q1263.45 1450.39 1265.49 1450.39 Q1270.86 1450.39 1274.05 1453.08 Q1277.25 1455.77 1277.25 1460.26 Q1277.25 1462.39 1276.44 1464.31 Q1275.65 1466.2 1273.54 1468.8 Q1272.96 1469.47 1269.86 1472.69 Q1266.76 1475.88 1261.11 1481.64 Z" fill="#000000" fill-rule="evenodd" fill-opacity="1" /><path clip-path="url(#clip910)" d="M1288.06 1481.64 L1295.7 1481.64 L1295.7 1455.28 L1287.38 1456.95 L1287.38 1452.69 L1295.65 1451.02 L1300.32 1451.02 L1300.32 1481.64 L1307.96 1481.64 L1307.96 1485.58 L1288.06 1485.58 L1288.06 1481.64 Z" fill="#000000" fill-rule="evenodd" fill-opacity="1" /><path clip-path="url(#clip910)" d="M1314.65 1470.7 L1327.13 1470.7 L1327.13 1474.49 L1314.65 1474.49 L1314.65 1470.7 Z" fill="#000000" fill-rule="evenodd" fill-opacity="1" /><path clip-path="url(#clip910)" d="M1335.32 1481.64 L1342.96 1481.64 L1342.96 1455.28 L1334.65 1456.95 L1334.65 1452.69 L1342.92 1451.02 L1347.59 1451.02 L1347.59 1481.64 L1355.23 1481.64 L1355.23 1485.58 L1335.32 1485.58 L1335.32 1481.64 Z" fill="#000000" fill-rule="evenodd" fill-opacity="1" /><path clip-path="url(#clip910)" d="M1365.49 1481.64 L1373.13 1481.64 L1373.13 1455.28 L1364.82 1456.95 L1364.82 1452.69 L1373.08 1451.02 L1377.75 1451.02 L1377.75 1481.64 L1385.39 1481.64 L1385.39 1485.58 L1365.49 1485.58 L1365.49 1481.64 Z" fill="#000000" fill-rule="evenodd" fill-opacity="1" /><path clip-path="url(#clip910)" d="M1392.08 1470.7 L1404.56 1470.7 L1404.56 1474.49 L1392.08 1474.49 L1392.08 1470.7 Z" fill="#000000" fill-rule="evenodd" fill-opacity="1" /><path clip-path="url(#clip910)" d="M1421.94 1454.1 Q1418.33 1454.1 1416.5 1457.66 Q1414.7 1461.2 1414.7 1468.33 Q1414.7 1475.44 1416.5 1479.01 Q1418.33 1482.55 1421.94 1482.55 Q1425.58 1482.55 1427.38 1479.01 Q1429.21 1475.44 1429.21 1468.33 Q1429.21 1461.2 1427.38 1457.66 Q1425.58 1454.1 1421.94 1454.1 M1421.94 1450.39 Q1427.75 1450.39 1430.81 1455 Q1433.89 1459.58 1433.89 1468.33 Q1433.89 1477.06 1430.81 1481.67 Q1427.75 1486.25 1421.94 1486.25 Q1416.13 1486.25 1413.06 1481.67 Q1410 1477.06 1410 1468.33 Q1410 1459.58 1413.06 1455 Q1416.13 1450.39 1421.94 1450.39 Z" fill="#000000" fill-rule="evenodd" fill-opacity="1" /><path clip-path="url(#clip910)" d="M1442.92 1481.64 L1450.56 1481.64 L1450.56 1455.28 L1442.25 1456.95 L1442.25 1452.69 L1450.51 1451.02 L1455.18 1451.02 L1455.18 1481.64 L1462.82 1481.64 L1462.82 1485.58 L1442.92 1485.58 L1442.92 1481.64 Z" fill="#000000" fill-rule="evenodd" fill-opacity="1" /><path clip-path="url(#clip910)" d="M1716.28 1481.64 L1732.6 1481.64 L1732.6 1485.58 L1710.66 1485.58 L1710.66 1481.64 Q1713.32 1478.89 1717.9 1474.26 Q1722.51 1469.61 1723.69 1468.27 Q1725.94 1465.74 1726.82 1464.01 Q1727.72 1462.25 1727.72 1460.56 Q1727.72 1457.8 1725.77 1456.07 Q1723.85 1454.33 1720.75 1454.33 Q1718.55 1454.33 1716.1 1455.09 Q1713.67 1455.86 1710.89 1457.41 L1710.89 1452.69 Q1713.71 1451.55 1716.17 1450.97 Q1718.62 1450.39 1720.66 1450.39 Q1726.03 1450.39 1729.22 1453.08 Q1732.42 1455.77 1732.42 1460.26 Q1732.42 1462.39 1731.61 1464.31 Q1730.82 1466.2 1728.71 1468.8 Q1728.14 1469.47 1725.03 1472.69 Q1721.93 1475.88 1716.28 1481.64 Z" fill="#000000" fill-rule="evenodd" fill-opacity="1" /><path clip-path="url(#clip910)" d="M1752.42 1454.1 Q1748.81 1454.1 1746.98 1457.66 Q1745.17 1461.2 1745.17 1468.33 Q1745.17 1475.44 1746.98 1479.01 Q1748.81 1482.55 1752.42 1482.55 Q1756.05 1482.55 1757.86 1479.01 Q1759.69 1475.44 1759.69 1468.33 Q1759.69 1461.2 1757.86 1457.66 Q1756.05 1454.1 1752.42 1454.1 M1752.42 1450.39 Q1758.23 1450.39 1761.28 1455 Q1764.36 1459.58 1764.36 1468.33 Q1764.36 1477.06 1761.28 1481.67 Q1758.23 1486.25 1752.42 1486.25 Q1746.61 1486.25 1743.53 1481.67 Q1740.47 1477.06 1740.47 1468.33 Q1740.47 1459.58 1743.53 1455 Q1746.61 1450.39 1752.42 1450.39 Z" fill="#000000" fill-rule="evenodd" fill-opacity="1" /><path clip-path="url(#clip910)" d="M1776.61 1481.64 L1792.93 1481.64 L1792.93 1485.58 L1770.98 1485.58 L1770.98 1481.64 Q1773.64 1478.89 1778.23 1474.26 Q1782.83 1469.61 1784.01 1468.27 Q1786.26 1465.74 1787.14 1464.01 Q1788.04 1462.25 1788.04 1460.56 Q1788.04 1457.8 1786.1 1456.07 Q1784.18 1454.33 1781.07 1454.33 Q1778.88 1454.33 1776.42 1455.09 Q1773.99 1455.86 1771.21 1457.41 L1771.21 1452.69 Q1774.04 1451.55 1776.49 1450.97 Q1778.95 1450.39 1780.98 1450.39 Q1786.35 1450.39 1789.55 1453.08 Q1792.74 1455.77 1792.74 1460.26 Q1792.74 1462.39 1791.93 1464.31 Q1791.14 1466.2 1789.04 1468.8 Q1788.46 1469.47 1785.36 1472.69 Q1782.26 1475.88 1776.61 1481.64 Z" fill="#000000" fill-rule="evenodd" fill-opacity="1" /><path clip-path="url(#clip910)" d="M1806.77 1481.64 L1823.09 1481.64 L1823.09 1485.58 L1801.14 1485.58 L1801.14 1481.64 Q1803.81 1478.89 1808.39 1474.26 Q1813 1469.61 1814.18 1468.27 Q1816.42 1465.74 1817.3 1464.01 Q1818.2 1462.25 1818.2 1460.56 Q1818.2 1457.8 1816.26 1456.07 Q1814.34 1454.33 1811.24 1454.33 Q1809.04 1454.33 1806.58 1455.09 Q1804.15 1455.86 1801.38 1457.41 L1801.38 1452.69 Q1804.2 1451.55 1806.65 1450.97 Q1809.11 1450.39 1811.14 1450.39 Q1816.51 1450.39 1819.71 1453.08 Q1822.9 1455.77 1822.9 1460.26 Q1822.9 1462.39 1822.09 1464.31 Q1821.31 1466.2 1819.2 1468.8 Q1818.62 1469.47 1815.52 1472.69 Q1812.42 1475.88 1806.77 1481.64 Z" fill="#000000" fill-rule="evenodd" fill-opacity="1" /><path clip-path="url(#clip910)" d="M1830.15 1470.7 L1842.63 1470.7 L1842.63 1474.49 L1830.15 1474.49 L1830.15 1470.7 Z" fill="#000000" fill-rule="evenodd" fill-opacity="1" /><path clip-path="url(#clip910)" d="M1860.01 1454.1 Q1856.4 1454.1 1854.57 1457.66 Q1852.76 1461.2 1852.76 1468.33 Q1852.76 1475.44 1854.57 1479.01 Q1856.4 1482.55 1860.01 1482.55 Q1863.64 1482.55 1865.45 1479.01 Q1867.28 1475.44 1867.28 1468.33 Q1867.28 1461.2 1865.45 1457.66 Q1863.64 1454.1 1860.01 1454.1 M1860.01 1450.39 Q1865.82 1450.39 1868.88 1455 Q1871.95 1459.58 1871.95 1468.33 Q1871.95 1477.06 1868.88 1481.67 Q1865.82 1486.25 1860.01 1486.25 Q1854.2 1486.25 1851.12 1481.67 Q1848.07 1477.06 1848.07 1468.33 Q1848.07 1459.58 1851.12 1455 Q1854.2 1450.39 1860.01 1450.39 Z" fill="#000000" fill-rule="evenodd" fill-opacity="1" /><path clip-path="url(#clip910)" d="M1884.2 1481.64 L1900.52 1481.64 L1900.52 1485.58 L1878.57 1485.58 L1878.57 1481.64 Q1881.24 1478.89 1885.82 1474.26 Q1890.43 1469.61 1891.61 1468.27 Q1893.85 1465.74 1894.73 1464.01 Q1895.63 1462.25 1895.63 1460.56 Q1895.63 1457.8 1893.69 1456.07 Q1891.77 1454.33 1888.67 1454.33 Q1886.47 1454.33 1884.01 1455.09 Q1881.58 1455.86 1878.81 1457.41 L1878.81 1452.69 Q1881.63 1451.55 1884.08 1450.97 Q1886.54 1450.39 1888.57 1450.39 Q1893.94 1450.39 1897.14 1453.08 Q1900.33 1455.77 1900.33 1460.26 Q1900.33 1462.39 1899.52 1464.31 Q1898.74 1466.2 1896.63 1468.8 Q1896.05 1469.47 1892.95 1472.69 Q1889.85 1475.88 1884.2 1481.64 Z" fill="#000000" fill-rule="evenodd" fill-opacity="1" /><path clip-path="url(#clip910)" d="M1907.58 1470.7 L1920.06 1470.7 L1920.06 1474.49 L1907.58 1474.49 L1907.58 1470.7 Z" fill="#000000" fill-rule="evenodd" fill-opacity="1" /><path clip-path="url(#clip910)" d="M1937.44 1454.1 Q1933.83 1454.1 1932 1457.66 Q1930.19 1461.2 1930.19 1468.33 Q1930.19 1475.44 1932 1479.01 Q1933.83 1482.55 1937.44 1482.55 Q1941.07 1482.55 1942.88 1479.01 Q1944.71 1475.44 1944.71 1468.33 Q1944.71 1461.2 1942.88 1457.66 Q1941.07 1454.1 1937.44 1454.1 M1937.44 1450.39 Q1943.25 1450.39 1946.31 1455 Q1949.38 1459.58 1949.38 1468.33 Q1949.38 1477.06 1946.31 1481.67 Q1943.25 1486.25 1937.44 1486.25 Q1931.63 1486.25 1928.55 1481.67 Q1925.5 1477.06 1925.5 1468.33 Q1925.5 1459.58 1928.55 1455 Q1931.63 1450.39 1937.44 1450.39 Z" fill="#000000" fill-rule="evenodd" fill-opacity="1" /><path clip-path="url(#clip910)" d="M1958.41 1481.64 L1966.05 1481.64 L1966.05 1455.28 L1957.74 1456.95 L1957.74 1452.69 L1966 1451.02 L1970.68 1451.02 L1970.68 1481.64 L1978.32 1481.64 L1978.32 1485.58 L1958.41 1485.58 L1958.41 1481.64 Z" fill="#000000" fill-rule="evenodd" fill-opacity="1" /><path clip-path="url(#clip910)" d="M2214.97 1481.64 L2231.29 1481.64 L2231.29 1485.58 L2209.34 1485.58 L2209.34 1481.64 Q2212.01 1478.89 2216.59 1474.26 Q2221.2 1469.61 2222.38 1468.27 Q2224.62 1465.74 2225.5 1464.01 Q2226.4 1462.25 2226.4 1460.56 Q2226.4 1457.8 2224.46 1456.07 Q2222.54 1454.33 2219.44 1454.33 Q2217.24 1454.33 2214.78 1455.09 Q2212.35 1455.86 2209.58 1457.41 L2209.58 1452.69 Q2212.4 1451.55 2214.85 1450.97 Q2217.31 1450.39 2219.34 1450.39 Q2224.71 1450.39 2227.91 1453.08 Q2231.1 1455.77 2231.1 1460.26 Q2231.1 1462.39 2230.29 1464.31 Q2229.51 1466.2 2227.4 1468.8 Q2226.82 1469.47 2223.72 1472.69 Q2220.62 1475.88 2214.97 1481.64 Z" fill="#000000" fill-rule="evenodd" fill-opacity="1" /><path clip-path="url(#clip910)" d="M2251.1 1454.1 Q2247.49 1454.1 2245.66 1457.66 Q2243.86 1461.2 2243.86 1468.33 Q2243.86 1475.44 2245.66 1479.01 Q2247.49 1482.55 2251.1 1482.55 Q2254.74 1482.55 2256.54 1479.01 Q2258.37 1475.44 2258.37 1468.33 Q2258.37 1461.2 2256.54 1457.66 Q2254.74 1454.1 2251.1 1454.1 M2251.1 1450.39 Q2256.91 1450.39 2259.97 1455 Q2263.05 1459.58 2263.05 1468.33 Q2263.05 1477.06 2259.97 1481.67 Q2256.91 1486.25 2251.1 1486.25 Q2245.29 1486.25 2242.21 1481.67 Q2239.16 1477.06 2239.16 1468.33 Q2239.16 1459.58 2242.21 1455 Q2245.29 1450.39 2251.1 1450.39 Z" fill="#000000" fill-rule="evenodd" fill-opacity="1" /><path clip-path="url(#clip910)" d="M2275.29 1481.64 L2291.61 1481.64 L2291.61 1485.58 L2269.67 1485.58 L2269.67 1481.64 Q2272.33 1478.89 2276.91 1474.26 Q2281.52 1469.61 2282.7 1468.27 Q2284.95 1465.74 2285.83 1464.01 Q2286.73 1462.25 2286.73 1460.56 Q2286.73 1457.8 2284.78 1456.07 Q2282.86 1454.33 2279.76 1454.33 Q2277.56 1454.33 2275.11 1455.09 Q2272.68 1455.86 2269.9 1457.41 L2269.9 1452.69 Q2272.72 1451.55 2275.18 1450.97 Q2277.63 1450.39 2279.67 1450.39 Q2285.04 1450.39 2288.23 1453.08 Q2291.43 1455.77 2291.43 1460.26 Q2291.43 1462.39 2290.62 1464.31 Q2289.83 1466.2 2287.72 1468.8 Q2287.14 1469.47 2284.04 1472.69 Q2280.94 1475.88 2275.29 1481.64 Z" fill="#000000" fill-rule="evenodd" fill-opacity="1" /><path clip-path="url(#clip910)" d="M2305.45 1481.64 L2321.77 1481.64 L2321.77 1485.58 L2299.83 1485.58 L2299.83 1481.64 Q2302.49 1478.89 2307.08 1474.26 Q2311.68 1469.61 2312.86 1468.27 Q2315.11 1465.74 2315.99 1464.01 Q2316.89 1462.25 2316.89 1460.56 Q2316.89 1457.8 2314.95 1456.07 Q2313.02 1454.33 2309.92 1454.33 Q2307.72 1454.33 2305.27 1455.09 Q2302.84 1455.86 2300.06 1457.41 L2300.06 1452.69 Q2302.89 1451.55 2305.34 1450.97 Q2307.79 1450.39 2309.83 1450.39 Q2315.2 1450.39 2318.39 1453.08 Q2321.59 1455.77 2321.59 1460.26 Q2321.59 1462.39 2320.78 1464.31 Q2319.99 1466.2 2317.89 1468.8 Q2317.31 1469.47 2314.2 1472.69 Q2311.1 1475.88 2305.45 1481.64 Z" fill="#000000" fill-rule="evenodd" fill-opacity="1" /><path clip-path="url(#clip910)" d="M2328.83 1470.7 L2341.31 1470.7 L2341.31 1474.49 L2328.83 1474.49 L2328.83 1470.7 Z" fill="#000000" fill-rule="evenodd" fill-opacity="1" /><path clip-path="url(#clip910)" d="M2358.7 1454.1 Q2355.08 1454.1 2353.26 1457.66 Q2351.45 1461.2 2351.45 1468.33 Q2351.45 1475.44 2353.26 1479.01 Q2355.08 1482.55 2358.7 1482.55 Q2362.33 1482.55 2364.13 1479.01 Q2365.96 1475.44 2365.96 1468.33 Q2365.96 1461.2 2364.13 1457.66 Q2362.33 1454.1 2358.7 1454.1 M2358.7 1450.39 Q2364.51 1450.39 2367.56 1455 Q2370.64 1459.58 2370.64 1468.33 Q2370.64 1477.06 2367.56 1481.67 Q2364.51 1486.25 2358.7 1486.25 Q2352.89 1486.25 2349.81 1481.67 Q2346.75 1477.06 2346.75 1468.33 Q2346.75 1459.58 2349.81 1455 Q2352.89 1450.39 2358.7 1450.39 Z" fill="#000000" fill-rule="evenodd" fill-opacity="1" /><path clip-path="url(#clip910)" d="M2378.9 1451.02 L2397.26 1451.02 L2397.26 1454.96 L2383.19 1454.96 L2383.19 1463.43 Q2384.2 1463.08 2385.22 1462.92 Q2386.24 1462.73 2387.26 1462.73 Q2393.05 1462.73 2396.43 1465.9 Q2399.81 1469.08 2399.81 1474.49 Q2399.81 1480.07 2396.33 1483.17 Q2392.86 1486.25 2386.54 1486.25 Q2384.37 1486.25 2382.1 1485.88 Q2379.85 1485.51 2377.45 1484.77 L2377.45 1480.07 Q2379.53 1481.2 2381.75 1481.76 Q2383.97 1482.32 2386.45 1482.32 Q2390.45 1482.32 2392.79 1480.21 Q2395.13 1478.1 2395.13 1474.49 Q2395.13 1470.88 2392.79 1468.77 Q2390.45 1466.67 2386.45 1466.67 Q2384.57 1466.67 2382.7 1467.08 Q2380.85 1467.5 2378.9 1468.38 L2378.9 1451.02 Z" fill="#000000" fill-rule="evenodd" fill-opacity="1" /><path clip-path="url(#clip910)" d="M2406.26 1470.7 L2418.74 1470.7 L2418.74 1474.49 L2406.26 1474.49 L2406.26 1470.7 Z" fill="#000000" fill-rule="evenodd" fill-opacity="1" /><path clip-path="url(#clip910)" d="M2436.13 1454.1 Q2432.51 1454.1 2430.69 1457.66 Q2428.88 1461.2 2428.88 1468.33 Q2428.88 1475.44 2430.69 1479.01 Q2432.51 1482.55 2436.13 1482.55 Q2439.76 1482.55 2441.57 1479.01 Q2443.39 1475.44 2443.39 1468.33 Q2443.39 1461.2 2441.57 1457.66 Q2439.76 1454.1 2436.13 1454.1 M2436.13 1450.39 Q2441.94 1450.39 2444.99 1455 Q2448.07 1459.58 2448.07 1468.33 Q2448.07 1477.06 2444.99 1481.67 Q2441.94 1486.25 2436.13 1486.25 Q2430.32 1486.25 2427.24 1481.67 Q2424.18 1477.06 2424.18 1468.33 Q2424.18 1459.58 2427.24 1455 Q2430.32 1450.39 2436.13 1450.39 Z" fill="#000000" fill-rule="evenodd" fill-opacity="1" /><path clip-path="url(#clip910)" d="M2457.1 1481.64 L2464.74 1481.64 L2464.74 1455.28 L2456.43 1456.95 L2456.43 1452.69 L2464.69 1451.02 L2469.37 1451.02 L2469.37 1481.64 L2477 1481.64 L2477 1485.58 L2457.1 1485.58 L2457.1 1481.64 Z" fill="#000000" fill-rule="evenodd" fill-opacity="1" /><path clip-path="url(#clip910)" d="M1207.11 1520.52 L1213.54 1520.52 L1213.54 1568.04 L1207.11 1568.04 L1207.11 1520.52 Z" fill="#000000" fill-rule="evenodd" fill-opacity="1" /><path clip-path="url(#clip910)" d="M1255.72 1546.53 L1255.72 1568.04 L1249.86 1568.04 L1249.86 1546.72 Q1249.86 1541.66 1247.89 1539.14 Q1245.91 1536.63 1241.97 1536.63 Q1237.22 1536.63 1234.49 1539.65 Q1231.75 1542.68 1231.75 1547.9 L1231.75 1568.04 L1225.86 1568.04 L1225.86 1532.4 L1231.75 1532.4 L1231.75 1537.93 Q1233.85 1534.72 1236.68 1533.13 Q1239.55 1531.54 1243.27 1531.54 Q1249.41 1531.54 1252.56 1535.36 Q1255.72 1539.14 1255.72 1546.53 Z" fill="#000000" fill-rule="evenodd" fill-opacity="1" /><path clip-path="url(#clip910)" d="M1290.85 1537.81 L1290.85 1518.52 L1296.71 1518.52 L1296.71 1568.04 L1290.85 1568.04 L1290.85 1562.7 Q1289.01 1565.88 1286.18 1567.44 Q1283.37 1568.97 1279.43 1568.97 Q1272.97 1568.97 1268.89 1563.81 Q1264.85 1558.65 1264.85 1550.25 Q1264.85 1541.85 1268.89 1536.69 Q1272.97 1531.54 1279.43 1531.54 Q1283.37 1531.54 1286.18 1533.1 Q1289.01 1534.62 1290.85 1537.81 M1270.9 1550.25 Q1270.9 1556.71 1273.54 1560.4 Q1276.21 1564.07 1280.86 1564.07 Q1285.51 1564.07 1288.18 1560.4 Q1290.85 1556.71 1290.85 1550.25 Q1290.85 1543.79 1288.18 1540.13 Q1285.51 1536.44 1280.86 1536.44 Q1276.21 1536.44 1273.54 1540.13 Q1270.9 1543.79 1270.9 1550.25 Z" fill="#000000" fill-rule="evenodd" fill-opacity="1" /><path clip-path="url(#clip910)" d="M1339.27 1548.76 L1339.27 1551.62 L1312.34 1551.62 Q1312.72 1557.67 1315.97 1560.85 Q1319.24 1564 1325.07 1564 Q1328.44 1564 1331.59 1563.17 Q1334.78 1562.35 1337.9 1560.69 L1337.9 1566.23 Q1334.75 1567.57 1331.44 1568.27 Q1328.13 1568.97 1324.72 1568.97 Q1316.19 1568.97 1311.19 1564 Q1306.23 1559.04 1306.23 1550.57 Q1306.23 1541.82 1310.94 1536.69 Q1315.68 1531.54 1323.7 1531.54 Q1330.89 1531.54 1335.06 1536.18 Q1339.27 1540.8 1339.27 1548.76 M1333.41 1547.04 Q1333.34 1542.23 1330.7 1539.37 Q1328.09 1536.5 1323.76 1536.5 Q1318.86 1536.5 1315.9 1539.27 Q1312.97 1542.04 1312.53 1547.07 L1333.41 1547.04 Z" fill="#000000" fill-rule="evenodd" fill-opacity="1" /><path clip-path="url(#clip910)" d="M1377.36 1532.4 L1364.47 1549.74 L1378.03 1568.04 L1371.13 1568.04 L1360.75 1554.04 L1350.37 1568.04 L1343.47 1568.04 L1357.31 1549.39 L1344.64 1532.4 L1351.55 1532.4 L1361 1545.1 L1370.46 1532.4 L1377.36 1532.4 Z" fill="#000000" fill-rule="evenodd" fill-opacity="1" /><polyline clip-path="url(#clip912)" style="stroke:#000000; stroke-linecap:butt; stroke-linejoin:round; stroke-width:2; stroke-opacity:0.1; fill:none" points="
  232.389,1420.72 2352.76,1420.72 
  "/>
<polyline clip-path="url(#clip912)" style="stroke:#000000; stroke-linecap:butt; stroke-linejoin:round; stroke-width:2; stroke-opacity:0.1; fill:none" points="
  232.389,1195.5 2352.76,1195.5 
  "/>
<polyline clip-path="url(#clip912)" style="stroke:#000000; stroke-linecap:butt; stroke-linejoin:round; stroke-width:2; stroke-opacity:0.1; fill:none" points="
  232.389,970.28 2352.76,970.28 
  "/>
<polyline clip-path="url(#clip912)" style="stroke:#000000; stroke-linecap:butt; stroke-linejoin:round; stroke-width:2; stroke-opacity:0.1; fill:none" points="
  232.389,745.058 2352.76,745.058 
  "/>
<polyline clip-path="url(#clip912)" style="stroke:#000000; stroke-linecap:butt; stroke-linejoin:round; stroke-width:2; stroke-opacity:0.1; fill:none" points="
  232.389,519.835 2352.76,519.835 
  "/>
<polyline clip-path="url(#clip912)" style="stroke:#000000; stroke-linecap:butt; stroke-linejoin:round; stroke-width:2; stroke-opacity:0.1; fill:none" points="
  232.389,294.613 2352.76,294.613 
  "/>
<polyline clip-path="url(#clip912)" style="stroke:#000000; stroke-linecap:butt; stroke-linejoin:round; stroke-width:2; stroke-opacity:0.1; fill:none" points="
  232.389,69.3909 2352.76,69.3909 
  "/>
<polyline clip-path="url(#clip910)" style="stroke:#000000; stroke-linecap:butt; stroke-linejoin:round; stroke-width:4; stroke-opacity:1; fill:none" points="
  232.389,1423.18 232.389,47.2441 
  "/>
<polyline clip-path="url(#clip910)" style="stroke:#000000; stroke-linecap:butt; stroke-linejoin:round; stroke-width:4; stroke-opacity:1; fill:none" points="
  232.389,1420.72 251.287,1420.72 
  "/>
<polyline clip-path="url(#clip910)" style="stroke:#000000; stroke-linecap:butt; stroke-linejoin:round; stroke-width:4; stroke-opacity:1; fill:none" points="
  232.389,1195.5 251.287,1195.5 
  "/>
<polyline clip-path="url(#clip910)" style="stroke:#000000; stroke-linecap:butt; stroke-linejoin:round; stroke-width:4; stroke-opacity:1; fill:none" points="
  232.389,970.28 251.287,970.28 
  "/>
<polyline clip-path="url(#clip910)" style="stroke:#000000; stroke-linecap:butt; stroke-linejoin:round; stroke-width:4; stroke-opacity:1; fill:none" points="
  232.389,745.058 251.287,745.058 
  "/>
<polyline clip-path="url(#clip910)" style="stroke:#000000; stroke-linecap:butt; stroke-linejoin:round; stroke-width:4; stroke-opacity:1; fill:none" points="
  232.389,519.835 251.287,519.835 
  "/>
<polyline clip-path="url(#clip910)" style="stroke:#000000; stroke-linecap:butt; stroke-linejoin:round; stroke-width:4; stroke-opacity:1; fill:none" points="
  232.389,294.613 251.287,294.613 
  "/>
<polyline clip-path="url(#clip910)" style="stroke:#000000; stroke-linecap:butt; stroke-linejoin:round; stroke-width:4; stroke-opacity:1; fill:none" points="
  232.389,69.3909 251.287,69.3909 
  "/>
<path clip-path="url(#clip910)" d="M115.927 1434.07 L123.566 1434.07 L123.566 1407.7 L115.256 1409.37 L115.256 1405.11 L123.519 1403.44 L128.195 1403.44 L128.195 1434.07 L135.834 1434.07 L135.834 1438 L115.927 1438 L115.927 1434.07 Z" fill="#000000" fill-rule="evenodd" fill-opacity="1" /><path clip-path="url(#clip910)" d="M146.089 1434.07 L153.728 1434.07 L153.728 1407.7 L145.417 1409.37 L145.417 1405.11 L153.681 1403.44 L158.357 1403.44 L158.357 1434.07 L165.996 1434.07 L165.996 1438 L146.089 1438 L146.089 1434.07 Z" fill="#000000" fill-rule="evenodd" fill-opacity="1" /><path clip-path="url(#clip910)" d="M175.487 1403.44 L193.843 1403.44 L193.843 1407.38 L179.769 1407.38 L179.769 1415.85 Q180.788 1415.5 181.806 1415.34 Q182.825 1415.16 183.843 1415.16 Q189.63 1415.16 193.01 1418.33 Q196.389 1421.5 196.389 1426.92 Q196.389 1432.49 192.917 1435.6 Q189.445 1438.68 183.126 1438.68 Q180.95 1438.68 178.681 1438.31 Q176.436 1437.93 174.028 1437.19 L174.028 1432.49 Q176.112 1433.63 178.334 1434.18 Q180.556 1434.74 183.033 1434.74 Q187.038 1434.74 189.375 1432.63 Q191.713 1430.53 191.713 1426.92 Q191.713 1423.31 189.375 1421.2 Q187.038 1419.09 183.033 1419.09 Q181.158 1419.09 179.283 1419.51 Q177.431 1419.93 175.487 1420.81 L175.487 1403.44 Z" fill="#000000" fill-rule="evenodd" fill-opacity="1" /><path clip-path="url(#clip910)" d="M114.931 1208.85 L122.57 1208.85 L122.57 1182.48 L114.26 1184.15 L114.26 1179.89 L122.524 1178.22 L127.2 1178.22 L127.2 1208.85 L134.839 1208.85 L134.839 1212.78 L114.931 1212.78 L114.931 1208.85 Z" fill="#000000" fill-rule="evenodd" fill-opacity="1" /><path clip-path="url(#clip910)" d="M148.311 1208.85 L164.63 1208.85 L164.63 1212.78 L142.686 1212.78 L142.686 1208.85 Q145.348 1206.09 149.931 1201.46 Q154.538 1196.81 155.718 1195.47 Q157.964 1192.94 158.843 1191.21 Q159.746 1189.45 159.746 1187.76 Q159.746 1185 157.802 1183.27 Q155.88 1181.53 152.778 1181.53 Q150.579 1181.53 148.126 1182.3 Q145.695 1183.06 142.917 1184.61 L142.917 1179.89 Q145.741 1178.75 148.195 1178.18 Q150.649 1177.6 152.686 1177.6 Q158.056 1177.6 161.251 1180.28 Q164.445 1182.97 164.445 1187.46 Q164.445 1189.59 163.635 1191.51 Q162.848 1193.41 160.741 1196 Q160.163 1196.67 157.061 1199.89 Q153.959 1203.08 148.311 1208.85 Z" fill="#000000" fill-rule="evenodd" fill-opacity="1" /><path clip-path="url(#clip910)" d="M184.445 1181.3 Q180.834 1181.3 179.005 1184.87 Q177.2 1188.41 177.2 1195.54 Q177.2 1202.64 179.005 1206.21 Q180.834 1209.75 184.445 1209.75 Q188.079 1209.75 189.885 1206.21 Q191.713 1202.64 191.713 1195.54 Q191.713 1188.41 189.885 1184.87 Q188.079 1181.3 184.445 1181.3 M184.445 1177.6 Q190.255 1177.6 193.311 1182.2 Q196.389 1186.79 196.389 1195.54 Q196.389 1204.26 193.311 1208.87 Q190.255 1213.45 184.445 1213.45 Q178.635 1213.45 175.556 1208.87 Q172.501 1204.26 172.501 1195.54 Q172.501 1186.79 175.556 1182.2 Q178.635 1177.6 184.445 1177.6 Z" fill="#000000" fill-rule="evenodd" fill-opacity="1" /><path clip-path="url(#clip910)" d="M115.927 983.625 L123.566 983.625 L123.566 957.259 L115.256 958.926 L115.256 954.666 L123.519 953 L128.195 953 L128.195 983.625 L135.834 983.625 L135.834 987.56 L115.927 987.56 L115.927 983.625 Z" fill="#000000" fill-rule="evenodd" fill-opacity="1" /><path clip-path="url(#clip910)" d="M149.306 983.625 L165.626 983.625 L165.626 987.56 L143.681 987.56 L143.681 983.625 Q146.343 980.87 150.927 976.24 Q155.533 971.588 156.714 970.245 Q158.959 967.722 159.839 965.986 Q160.741 964.227 160.741 962.537 Q160.741 959.782 158.797 958.046 Q156.876 956.31 153.774 956.31 Q151.575 956.31 149.121 957.074 Q146.691 957.838 143.913 959.389 L143.913 954.666 Q146.737 953.532 149.191 952.953 Q151.644 952.375 153.681 952.375 Q159.052 952.375 162.246 955.06 Q165.44 957.745 165.44 962.236 Q165.44 964.365 164.63 966.287 Q163.843 968.185 161.737 970.777 Q161.158 971.449 158.056 974.666 Q154.954 977.861 149.306 983.625 Z" fill="#000000" fill-rule="evenodd" fill-opacity="1" /><path clip-path="url(#clip910)" d="M175.487 953 L193.843 953 L193.843 956.935 L179.769 956.935 L179.769 965.407 Q180.788 965.06 181.806 964.898 Q182.825 964.713 183.843 964.713 Q189.63 964.713 193.01 967.884 Q196.389 971.055 196.389 976.472 Q196.389 982.051 192.917 985.152 Q189.445 988.231 183.126 988.231 Q180.95 988.231 178.681 987.861 Q176.436 987.49 174.028 986.75 L174.028 982.051 Q176.112 983.185 178.334 983.74 Q180.556 984.296 183.033 984.296 Q187.038 984.296 189.375 982.189 Q191.713 980.083 191.713 976.472 Q191.713 972.861 189.375 970.754 Q187.038 968.648 183.033 968.648 Q181.158 968.648 179.283 969.064 Q177.431 969.481 175.487 970.361 L175.487 953 Z" fill="#000000" fill-rule="evenodd" fill-opacity="1" /><path clip-path="url(#clip910)" d="M114.931 758.402 L122.57 758.402 L122.57 732.037 L114.26 733.703 L114.26 729.444 L122.524 727.778 L127.2 727.778 L127.2 758.402 L134.839 758.402 L134.839 762.338 L114.931 762.338 L114.931 758.402 Z" fill="#000000" fill-rule="evenodd" fill-opacity="1" /><path clip-path="url(#clip910)" d="M158.45 743.703 Q161.806 744.421 163.681 746.689 Q165.579 748.958 165.579 752.291 Q165.579 757.407 162.061 760.208 Q158.542 763.009 152.061 763.009 Q149.885 763.009 147.57 762.569 Q145.279 762.152 142.825 761.296 L142.825 756.782 Q144.769 757.916 147.084 758.495 Q149.399 759.074 151.922 759.074 Q156.32 759.074 158.612 757.338 Q160.927 755.601 160.927 752.291 Q160.927 749.236 158.774 747.523 Q156.644 745.787 152.825 745.787 L148.797 745.787 L148.797 741.944 L153.01 741.944 Q156.459 741.944 158.288 740.578 Q160.116 739.19 160.116 736.597 Q160.116 733.935 158.218 732.523 Q156.343 731.088 152.825 731.088 Q150.903 731.088 148.704 731.504 Q146.505 731.921 143.866 732.801 L143.866 728.634 Q146.529 727.893 148.843 727.523 Q151.181 727.153 153.241 727.153 Q158.565 727.153 161.667 729.583 Q164.769 731.99 164.769 736.111 Q164.769 738.981 163.126 740.972 Q161.482 742.939 158.45 743.703 Z" fill="#000000" fill-rule="evenodd" fill-opacity="1" /><path clip-path="url(#clip910)" d="M184.445 730.856 Q180.834 730.856 179.005 734.421 Q177.2 737.963 177.2 745.092 Q177.2 752.199 179.005 755.763 Q180.834 759.305 184.445 759.305 Q188.079 759.305 189.885 755.763 Q191.713 752.199 191.713 745.092 Q191.713 737.963 189.885 734.421 Q188.079 730.856 184.445 730.856 M184.445 727.153 Q190.255 727.153 193.311 731.759 Q196.389 736.342 196.389 745.092 Q196.389 753.819 193.311 758.426 Q190.255 763.009 184.445 763.009 Q178.635 763.009 175.556 758.426 Q172.501 753.819 172.501 745.092 Q172.501 736.342 175.556 731.759 Q178.635 727.153 184.445 727.153 Z" fill="#000000" fill-rule="evenodd" fill-opacity="1" /><path clip-path="url(#clip910)" d="M115.927 533.18 L123.566 533.18 L123.566 506.815 L115.256 508.481 L115.256 504.222 L123.519 502.555 L128.195 502.555 L128.195 533.18 L135.834 533.18 L135.834 537.115 L115.927 537.115 L115.927 533.18 Z" fill="#000000" fill-rule="evenodd" fill-opacity="1" /><path clip-path="url(#clip910)" d="M159.445 518.481 Q162.802 519.199 164.677 521.467 Q166.575 523.736 166.575 527.069 Q166.575 532.185 163.056 534.986 Q159.538 537.787 153.056 537.787 Q150.88 537.787 148.566 537.347 Q146.274 536.93 143.82 536.074 L143.82 531.56 Q145.765 532.694 148.079 533.273 Q150.394 533.851 152.917 533.851 Q157.315 533.851 159.607 532.115 Q161.922 530.379 161.922 527.069 Q161.922 524.014 159.769 522.301 Q157.64 520.564 153.82 520.564 L149.792 520.564 L149.792 516.722 L154.005 516.722 Q157.454 516.722 159.283 515.356 Q161.112 513.967 161.112 511.375 Q161.112 508.713 159.214 507.301 Q157.339 505.865 153.82 505.865 Q151.899 505.865 149.7 506.282 Q147.501 506.699 144.862 507.578 L144.862 503.412 Q147.524 502.671 149.839 502.301 Q152.177 501.93 154.237 501.93 Q159.561 501.93 162.663 504.361 Q165.765 506.768 165.765 510.889 Q165.765 513.759 164.121 515.75 Q162.477 517.717 159.445 518.481 Z" fill="#000000" fill-rule="evenodd" fill-opacity="1" /><path clip-path="url(#clip910)" d="M175.487 502.555 L193.843 502.555 L193.843 506.49 L179.769 506.49 L179.769 514.963 Q180.788 514.615 181.806 514.453 Q182.825 514.268 183.843 514.268 Q189.63 514.268 193.01 517.44 Q196.389 520.611 196.389 526.027 Q196.389 531.606 192.917 534.708 Q189.445 537.787 183.126 537.787 Q180.95 537.787 178.681 537.416 Q176.436 537.046 174.028 536.305 L174.028 531.606 Q176.112 532.74 178.334 533.296 Q180.556 533.851 183.033 533.851 Q187.038 533.851 189.375 531.745 Q191.713 529.639 191.713 526.027 Q191.713 522.416 189.375 520.31 Q187.038 518.203 183.033 518.203 Q181.158 518.203 179.283 518.62 Q177.431 519.037 175.487 519.916 L175.487 502.555 Z" fill="#000000" fill-rule="evenodd" fill-opacity="1" /><path clip-path="url(#clip910)" d="M114.931 307.958 L122.57 307.958 L122.57 281.592 L114.26 283.259 L114.26 279 L122.524 277.333 L127.2 277.333 L127.2 307.958 L134.839 307.958 L134.839 311.893 L114.931 311.893 L114.931 307.958 Z" fill="#000000" fill-rule="evenodd" fill-opacity="1" /><path clip-path="url(#clip910)" d="M157.13 281.407 L145.325 299.856 L157.13 299.856 L157.13 281.407 M155.903 277.333 L161.783 277.333 L161.783 299.856 L166.714 299.856 L166.714 303.745 L161.783 303.745 L161.783 311.893 L157.13 311.893 L157.13 303.745 L141.529 303.745 L141.529 299.231 L155.903 277.333 Z" fill="#000000" fill-rule="evenodd" fill-opacity="1" /><path clip-path="url(#clip910)" d="M184.445 280.412 Q180.834 280.412 179.005 283.977 Q177.2 287.518 177.2 294.648 Q177.2 301.754 179.005 305.319 Q180.834 308.861 184.445 308.861 Q188.079 308.861 189.885 305.319 Q191.713 301.754 191.713 294.648 Q191.713 287.518 189.885 283.977 Q188.079 280.412 184.445 280.412 M184.445 276.708 Q190.255 276.708 193.311 281.315 Q196.389 285.898 196.389 294.648 Q196.389 303.375 193.311 307.981 Q190.255 312.564 184.445 312.564 Q178.635 312.564 175.556 307.981 Q172.501 303.375 172.501 294.648 Q172.501 285.898 175.556 281.315 Q178.635 276.708 184.445 276.708 Z" fill="#000000" fill-rule="evenodd" fill-opacity="1" /><path clip-path="url(#clip910)" d="M115.927 82.7357 L123.566 82.7357 L123.566 56.3701 L115.256 58.0368 L115.256 53.7776 L123.519 52.1109 L128.195 52.1109 L128.195 82.7357 L135.834 82.7357 L135.834 86.6709 L115.927 86.6709 L115.927 82.7357 Z" fill="#000000" fill-rule="evenodd" fill-opacity="1" /><path clip-path="url(#clip910)" d="M158.126 56.1849 L146.32 74.6339 L158.126 74.6339 L158.126 56.1849 M156.899 52.1109 L162.778 52.1109 L162.778 74.6339 L167.709 74.6339 L167.709 78.5228 L162.778 78.5228 L162.778 86.6709 L158.126 86.6709 L158.126 78.5228 L142.524 78.5228 L142.524 74.0089 L156.899 52.1109 Z" fill="#000000" fill-rule="evenodd" fill-opacity="1" /><path clip-path="url(#clip910)" d="M175.487 52.1109 L193.843 52.1109 L193.843 56.0461 L179.769 56.0461 L179.769 64.5182 Q180.788 64.171 181.806 64.009 Q182.825 63.8238 183.843 63.8238 Q189.63 63.8238 193.01 66.9951 Q196.389 70.1664 196.389 75.583 Q196.389 81.1617 192.917 84.2635 Q189.445 87.3422 183.126 87.3422 Q180.95 87.3422 178.681 86.9718 Q176.436 86.6015 174.028 85.8607 L174.028 81.1617 Q176.112 82.2959 178.334 82.8515 Q180.556 83.407 183.033 83.407 Q187.038 83.407 189.375 81.3006 Q191.713 79.1941 191.713 75.583 Q191.713 71.9719 189.375 69.8654 Q187.038 67.759 183.033 67.759 Q181.158 67.759 179.283 68.1756 Q177.431 68.5923 175.487 69.4719 L175.487 52.1109 Z" fill="#000000" fill-rule="evenodd" fill-opacity="1" /><path clip-path="url(#clip910)" d="M20.1444 858.15 L26.9239 858.15 Q23.9002 861.396 22.4043 865.088 Q20.9083 868.749 20.9083 872.886 Q20.9083 881.034 25.9054 885.363 Q30.8707 889.692 40.2919 889.692 Q49.6813 889.692 54.6784 885.363 Q59.6436 881.034 59.6436 872.886 Q59.6436 868.749 58.1477 865.088 Q56.6518 861.396 53.6281 858.15 L60.3439 858.15 Q62.6355 861.524 63.7814 865.311 Q64.9272 869.067 64.9272 873.268 Q64.9272 884.058 58.3387 890.265 Q51.7183 896.471 40.2919 896.471 Q28.8336 896.471 22.2451 890.265 Q15.6248 884.058 15.6248 873.268 Q15.6248 869.003 16.7706 865.247 Q17.8846 861.46 20.1444 858.15 Z" fill="#000000" fill-rule="evenodd" fill-opacity="1" /><path clip-path="url(#clip910)" d="M14.479 848.474 L14.479 842.617 L64.0042 842.617 L64.0042 848.474 L14.479 848.474 Z" fill="#000000" fill-rule="evenodd" fill-opacity="1" /><path clip-path="url(#clip910)" d="M32.4621 816.55 Q32.4621 821.26 36.1542 823.998 Q39.8145 826.735 46.212 826.735 Q52.6095 826.735 56.3017 824.029 Q59.9619 821.292 59.9619 816.55 Q59.9619 811.871 56.2698 809.134 Q52.5777 806.396 46.212 806.396 Q39.8781 806.396 36.186 809.134 Q32.4621 811.871 32.4621 816.55 M27.4968 816.55 Q27.4968 808.911 32.4621 804.55 Q37.4273 800.19 46.212 800.19 Q54.9649 800.19 59.9619 804.55 Q64.9272 808.911 64.9272 816.55 Q64.9272 824.22 59.9619 828.581 Q54.9649 832.91 46.212 832.91 Q37.4273 832.91 32.4621 828.581 Q27.4968 824.22 27.4968 816.55 Z" fill="#000000" fill-rule="evenodd" fill-opacity="1" /><path clip-path="url(#clip910)" d="M29.4065 767.757 L34.9447 767.757 Q33.6716 770.239 33.035 772.913 Q32.3984 775.586 32.3984 778.451 Q32.3984 782.812 33.7352 785.008 Q35.072 787.172 37.7456 787.172 Q39.7826 787.172 40.9603 785.612 Q42.1061 784.053 43.1565 779.342 L43.6021 777.337 Q44.9389 771.099 47.3897 768.489 Q49.8086 765.847 54.1691 765.847 Q59.1344 765.847 62.0308 769.794 Q64.9272 773.709 64.9272 780.584 Q64.9272 783.448 64.3543 786.567 Q63.8132 789.655 62.6992 793.092 L56.6518 793.092 Q58.3387 789.846 59.198 786.695 Q60.0256 783.544 60.0256 780.456 Q60.0256 776.319 58.6251 774.091 Q57.1929 771.863 54.6147 771.863 Q52.2276 771.863 50.9545 773.486 Q49.6813 775.077 48.5037 780.52 L48.0262 782.557 Q46.8804 788 44.5251 790.419 Q42.138 792.838 38.0002 792.838 Q32.9713 792.838 30.2341 789.273 Q27.4968 785.708 27.4968 779.151 Q27.4968 775.905 27.9743 773.04 Q28.4517 770.176 29.4065 767.757 Z" fill="#000000" fill-rule="evenodd" fill-opacity="1" /><path clip-path="url(#clip910)" d="M44.7161 726.029 L47.5806 726.029 L47.5806 752.956 Q53.6281 752.574 56.8109 749.328 Q59.9619 746.05 59.9619 740.225 Q59.9619 736.851 59.1344 733.7 Q58.3069 730.517 56.6518 727.398 L62.1899 727.398 Q63.5267 730.549 64.227 733.859 Q64.9272 737.169 64.9272 740.575 Q64.9272 749.105 59.9619 754.102 Q54.9967 759.067 46.5303 759.067 Q37.7774 759.067 32.6531 754.357 Q27.4968 749.614 27.4968 741.594 Q27.4968 734.4 32.1438 730.231 Q36.7589 726.029 44.7161 726.029 M42.9973 731.886 Q38.1912 731.95 35.3266 734.591 Q32.4621 737.201 32.4621 741.53 Q32.4621 746.432 35.2312 749.392 Q38.0002 752.32 43.0292 752.765 L42.9973 731.886 Z" fill="#000000" fill-rule="evenodd" fill-opacity="1" /><path clip-path="url(#clip910)" d="M74.8259 689.331 L79.3773 689.331 L79.3773 723.197 L74.8259 723.197 L74.8259 689.331 Z" fill="#000000" fill-rule="evenodd" fill-opacity="1" /><path clip-path="url(#clip910)" d="M14.479 683.825 L14.479 677.968 L64.0042 677.968 L64.0042 683.825 L14.479 683.825 Z" fill="#000000" fill-rule="evenodd" fill-opacity="1" /><path clip-path="url(#clip910)" d="M46.0847 649.514 Q46.0847 656.611 47.7079 659.349 Q49.3312 662.086 53.2461 662.086 Q56.3653 662.086 58.2114 660.049 Q60.0256 657.98 60.0256 654.447 Q60.0256 649.577 56.5881 646.649 Q53.1188 643.689 47.3897 643.689 L46.0847 643.689 L46.0847 649.514 M43.6657 637.833 L64.0042 637.833 L64.0042 643.689 L58.5933 643.689 Q61.8398 645.694 63.3994 648.686 Q64.9272 651.678 64.9272 656.007 Q64.9272 661.481 61.8716 664.728 Q58.7843 667.942 53.6281 667.942 Q47.6125 667.942 44.5569 663.932 Q41.5014 659.89 41.5014 651.901 L41.5014 643.689 L40.9285 643.689 Q36.8862 643.689 34.6901 646.363 Q32.4621 649.004 32.4621 653.81 Q32.4621 656.866 33.1941 659.762 Q33.9262 662.659 35.3903 665.332 L29.9795 665.332 Q28.7381 662.118 28.1334 659.094 Q27.4968 656.07 27.4968 653.206 Q27.4968 645.471 31.5072 641.652 Q35.5176 637.833 43.6657 637.833 Z" fill="#000000" fill-rule="evenodd" fill-opacity="1" /><path clip-path="url(#clip910)" d="M29.4065 603.044 L34.9447 603.044 Q33.6716 605.527 33.035 608.2 Q32.3984 610.874 32.3984 613.738 Q32.3984 618.099 33.7352 620.295 Q35.072 622.459 37.7456 622.459 Q39.7826 622.459 40.9603 620.9 Q42.1061 619.34 43.1565 614.63 L43.6021 612.624 Q44.9389 606.386 47.3897 603.776 Q49.8086 601.134 54.1691 601.134 Q59.1344 601.134 62.0308 605.081 Q64.9272 608.996 64.9272 615.871 Q64.9272 618.735 64.3543 621.855 Q63.8132 624.942 62.6992 628.379 L56.6518 628.379 Q58.3387 625.133 59.198 621.982 Q60.0256 618.831 60.0256 615.744 Q60.0256 611.606 58.6251 609.378 Q57.1929 607.15 54.6147 607.15 Q52.2276 607.15 50.9545 608.773 Q49.6813 610.365 48.5037 615.807 L48.0262 617.844 Q46.8804 623.287 44.5251 625.706 Q42.138 628.125 38.0002 628.125 Q32.9713 628.125 30.2341 624.56 Q27.4968 620.995 27.4968 614.439 Q27.4968 611.192 27.9743 608.328 Q28.4517 605.463 29.4065 603.044 Z" fill="#000000" fill-rule="evenodd" fill-opacity="1" /><path clip-path="url(#clip910)" d="M18.2347 586.016 L28.3562 586.016 L28.3562 573.953 L32.9077 573.953 L32.9077 586.016 L52.2594 586.016 Q56.6199 586.016 57.8613 584.838 Q59.1026 583.629 59.1026 579.968 L59.1026 573.953 L64.0042 573.953 L64.0042 579.968 Q64.0042 586.748 61.4897 589.326 Q58.9434 591.904 52.2594 591.904 L32.9077 591.904 L32.9077 596.201 L28.3562 596.201 L28.3562 591.904 L18.2347 591.904 L18.2347 586.016 Z" fill="#000000" fill-rule="evenodd" fill-opacity="1" /><polyline clip-path="url(#clip912)" style="stroke:#009af9; stroke-linecap:butt; stroke-linejoin:round; stroke-width:4; stroke-opacity:1; fill:none" points="
  292.4,490.983 331.622,336.815 370.845,370.405 410.067,367.821 449.29,410.885 488.512,252.411 527.735,86.1857 566.957,437.584 606.179,277.387 645.402,571.081 
  684.624,506.485 723.847,619.312 763.069,514.237 802.292,530.601 841.514,395.813 880.737,435 919.959,610.269 959.182,597.35 998.404,590.029 1037.63,700.272 
  1076.85,777.355 1116.07,680.032 1155.29,428.971 1194.52,433.278 1233.74,373.42 1272.96,1093.87 1312.18,1213.59 1351.41,1032.89 1390.63,1242.35 1429.85,1373.43 
  1469.07,1384.24 1508.3,1247.75 1547.52,1011.27 1586.74,862.173 1620.36,716.679 1665.19,580.195 1704.41,527.493 1743.63,555.42 1782.85,774.336 1822.08,542.358 
  1861.3,422.99 1900.52,623.888 1939.74,999.559 1978.97,1007.22 2018.19,897.308 2057.41,1017.13 2096.63,800.913 2135.86,684.247 2175.08,738.301 2214.3,847.308 
  2247.92,900.011 2292.75,373.441 
  "/>
<path clip-path="url(#clip910)" d="
M1811.92 196.789 L2282.08 196.789 L2282.08 93.1086 L1811.92 93.1086  Z
  " fill="#ffffff" fill-rule="evenodd" fill-opacity="1"/>
<polyline clip-path="url(#clip910)" style="stroke:#000000; stroke-linecap:butt; stroke-linejoin:round; stroke-width:4; stroke-opacity:1; fill:none" points="
  1811.92,196.789 2282.08,196.789 2282.08,93.1086 1811.92,93.1086 1811.92,196.789 
  "/>
<polyline clip-path="url(#clip910)" style="stroke:#009af9; stroke-linecap:butt; stroke-linejoin:round; stroke-width:4; stroke-opacity:1; fill:none" points="
  1835.48,144.949 1976.84,144.949 
  "/>
<path clip-path="url(#clip910)" d="M2028.27 130.331 L2028.27 135.261 Q2025.91 133.062 2023.22 131.974 Q2020.56 130.886 2017.55 130.886 Q2011.63 130.886 2008.48 134.52 Q2005.33 138.132 2005.33 144.983 Q2005.33 151.812 2008.48 155.446 Q2011.63 159.057 2017.55 159.057 Q2020.56 159.057 2023.22 157.969 Q2025.91 156.881 2028.27 154.682 L2028.27 159.567 Q2025.82 161.233 2023.06 162.067 Q2020.33 162.9 2017.27 162.9 Q2009.43 162.9 2004.91 158.108 Q2000.4 153.293 2000.4 144.983 Q2000.4 136.65 2004.91 131.858 Q2009.43 127.044 2017.27 127.044 Q2020.38 127.044 2023.11 127.877 Q2025.86 128.687 2028.27 130.331 Z" fill="#000000" fill-rule="evenodd" fill-opacity="1" /><path clip-path="url(#clip910)" d="M2035.31 126.21 L2039.57 126.21 L2039.57 162.229 L2035.31 162.229 L2035.31 126.21 Z" fill="#000000" fill-rule="evenodd" fill-opacity="1" /><path clip-path="url(#clip910)" d="M2058.52 139.289 Q2055.1 139.289 2053.11 141.974 Q2051.12 144.636 2051.12 149.289 Q2051.12 153.942 2053.08 156.627 Q2055.07 159.289 2058.52 159.289 Q2061.93 159.289 2063.92 156.604 Q2065.91 153.918 2065.91 149.289 Q2065.91 144.682 2063.92 141.997 Q2061.93 139.289 2058.52 139.289 M2058.52 135.678 Q2064.08 135.678 2067.25 139.289 Q2070.42 142.9 2070.42 149.289 Q2070.42 155.655 2067.25 159.289 Q2064.08 162.9 2058.52 162.9 Q2052.94 162.9 2049.77 159.289 Q2046.63 155.655 2046.63 149.289 Q2046.63 142.9 2049.77 139.289 Q2052.94 135.678 2058.52 135.678 Z" fill="#000000" fill-rule="evenodd" fill-opacity="1" /><path clip-path="url(#clip910)" d="M2094.01 137.067 L2094.01 141.094 Q2092.2 140.169 2090.26 139.706 Q2088.32 139.243 2086.23 139.243 Q2083.06 139.243 2081.46 140.215 Q2079.89 141.187 2079.89 143.131 Q2079.89 144.613 2081.02 145.469 Q2082.16 146.303 2085.58 147.067 L2087.04 147.391 Q2091.58 148.363 2093.48 150.145 Q2095.4 151.905 2095.4 155.076 Q2095.4 158.687 2092.53 160.793 Q2089.68 162.9 2084.68 162.9 Q2082.6 162.9 2080.33 162.483 Q2078.08 162.09 2075.58 161.28 L2075.58 156.881 Q2077.94 158.108 2080.24 158.733 Q2082.53 159.335 2084.77 159.335 Q2087.78 159.335 2089.4 158.317 Q2091.02 157.275 2091.02 155.4 Q2091.02 153.664 2089.84 152.738 Q2088.69 151.812 2084.73 150.956 L2083.25 150.608 Q2079.29 149.775 2077.53 148.062 Q2075.77 146.326 2075.77 143.317 Q2075.77 139.659 2078.36 137.669 Q2080.95 135.678 2085.72 135.678 Q2088.08 135.678 2090.17 136.025 Q2092.25 136.372 2094.01 137.067 Z" fill="#000000" fill-rule="evenodd" fill-opacity="1" /><path clip-path="url(#clip910)" d="M2124.36 148.201 L2124.36 150.284 L2104.77 150.284 Q2105.05 154.682 2107.41 156.997 Q2109.8 159.289 2114.03 159.289 Q2116.49 159.289 2118.78 158.687 Q2121.09 158.085 2123.36 156.881 L2123.36 160.909 Q2121.07 161.881 2118.66 162.391 Q2116.25 162.9 2113.78 162.9 Q2107.57 162.9 2103.94 159.289 Q2100.33 155.678 2100.33 149.52 Q2100.33 143.155 2103.75 139.428 Q2107.2 135.678 2113.04 135.678 Q2118.27 135.678 2121.3 139.057 Q2124.36 142.414 2124.36 148.201 M2120.1 146.951 Q2120.05 143.456 2118.13 141.372 Q2116.23 139.289 2113.08 139.289 Q2109.52 139.289 2107.37 141.303 Q2105.24 143.317 2104.91 146.974 L2120.1 146.951 Z" fill="#000000" fill-rule="evenodd" fill-opacity="1" /><path clip-path="url(#clip910)" d="M2151.05 170.099 L2151.05 173.409 L2126.42 173.409 L2126.42 170.099 L2151.05 170.099 Z" fill="#000000" fill-rule="evenodd" fill-opacity="1" /><path clip-path="url(#clip910)" d="M2155.05 126.21 L2159.31 126.21 L2159.31 162.229 L2155.05 162.229 L2155.05 126.21 Z" fill="#000000" fill-rule="evenodd" fill-opacity="1" /><path clip-path="url(#clip910)" d="M2180 149.196 Q2174.84 149.196 2172.85 150.377 Q2170.86 151.557 2170.86 154.405 Q2170.86 156.673 2172.34 158.016 Q2173.85 159.335 2176.42 159.335 Q2179.96 159.335 2182.09 156.835 Q2184.24 154.312 2184.24 150.145 L2184.24 149.196 L2180 149.196 M2188.5 147.437 L2188.5 162.229 L2184.24 162.229 L2184.24 158.293 Q2182.78 160.655 2180.61 161.789 Q2178.43 162.9 2175.28 162.9 Q2171.3 162.9 2168.94 160.678 Q2166.6 158.432 2166.6 154.682 Q2166.6 150.307 2169.52 148.085 Q2172.46 145.863 2178.27 145.863 L2184.24 145.863 L2184.24 145.446 Q2184.24 142.507 2182.3 140.909 Q2180.37 139.289 2176.88 139.289 Q2174.66 139.289 2172.55 139.821 Q2170.44 140.354 2168.5 141.419 L2168.5 137.483 Q2170.84 136.581 2173.04 136.141 Q2175.24 135.678 2177.32 135.678 Q2182.94 135.678 2185.72 138.594 Q2188.5 141.511 2188.5 147.437 Z" fill="#000000" fill-rule="evenodd" fill-opacity="1" /><path clip-path="url(#clip910)" d="M2213.8 137.067 L2213.8 141.094 Q2211.99 140.169 2210.05 139.706 Q2208.11 139.243 2206.02 139.243 Q2202.85 139.243 2201.25 140.215 Q2199.68 141.187 2199.68 143.131 Q2199.68 144.613 2200.81 145.469 Q2201.95 146.303 2205.37 147.067 L2206.83 147.391 Q2211.37 148.363 2213.27 150.145 Q2215.19 151.905 2215.19 155.076 Q2215.19 158.687 2212.32 160.793 Q2209.47 162.9 2204.47 162.9 Q2202.39 162.9 2200.12 162.483 Q2197.87 162.09 2195.37 161.28 L2195.37 156.881 Q2197.74 158.108 2200.03 158.733 Q2202.32 159.335 2204.56 159.335 Q2207.57 159.335 2209.19 158.317 Q2210.81 157.275 2210.81 155.4 Q2210.81 153.664 2209.63 152.738 Q2208.48 151.812 2204.52 150.956 L2203.04 150.608 Q2199.08 149.775 2197.32 148.062 Q2195.56 146.326 2195.56 143.317 Q2195.56 139.659 2198.15 137.669 Q2200.74 135.678 2205.51 135.678 Q2207.87 135.678 2209.96 136.025 Q2212.04 136.372 2213.8 137.067 Z" fill="#000000" fill-rule="evenodd" fill-opacity="1" /><path clip-path="url(#clip910)" d="M2226.18 128.942 L2226.18 136.303 L2234.96 136.303 L2234.96 139.613 L2226.18 139.613 L2226.18 153.687 Q2226.18 156.858 2227.04 157.761 Q2227.92 158.664 2230.58 158.664 L2234.96 158.664 L2234.96 162.229 L2230.58 162.229 Q2225.65 162.229 2223.78 160.4 Q2221.9 158.548 2221.9 153.687 L2221.9 139.613 L2218.78 139.613 L2218.78 136.303 L2221.9 136.303 L2221.9 128.942 L2226.18 128.942 Z" fill="#000000" fill-rule="evenodd" fill-opacity="1" /></svg>
