<?xml version="1.0" encoding="utf-8"?>
<svg xmlns="http://www.w3.org/2000/svg" xmlns:xlink="http://www.w3.org/1999/xlink" width="1200" height="1200" viewBox="0 0 4800 4800">
<defs>
  <clipPath id="clip840">
    <rect x="0" y="0" width="4800" height="4800"/>
  </clipPath>
</defs>
<path clip-path="url(#clip840)" d="
M0 4800 L4800 4800 L4800 0 L0 0  Z
  " fill="#ffffff" fill-rule="evenodd" fill-opacity="1"/>
<defs>
  <clipPath id="clip841">
    <rect x="960" y="480" width="3361" height="3361"/>
  </clipPath>
</defs>
<path clip-path="url(#clip840)" d="
M280.149 4550.14 L4752.76 4550.14 L4752.76 47.2441 L280.149 47.2441  Z
  " fill="#ffffff" fill-rule="evenodd" fill-opacity="1"/>
<defs>
  <clipPath id="clip842">
    <rect x="280" y="47" width="4474" height="4504"/>
  </clipPath>
</defs>
<polyline clip-path="url(#clip842)" style="stroke:#000000; stroke-linecap:butt; stroke-linejoin:round; stroke-width:2; stroke-opacity:0.1; fill:none" points="
  418.552,4550.14 418.552,47.2441 
  "/>
<polyline clip-path="url(#clip842)" style="stroke:#000000; stroke-linecap:butt; stroke-linejoin:round; stroke-width:2; stroke-opacity:0.1; fill:none" points="
  1505.91,4550.14 1505.91,47.2441 
  "/>
<polyline clip-path="url(#clip842)" style="stroke:#000000; stroke-linecap:butt; stroke-linejoin:round; stroke-width:2; stroke-opacity:0.1; fill:none" points="
  2593.28,4550.14 2593.28,47.2441 
  "/>
<polyline clip-path="url(#clip842)" style="stroke:#000000; stroke-linecap:butt; stroke-linejoin:round; stroke-width:2; stroke-opacity:0.1; fill:none" points="
  3680.64,4550.14 3680.64,47.2441 
  "/>
<polyline clip-path="url(#clip842)" style="stroke:#000000; stroke-linecap:butt; stroke-linejoin:round; stroke-width:2; stroke-opacity:0.1; fill:none" points="
  4732.55,4550.14 4732.55,47.2441 
  "/>
<polyline clip-path="url(#clip840)" style="stroke:#000000; stroke-linecap:butt; stroke-linejoin:round; stroke-width:4; stroke-opacity:1; fill:none" points="
  280.149,4550.14 4752.76,4550.14 
  "/>
<polyline clip-path="url(#clip840)" style="stroke:#000000; stroke-linecap:butt; stroke-linejoin:round; stroke-width:4; stroke-opacity:1; fill:none" points="
  418.552,4550.14 418.552,4531.24 
  "/>
<polyline clip-path="url(#clip840)" style="stroke:#000000; stroke-linecap:butt; stroke-linejoin:round; stroke-width:4; stroke-opacity:1; fill:none" points="
  1505.91,4550.14 1505.91,4531.24 
  "/>
<polyline clip-path="url(#clip840)" style="stroke:#000000; stroke-linecap:butt; stroke-linejoin:round; stroke-width:4; stroke-opacity:1; fill:none" points="
  2593.28,4550.14 2593.28,4531.24 
  "/>
<polyline clip-path="url(#clip840)" style="stroke:#000000; stroke-linecap:butt; stroke-linejoin:round; stroke-width:4; stroke-opacity:1; fill:none" points="
  3680.64,4550.14 3680.64,4531.24 
  "/>
<polyline clip-path="url(#clip840)" style="stroke:#000000; stroke-linecap:butt; stroke-linejoin:round; stroke-width:4; stroke-opacity:1; fill:none" points="
  4732.55,4550.14 4732.55,4531.24 
  "/>
<path clip-path="url(#clip840)" d="M290.346 4627.8 L306.666 4627.8 L306.666 4631.74 L284.721 4631.74 L284.721 4627.8 Q287.383 4625.05 291.967 4620.42 Q296.573 4615.77 297.754 4614.43 Q299.999 4611.9 300.879 4610.17 Q301.782 4608.41 301.782 4606.72 Q301.782 4603.96 299.837 4602.23 Q297.916 4600.49 294.814 4600.49 Q292.615 4600.49 290.161 4601.25 Q287.731 4602.02 284.953 4603.57 L284.953 4598.85 Q287.777 4597.71 290.231 4597.13 Q292.684 4596.55 294.721 4596.55 Q300.092 4596.55 303.286 4599.24 Q306.481 4601.93 306.481 4606.42 Q306.481 4608.55 305.67 4610.47 Q304.883 4612.36 302.777 4614.96 Q302.198 4615.63 299.096 4618.85 Q295.994 4622.04 290.346 4627.8 Z" fill="#000000" fill-rule="evenodd" fill-opacity="1" /><path clip-path="url(#clip840)" d="M326.48 4600.26 Q322.869 4600.26 321.041 4603.82 Q319.235 4607.36 319.235 4614.49 Q319.235 4621.6 321.041 4625.17 Q322.869 4628.71 326.48 4628.71 Q330.115 4628.71 331.92 4625.17 Q333.749 4621.6 333.749 4614.49 Q333.749 4607.36 331.92 4603.82 Q330.115 4600.26 326.48 4600.26 M326.48 4596.55 Q332.291 4596.55 335.346 4601.16 Q338.425 4605.74 338.425 4614.49 Q338.425 4623.22 335.346 4627.83 Q332.291 4632.41 326.48 4632.41 Q320.67 4632.41 317.592 4627.83 Q314.536 4623.22 314.536 4614.49 Q314.536 4605.74 317.592 4601.16 Q320.67 4596.55 326.48 4596.55 Z" fill="#000000" fill-rule="evenodd" fill-opacity="1" /><path clip-path="url(#clip840)" d="M350.67 4627.8 L366.989 4627.8 L366.989 4631.74 L345.045 4631.74 L345.045 4627.8 Q347.707 4625.05 352.29 4620.42 Q356.897 4615.77 358.077 4614.43 Q360.323 4611.9 361.202 4610.17 Q362.105 4608.41 362.105 4606.72 Q362.105 4603.96 360.161 4602.23 Q358.24 4600.49 355.138 4600.49 Q352.939 4600.49 350.485 4601.25 Q348.054 4602.02 345.277 4603.57 L345.277 4598.85 Q348.101 4597.71 350.554 4597.13 Q353.008 4596.55 355.045 4596.55 Q360.415 4596.55 363.61 4599.24 Q366.804 4601.93 366.804 4606.42 Q366.804 4608.55 365.994 4610.47 Q365.207 4612.36 363.101 4614.96 Q362.522 4615.63 359.42 4618.85 Q356.318 4622.04 350.67 4627.8 Z" fill="#000000" fill-rule="evenodd" fill-opacity="1" /><path clip-path="url(#clip840)" d="M377.614 4627.8 L385.253 4627.8 L385.253 4601.44 L376.943 4603.11 L376.943 4598.85 L385.207 4597.18 L389.883 4597.18 L389.883 4627.8 L397.522 4627.8 L397.522 4631.74 L377.614 4631.74 L377.614 4627.8 Z" fill="#000000" fill-rule="evenodd" fill-opacity="1" /><path clip-path="url(#clip840)" d="M404.212 4616.86 L416.688 4616.86 L416.688 4620.65 L404.212 4620.65 L404.212 4616.86 Z" fill="#000000" fill-rule="evenodd" fill-opacity="1" /><path clip-path="url(#clip840)" d="M434.072 4600.26 Q430.461 4600.26 428.633 4603.82 Q426.827 4607.36 426.827 4614.49 Q426.827 4621.6 428.633 4625.17 Q430.461 4628.71 434.072 4628.71 Q437.707 4628.71 439.512 4625.17 Q441.341 4621.6 441.341 4614.49 Q441.341 4607.36 439.512 4603.82 Q437.707 4600.26 434.072 4600.26 M434.072 4596.55 Q439.883 4596.55 442.938 4601.16 Q446.017 4605.74 446.017 4614.49 Q446.017 4623.22 442.938 4627.83 Q439.883 4632.41 434.072 4632.41 Q428.262 4632.41 425.184 4627.83 Q422.128 4623.22 422.128 4614.49 Q422.128 4605.74 425.184 4601.16 Q428.262 4596.55 434.072 4596.55 Z" fill="#000000" fill-rule="evenodd" fill-opacity="1" /><path clip-path="url(#clip840)" d="M454.281 4597.18 L472.637 4597.18 L472.637 4601.12 L458.563 4601.12 L458.563 4609.59 Q459.582 4609.24 460.6 4609.08 Q461.619 4608.89 462.637 4608.89 Q468.424 4608.89 471.804 4612.06 Q475.183 4615.24 475.183 4620.65 Q475.183 4626.23 471.711 4629.33 Q468.239 4632.41 461.92 4632.41 Q459.744 4632.41 457.475 4632.04 Q455.23 4631.67 452.822 4630.93 L452.822 4626.23 Q454.906 4627.36 457.128 4627.92 Q459.35 4628.48 461.827 4628.48 Q465.832 4628.48 468.17 4626.37 Q470.507 4624.26 470.507 4620.65 Q470.507 4617.04 468.17 4614.93 Q465.832 4612.83 461.827 4612.83 Q459.952 4612.83 458.077 4613.24 Q456.225 4613.66 454.281 4614.54 L454.281 4597.18 Z" fill="#000000" fill-rule="evenodd" fill-opacity="1" /><path clip-path="url(#clip840)" d="M481.642 4616.86 L494.118 4616.86 L494.118 4620.65 L481.642 4620.65 L481.642 4616.86 Z" fill="#000000" fill-rule="evenodd" fill-opacity="1" /><path clip-path="url(#clip840)" d="M511.503 4600.26 Q507.892 4600.26 506.063 4603.82 Q504.257 4607.36 504.257 4614.49 Q504.257 4621.6 506.063 4625.17 Q507.892 4628.71 511.503 4628.71 Q515.137 4628.71 516.942 4625.17 Q518.771 4621.6 518.771 4614.49 Q518.771 4607.36 516.942 4603.82 Q515.137 4600.26 511.503 4600.26 M511.503 4596.55 Q517.313 4596.55 520.368 4601.16 Q523.447 4605.74 523.447 4614.49 Q523.447 4623.22 520.368 4627.83 Q517.313 4632.41 511.503 4632.41 Q505.692 4632.41 502.614 4627.83 Q499.558 4623.22 499.558 4614.49 Q499.558 4605.74 502.614 4601.16 Q505.692 4596.55 511.503 4596.55 Z" fill="#000000" fill-rule="evenodd" fill-opacity="1" /><path clip-path="url(#clip840)" d="M532.475 4627.8 L540.114 4627.8 L540.114 4601.44 L531.803 4603.11 L531.803 4598.85 L540.067 4597.18 L544.743 4597.18 L544.743 4627.8 L552.382 4627.8 L552.382 4631.74 L532.475 4631.74 L532.475 4627.8 Z" fill="#000000" fill-rule="evenodd" fill-opacity="1" /><path clip-path="url(#clip840)" d="M1377.71 4627.8 L1394.03 4627.8 L1394.03 4631.74 L1372.08 4631.74 L1372.08 4627.8 Q1374.75 4625.05 1379.33 4620.42 Q1383.94 4615.77 1385.12 4614.43 Q1387.36 4611.9 1388.24 4610.17 Q1389.14 4608.41 1389.14 4606.72 Q1389.14 4603.96 1387.2 4602.23 Q1385.28 4600.49 1382.18 4600.49 Q1379.98 4600.49 1377.52 4601.25 Q1375.09 4602.02 1372.32 4603.57 L1372.32 4598.85 Q1375.14 4597.71 1377.59 4597.13 Q1380.05 4596.55 1382.08 4596.55 Q1387.45 4596.55 1390.65 4599.24 Q1393.84 4601.93 1393.84 4606.42 Q1393.84 4608.55 1393.03 4610.47 Q1392.25 4612.36 1390.14 4614.96 Q1389.56 4615.63 1386.46 4618.85 Q1383.36 4622.04 1377.71 4627.8 Z" fill="#000000" fill-rule="evenodd" fill-opacity="1" /><path clip-path="url(#clip840)" d="M1413.84 4600.26 Q1410.23 4600.26 1408.4 4603.82 Q1406.6 4607.36 1406.6 4614.49 Q1406.6 4621.6 1408.4 4625.17 Q1410.23 4628.71 1413.84 4628.71 Q1417.48 4628.71 1419.28 4625.17 Q1421.11 4621.6 1421.11 4614.49 Q1421.11 4607.36 1419.28 4603.82 Q1417.48 4600.26 1413.84 4600.26 M1413.84 4596.55 Q1419.65 4596.55 1422.71 4601.16 Q1425.79 4605.74 1425.79 4614.49 Q1425.79 4623.22 1422.71 4627.83 Q1419.65 4632.41 1413.84 4632.41 Q1408.03 4632.41 1404.95 4627.83 Q1401.9 4623.22 1401.9 4614.49 Q1401.9 4605.74 1404.95 4601.16 Q1408.03 4596.55 1413.84 4596.55 Z" fill="#000000" fill-rule="evenodd" fill-opacity="1" /><path clip-path="url(#clip840)" d="M1438.03 4627.8 L1454.35 4627.8 L1454.35 4631.74 L1432.41 4631.74 L1432.41 4627.8 Q1435.07 4625.05 1439.65 4620.42 Q1444.26 4615.77 1445.44 4614.43 Q1447.69 4611.9 1448.57 4610.17 Q1449.47 4608.41 1449.47 4606.72 Q1449.47 4603.96 1447.52 4602.23 Q1445.6 4600.49 1442.5 4600.49 Q1440.3 4600.49 1437.85 4601.25 Q1435.42 4602.02 1432.64 4603.57 L1432.64 4598.85 Q1435.46 4597.71 1437.92 4597.13 Q1440.37 4596.55 1442.41 4596.55 Q1447.78 4596.55 1450.97 4599.24 Q1454.17 4601.93 1454.17 4606.42 Q1454.17 4608.55 1453.36 4610.47 Q1452.57 4612.36 1450.46 4614.96 Q1449.88 4615.63 1446.78 4618.85 Q1443.68 4622.04 1438.03 4627.8 Z" fill="#000000" fill-rule="evenodd" fill-opacity="1" /><path clip-path="url(#clip840)" d="M1464.98 4627.8 L1472.62 4627.8 L1472.62 4601.44 L1464.31 4603.11 L1464.31 4598.85 L1472.57 4597.18 L1477.25 4597.18 L1477.25 4627.8 L1484.88 4627.8 L1484.88 4631.74 L1464.98 4631.74 L1464.98 4627.8 Z" fill="#000000" fill-rule="evenodd" fill-opacity="1" /><path clip-path="url(#clip840)" d="M1491.57 4616.86 L1504.05 4616.86 L1504.05 4620.65 L1491.57 4620.65 L1491.57 4616.86 Z" fill="#000000" fill-rule="evenodd" fill-opacity="1" /><path clip-path="url(#clip840)" d="M1521.44 4600.26 Q1517.82 4600.26 1516 4603.82 Q1514.19 4607.36 1514.19 4614.49 Q1514.19 4621.6 1516 4625.17 Q1517.82 4628.71 1521.44 4628.71 Q1525.07 4628.71 1526.87 4625.17 Q1528.7 4621.6 1528.7 4614.49 Q1528.7 4607.36 1526.87 4603.82 Q1525.07 4600.26 1521.44 4600.26 M1521.44 4596.55 Q1527.25 4596.55 1530.3 4601.16 Q1533.38 4605.74 1533.38 4614.49 Q1533.38 4623.22 1530.3 4627.83 Q1527.25 4632.41 1521.44 4632.41 Q1515.63 4632.41 1512.55 4627.83 Q1509.49 4623.22 1509.49 4614.49 Q1509.49 4605.74 1512.55 4601.16 Q1515.63 4596.55 1521.44 4596.55 Z" fill="#000000" fill-rule="evenodd" fill-opacity="1" /><path clip-path="url(#clip840)" d="M1551.6 4615.33 Q1548.26 4615.33 1546.34 4617.11 Q1544.44 4618.89 1544.44 4622.02 Q1544.44 4625.14 1546.34 4626.93 Q1548.26 4628.71 1551.6 4628.71 Q1554.93 4628.71 1556.85 4626.93 Q1558.77 4625.12 1558.77 4622.02 Q1558.77 4618.89 1556.85 4617.11 Q1554.95 4615.33 1551.6 4615.33 M1546.92 4613.34 Q1543.91 4612.6 1542.22 4610.54 Q1540.56 4608.48 1540.56 4605.51 Q1540.56 4601.37 1543.5 4598.96 Q1546.46 4596.55 1551.6 4596.55 Q1556.76 4596.55 1559.7 4598.96 Q1562.64 4601.37 1562.64 4605.51 Q1562.64 4608.48 1560.95 4610.54 Q1559.28 4612.6 1556.3 4613.34 Q1559.68 4614.12 1561.55 4616.42 Q1563.45 4618.71 1563.45 4622.02 Q1563.45 4627.04 1560.37 4629.73 Q1557.31 4632.41 1551.6 4632.41 Q1545.88 4632.41 1542.8 4629.73 Q1539.75 4627.04 1539.75 4622.02 Q1539.75 4618.71 1541.64 4616.42 Q1543.54 4614.12 1546.92 4613.34 M1545.21 4605.95 Q1545.21 4608.64 1546.87 4610.14 Q1548.56 4611.65 1551.6 4611.65 Q1554.61 4611.65 1556.3 4610.14 Q1558.01 4608.64 1558.01 4605.95 Q1558.01 4603.27 1556.3 4601.76 Q1554.61 4600.26 1551.6 4600.26 Q1548.56 4600.26 1546.87 4601.76 Q1545.21 4603.27 1545.21 4605.95 Z" fill="#000000" fill-rule="evenodd" fill-opacity="1" /><path clip-path="url(#clip840)" d="M1569 4616.86 L1581.48 4616.86 L1581.48 4620.65 L1569 4620.65 L1569 4616.86 Z" fill="#000000" fill-rule="evenodd" fill-opacity="1" /><path clip-path="url(#clip840)" d="M1598.87 4600.26 Q1595.25 4600.26 1593.43 4603.82 Q1591.62 4607.36 1591.62 4614.49 Q1591.62 4621.6 1593.43 4625.17 Q1595.25 4628.71 1598.87 4628.71 Q1602.5 4628.71 1604.31 4625.17 Q1606.13 4621.6 1606.13 4614.49 Q1606.13 4607.36 1604.31 4603.82 Q1602.5 4600.26 1598.87 4600.26 M1598.87 4596.55 Q1604.68 4596.55 1607.73 4601.16 Q1610.81 4605.74 1610.81 4614.49 Q1610.81 4623.22 1607.73 4627.83 Q1604.68 4632.41 1598.87 4632.41 Q1593.06 4632.41 1589.98 4627.83 Q1586.92 4623.22 1586.92 4614.49 Q1586.92 4605.74 1589.98 4601.16 Q1593.06 4596.55 1598.87 4596.55 Z" fill="#000000" fill-rule="evenodd" fill-opacity="1" /><path clip-path="url(#clip840)" d="M1619.84 4627.8 L1627.48 4627.8 L1627.48 4601.44 L1619.17 4603.11 L1619.17 4598.85 L1627.43 4597.18 L1632.11 4597.18 L1632.11 4627.8 L1639.74 4627.8 L1639.74 4631.74 L1619.84 4631.74 L1619.84 4627.8 Z" fill="#000000" fill-rule="evenodd" fill-opacity="1" /><path clip-path="url(#clip840)" d="M2465.07 4627.8 L2481.39 4627.8 L2481.39 4631.74 L2459.45 4631.74 L2459.45 4627.8 Q2462.11 4625.05 2466.69 4620.42 Q2471.3 4615.77 2472.48 4614.43 Q2474.72 4611.9 2475.6 4610.17 Q2476.51 4608.41 2476.51 4606.72 Q2476.51 4603.96 2474.56 4602.23 Q2472.64 4600.49 2469.54 4600.49 Q2467.34 4600.49 2464.89 4601.25 Q2462.46 4602.02 2459.68 4603.57 L2459.68 4598.85 Q2462.5 4597.71 2464.96 4597.13 Q2467.41 4596.55 2469.45 4596.55 Q2474.82 4596.55 2478.01 4599.24 Q2481.21 4601.93 2481.21 4606.42 Q2481.21 4608.55 2480.4 4610.47 Q2479.61 4612.36 2477.5 4614.96 Q2476.92 4615.63 2473.82 4618.85 Q2470.72 4622.04 2465.07 4627.8 Z" fill="#000000" fill-rule="evenodd" fill-opacity="1" /><path clip-path="url(#clip840)" d="M2501.21 4600.26 Q2497.59 4600.26 2495.77 4603.82 Q2493.96 4607.36 2493.96 4614.49 Q2493.96 4621.6 2495.77 4625.17 Q2497.59 4628.71 2501.21 4628.71 Q2504.84 4628.71 2506.65 4625.17 Q2508.47 4621.6 2508.47 4614.49 Q2508.47 4607.36 2506.65 4603.82 Q2504.84 4600.26 2501.21 4600.26 M2501.21 4596.55 Q2507.02 4596.55 2510.07 4601.16 Q2513.15 4605.74 2513.15 4614.49 Q2513.15 4623.22 2510.07 4627.83 Q2507.02 4632.41 2501.21 4632.41 Q2495.4 4632.41 2492.32 4627.83 Q2489.26 4623.22 2489.26 4614.49 Q2489.26 4605.74 2492.32 4601.16 Q2495.4 4596.55 2501.21 4596.55 Z" fill="#000000" fill-rule="evenodd" fill-opacity="1" /><path clip-path="url(#clip840)" d="M2525.4 4627.8 L2541.71 4627.8 L2541.71 4631.74 L2519.77 4631.74 L2519.77 4627.8 Q2522.43 4625.05 2527.02 4620.42 Q2531.62 4615.77 2532.8 4614.43 Q2535.05 4611.9 2535.93 4610.17 Q2536.83 4608.41 2536.83 4606.72 Q2536.83 4603.96 2534.89 4602.23 Q2532.96 4600.49 2529.86 4600.49 Q2527.66 4600.49 2525.21 4601.25 Q2522.78 4602.02 2520 4603.57 L2520 4598.85 Q2522.83 4597.71 2525.28 4597.13 Q2527.73 4596.55 2529.77 4596.55 Q2535.14 4596.55 2538.34 4599.24 Q2541.53 4601.93 2541.53 4606.42 Q2541.53 4608.55 2540.72 4610.47 Q2539.93 4612.36 2537.83 4614.96 Q2537.25 4615.63 2534.15 4618.85 Q2531.04 4622.04 2525.4 4627.8 Z" fill="#000000" fill-rule="evenodd" fill-opacity="1" /><path clip-path="url(#clip840)" d="M2552.34 4627.8 L2559.98 4627.8 L2559.98 4601.44 L2551.67 4603.11 L2551.67 4598.85 L2559.93 4597.18 L2564.61 4597.18 L2564.61 4627.8 L2572.25 4627.8 L2572.25 4631.74 L2552.34 4631.74 L2552.34 4627.8 Z" fill="#000000" fill-rule="evenodd" fill-opacity="1" /><path clip-path="url(#clip840)" d="M2578.94 4616.86 L2591.41 4616.86 L2591.41 4620.65 L2578.94 4620.65 L2578.94 4616.86 Z" fill="#000000" fill-rule="evenodd" fill-opacity="1" /><path clip-path="url(#clip840)" d="M2599.61 4627.8 L2607.25 4627.8 L2607.25 4601.44 L2598.94 4603.11 L2598.94 4598.85 L2607.2 4597.18 L2611.88 4597.18 L2611.88 4627.8 L2619.52 4627.8 L2619.52 4631.74 L2599.61 4631.74 L2599.61 4627.8 Z" fill="#000000" fill-rule="evenodd" fill-opacity="1" /><path clip-path="url(#clip840)" d="M2629.77 4627.8 L2637.41 4627.8 L2637.41 4601.44 L2629.1 4603.11 L2629.1 4598.85 L2637.36 4597.18 L2642.04 4597.18 L2642.04 4627.8 L2649.68 4627.8 L2649.68 4631.74 L2629.77 4631.74 L2629.77 4627.8 Z" fill="#000000" fill-rule="evenodd" fill-opacity="1" /><path clip-path="url(#clip840)" d="M2656.37 4616.86 L2668.84 4616.86 L2668.84 4620.65 L2656.37 4620.65 L2656.37 4616.86 Z" fill="#000000" fill-rule="evenodd" fill-opacity="1" /><path clip-path="url(#clip840)" d="M2686.23 4600.26 Q2682.62 4600.26 2680.79 4603.82 Q2678.98 4607.36 2678.98 4614.49 Q2678.98 4621.6 2680.79 4625.17 Q2682.62 4628.71 2686.23 4628.71 Q2689.86 4628.71 2691.67 4625.17 Q2693.5 4621.6 2693.5 4614.49 Q2693.5 4607.36 2691.67 4603.82 Q2689.86 4600.26 2686.23 4600.26 M2686.23 4596.55 Q2692.04 4596.55 2695.09 4601.16 Q2698.17 4605.74 2698.17 4614.49 Q2698.17 4623.22 2695.09 4627.83 Q2692.04 4632.41 2686.23 4632.41 Q2680.42 4632.41 2677.34 4627.83 Q2674.28 4623.22 2674.28 4614.49 Q2674.28 4605.74 2677.34 4601.16 Q2680.42 4596.55 2686.23 4596.55 Z" fill="#000000" fill-rule="evenodd" fill-opacity="1" /><path clip-path="url(#clip840)" d="M2707.2 4627.8 L2714.84 4627.8 L2714.84 4601.44 L2706.53 4603.11 L2706.53 4598.85 L2714.79 4597.18 L2719.47 4597.18 L2719.47 4627.8 L2727.11 4627.8 L2727.11 4631.74 L2707.2 4631.74 L2707.2 4627.8 Z" fill="#000000" fill-rule="evenodd" fill-opacity="1" /><path clip-path="url(#clip840)" d="M3552.43 4627.8 L3568.75 4627.8 L3568.75 4631.74 L3546.81 4631.74 L3546.81 4627.8 Q3549.47 4625.05 3554.05 4620.42 Q3558.66 4615.77 3559.84 4614.43 Q3562.09 4611.9 3562.97 4610.17 Q3563.87 4608.41 3563.87 4606.72 Q3563.87 4603.96 3561.93 4602.23 Q3560 4600.49 3556.9 4600.49 Q3554.7 4600.49 3552.25 4601.25 Q3549.82 4602.02 3547.04 4603.57 L3547.04 4598.85 Q3549.87 4597.71 3552.32 4597.13 Q3554.77 4596.55 3556.81 4596.55 Q3562.18 4596.55 3565.37 4599.24 Q3568.57 4601.93 3568.57 4606.42 Q3568.57 4608.55 3567.76 4610.47 Q3566.97 4612.36 3564.87 4614.96 Q3564.29 4615.63 3561.18 4618.85 Q3558.08 4622.04 3552.43 4627.8 Z" fill="#000000" fill-rule="evenodd" fill-opacity="1" /><path clip-path="url(#clip840)" d="M3588.57 4600.26 Q3584.96 4600.26 3583.13 4603.82 Q3581.32 4607.36 3581.32 4614.49 Q3581.32 4621.6 3583.13 4625.17 Q3584.96 4628.71 3588.57 4628.71 Q3592.2 4628.71 3594.01 4625.17 Q3595.84 4621.6 3595.84 4614.49 Q3595.84 4607.36 3594.01 4603.82 Q3592.2 4600.26 3588.57 4600.26 M3588.57 4596.55 Q3594.38 4596.55 3597.43 4601.16 Q3600.51 4605.74 3600.51 4614.49 Q3600.51 4623.22 3597.43 4627.83 Q3594.38 4632.41 3588.57 4632.41 Q3582.76 4632.41 3579.68 4627.83 Q3576.62 4623.22 3576.62 4614.49 Q3576.62 4605.74 3579.68 4601.16 Q3582.76 4596.55 3588.57 4596.55 Z" fill="#000000" fill-rule="evenodd" fill-opacity="1" /><path clip-path="url(#clip840)" d="M3612.76 4627.8 L3629.08 4627.8 L3629.08 4631.74 L3607.13 4631.74 L3607.13 4627.8 Q3609.8 4625.05 3614.38 4620.42 Q3618.99 4615.77 3620.17 4614.43 Q3622.41 4611.9 3623.29 4610.17 Q3624.19 4608.41 3624.19 4606.72 Q3624.19 4603.96 3622.25 4602.23 Q3620.33 4600.49 3617.23 4600.49 Q3615.03 4600.49 3612.57 4601.25 Q3610.14 4602.02 3607.36 4603.57 L3607.36 4598.85 Q3610.19 4597.71 3612.64 4597.13 Q3615.1 4596.55 3617.13 4596.55 Q3622.5 4596.55 3625.7 4599.24 Q3628.89 4601.93 3628.89 4606.42 Q3628.89 4608.55 3628.08 4610.47 Q3627.3 4612.36 3625.19 4614.96 Q3624.61 4615.63 3621.51 4618.85 Q3618.41 4622.04 3612.76 4627.8 Z" fill="#000000" fill-rule="evenodd" fill-opacity="1" /><path clip-path="url(#clip840)" d="M3642.92 4627.8 L3659.24 4627.8 L3659.24 4631.74 L3637.3 4631.74 L3637.3 4627.8 Q3639.96 4625.05 3644.54 4620.42 Q3649.15 4615.77 3650.33 4614.43 Q3652.57 4611.9 3653.45 4610.17 Q3654.36 4608.41 3654.36 4606.72 Q3654.36 4603.96 3652.41 4602.23 Q3650.49 4600.49 3647.39 4600.49 Q3645.19 4600.49 3642.74 4601.25 Q3640.3 4602.02 3637.53 4603.57 L3637.53 4598.85 Q3640.35 4597.71 3642.8 4597.13 Q3645.26 4596.55 3647.3 4596.55 Q3652.67 4596.55 3655.86 4599.24 Q3659.05 4601.93 3659.05 4606.42 Q3659.05 4608.55 3658.24 4610.47 Q3657.46 4612.36 3655.35 4614.96 Q3654.77 4615.63 3651.67 4618.85 Q3648.57 4622.04 3642.92 4627.8 Z" fill="#000000" fill-rule="evenodd" fill-opacity="1" /><path clip-path="url(#clip840)" d="M3666.3 4616.86 L3678.78 4616.86 L3678.78 4620.65 L3666.3 4620.65 L3666.3 4616.86 Z" fill="#000000" fill-rule="evenodd" fill-opacity="1" /><path clip-path="url(#clip840)" d="M3696.16 4600.26 Q3692.55 4600.26 3690.72 4603.82 Q3688.92 4607.36 3688.92 4614.49 Q3688.92 4621.6 3690.72 4625.17 Q3692.55 4628.71 3696.16 4628.71 Q3699.79 4628.71 3701.6 4625.17 Q3703.43 4621.6 3703.43 4614.49 Q3703.43 4607.36 3701.6 4603.82 Q3699.79 4600.26 3696.16 4600.26 M3696.16 4596.55 Q3701.97 4596.55 3705.03 4601.16 Q3708.11 4605.74 3708.11 4614.49 Q3708.11 4623.22 3705.03 4627.83 Q3701.97 4632.41 3696.16 4632.41 Q3690.35 4632.41 3687.27 4627.83 Q3684.22 4623.22 3684.22 4614.49 Q3684.22 4605.74 3687.27 4601.16 Q3690.35 4596.55 3696.16 4596.55 Z" fill="#000000" fill-rule="evenodd" fill-opacity="1" /><path clip-path="url(#clip840)" d="M3720.35 4627.8 L3736.67 4627.8 L3736.67 4631.74 L3714.73 4631.74 L3714.73 4627.8 Q3717.39 4625.05 3721.97 4620.42 Q3726.58 4615.77 3727.76 4614.43 Q3730 4611.9 3730.88 4610.17 Q3731.79 4608.41 3731.79 4606.72 Q3731.79 4603.96 3729.84 4602.23 Q3727.92 4600.49 3724.82 4600.49 Q3722.62 4600.49 3720.17 4601.25 Q3717.73 4602.02 3714.96 4603.57 L3714.96 4598.85 Q3717.78 4597.71 3720.23 4597.13 Q3722.69 4596.55 3724.73 4596.55 Q3730.1 4596.55 3733.29 4599.24 Q3736.48 4601.93 3736.48 4606.42 Q3736.48 4608.55 3735.67 4610.47 Q3734.89 4612.36 3732.78 4614.96 Q3732.2 4615.63 3729.1 4618.85 Q3726 4622.04 3720.35 4627.8 Z" fill="#000000" fill-rule="evenodd" fill-opacity="1" /><path clip-path="url(#clip840)" d="M3743.73 4616.86 L3756.21 4616.86 L3756.21 4620.65 L3743.73 4620.65 L3743.73 4616.86 Z" fill="#000000" fill-rule="evenodd" fill-opacity="1" /><path clip-path="url(#clip840)" d="M3773.59 4600.26 Q3769.98 4600.26 3768.15 4603.82 Q3766.35 4607.36 3766.35 4614.49 Q3766.35 4621.6 3768.15 4625.17 Q3769.98 4628.71 3773.59 4628.71 Q3777.23 4628.71 3779.03 4625.17 Q3780.86 4621.6 3780.86 4614.49 Q3780.86 4607.36 3779.03 4603.82 Q3777.23 4600.26 3773.59 4600.26 M3773.59 4596.55 Q3779.4 4596.55 3782.46 4601.16 Q3785.54 4605.74 3785.54 4614.49 Q3785.54 4623.22 3782.46 4627.83 Q3779.4 4632.41 3773.59 4632.41 Q3767.78 4632.41 3764.7 4627.83 Q3761.65 4623.22 3761.65 4614.49 Q3761.65 4605.74 3764.7 4601.16 Q3767.78 4596.55 3773.59 4596.55 Z" fill="#000000" fill-rule="evenodd" fill-opacity="1" /><path clip-path="url(#clip840)" d="M3794.56 4627.8 L3802.2 4627.8 L3802.2 4601.44 L3793.89 4603.11 L3793.89 4598.85 L3802.16 4597.18 L3806.83 4597.18 L3806.83 4627.8 L3814.47 4627.8 L3814.47 4631.74 L3794.56 4631.74 L3794.56 4627.8 Z" fill="#000000" fill-rule="evenodd" fill-opacity="1" /><path clip-path="url(#clip840)" d="M4604.34 4627.8 L4620.66 4627.8 L4620.66 4631.74 L4598.71 4631.74 L4598.71 4627.8 Q4601.38 4625.05 4605.96 4620.42 Q4610.57 4615.77 4611.75 4614.43 Q4613.99 4611.9 4614.87 4610.17 Q4615.77 4608.41 4615.77 4606.72 Q4615.77 4603.96 4613.83 4602.23 Q4611.91 4600.49 4608.81 4600.49 Q4606.61 4600.49 4604.15 4601.25 Q4601.72 4602.02 4598.95 4603.57 L4598.95 4598.85 Q4601.77 4597.71 4604.22 4597.13 Q4606.68 4596.55 4608.71 4596.55 Q4614.09 4596.55 4617.28 4599.24 Q4620.47 4601.93 4620.47 4606.42 Q4620.47 4608.55 4619.66 4610.47 Q4618.88 4612.36 4616.77 4614.96 Q4616.19 4615.63 4613.09 4618.85 Q4609.99 4622.04 4604.34 4627.8 Z" fill="#000000" fill-rule="evenodd" fill-opacity="1" /><path clip-path="url(#clip840)" d="M4640.47 4600.26 Q4636.86 4600.26 4635.03 4603.82 Q4633.23 4607.36 4633.23 4614.49 Q4633.23 4621.6 4635.03 4625.17 Q4636.86 4628.71 4640.47 4628.71 Q4644.11 4628.71 4645.91 4625.17 Q4647.74 4621.6 4647.74 4614.49 Q4647.74 4607.36 4645.91 4603.82 Q4644.11 4600.26 4640.47 4600.26 M4640.47 4596.55 Q4646.28 4596.55 4649.34 4601.16 Q4652.42 4605.74 4652.42 4614.49 Q4652.42 4623.22 4649.34 4627.83 Q4646.28 4632.41 4640.47 4632.41 Q4634.66 4632.41 4631.59 4627.83 Q4628.53 4623.22 4628.53 4614.49 Q4628.53 4605.74 4631.59 4601.16 Q4634.66 4596.55 4640.47 4596.55 Z" fill="#000000" fill-rule="evenodd" fill-opacity="1" /><path clip-path="url(#clip840)" d="M4664.66 4627.8 L4680.98 4627.8 L4680.98 4631.74 L4659.04 4631.74 L4659.04 4627.8 Q4661.7 4625.05 4666.28 4620.42 Q4670.89 4615.77 4672.07 4614.43 Q4674.32 4611.9 4675.2 4610.17 Q4676.1 4608.41 4676.1 4606.72 Q4676.1 4603.96 4674.15 4602.23 Q4672.23 4600.49 4669.13 4600.49 Q4666.93 4600.49 4664.48 4601.25 Q4662.05 4602.02 4659.27 4603.57 L4659.27 4598.85 Q4662.09 4597.71 4664.55 4597.13 Q4667 4596.55 4669.04 4596.55 Q4674.41 4596.55 4677.6 4599.24 Q4680.8 4601.93 4680.8 4606.42 Q4680.8 4608.55 4679.99 4610.47 Q4679.2 4612.36 4677.09 4614.96 Q4676.52 4615.63 4673.41 4618.85 Q4670.31 4622.04 4664.66 4627.8 Z" fill="#000000" fill-rule="evenodd" fill-opacity="1" /><path clip-path="url(#clip840)" d="M4694.83 4627.8 L4711.14 4627.8 L4711.14 4631.74 L4689.2 4631.74 L4689.2 4627.8 Q4691.86 4625.05 4696.45 4620.42 Q4701.05 4615.77 4702.23 4614.43 Q4704.48 4611.9 4705.36 4610.17 Q4706.26 4608.41 4706.26 4606.72 Q4706.26 4603.96 4704.32 4602.23 Q4702.39 4600.49 4699.29 4600.49 Q4697.09 4600.49 4694.64 4601.25 Q4692.21 4602.02 4689.43 4603.57 L4689.43 4598.85 Q4692.26 4597.71 4694.71 4597.13 Q4697.16 4596.55 4699.2 4596.55 Q4704.57 4596.55 4707.77 4599.24 Q4710.96 4601.93 4710.96 4606.42 Q4710.96 4608.55 4710.15 4610.47 Q4709.36 4612.36 4707.26 4614.96 Q4706.68 4615.63 4703.58 4618.85 Q4700.47 4622.04 4694.83 4627.8 Z" fill="#000000" fill-rule="evenodd" fill-opacity="1" /><path clip-path="url(#clip840)" d="M4718.2 4616.86 L4730.68 4616.86 L4730.68 4620.65 L4718.2 4620.65 L4718.2 4616.86 Z" fill="#000000" fill-rule="evenodd" fill-opacity="1" /><path clip-path="url(#clip840)" d="M4748.07 4600.26 Q4744.45 4600.26 4742.63 4603.82 Q4740.82 4607.36 4740.82 4614.49 Q4740.82 4621.6 4742.63 4625.17 Q4744.45 4628.71 4748.07 4628.71 Q4751.7 4628.71 4753.51 4625.17 Q4755.33 4621.6 4755.33 4614.49 Q4755.33 4607.36 4753.51 4603.82 Q4751.7 4600.26 4748.07 4600.26 M4748.07 4596.55 Q4753.88 4596.55 4756.93 4601.16 Q4760.01 4605.74 4760.01 4614.49 Q4760.01 4623.22 4756.93 4627.83 Q4753.88 4632.41 4748.07 4632.41 Q4742.26 4632.41 4739.18 4627.83 Q4736.12 4623.22 4736.12 4614.49 Q4736.12 4605.74 4739.18 4601.16 Q4742.26 4596.55 4748.07 4596.55 Z" fill="#000000" fill-rule="evenodd" fill-opacity="1" /><path clip-path="url(#clip840)" d="M4768.27 4597.18 L4786.63 4597.18 L4786.63 4601.12 L4772.56 4601.12 L4772.56 4609.59 Q4773.58 4609.24 4774.59 4609.08 Q4775.61 4608.89 4776.63 4608.89 Q4782.42 4608.89 4785.8 4612.06 Q4789.18 4615.24 4789.18 4620.65 Q4789.18 4626.23 4785.7 4629.33 Q4782.23 4632.41 4775.91 4632.41 Q4773.74 4632.41 4771.47 4632.04 Q4769.22 4631.67 4766.82 4630.93 L4766.82 4626.23 Q4768.9 4627.36 4771.12 4627.92 Q4773.34 4628.48 4775.82 4628.48 Q4779.82 4628.48 4782.16 4626.37 Q4784.5 4624.26 4784.5 4620.65 Q4784.5 4617.04 4782.16 4614.93 Q4779.82 4612.83 4775.82 4612.83 Q4773.95 4612.83 4772.07 4613.24 Q4770.22 4613.66 4768.27 4614.54 L4768.27 4597.18 Z" fill="#000000" fill-rule="evenodd" fill-opacity="1" /><path clip-path="url(#clip840)" d="M4795.64 4616.86 L4808.11 4616.86 L4808.11 4620.65 L4795.64 4620.65 L4795.64 4616.86 Z" fill="#000000" fill-rule="evenodd" fill-opacity="1" /><path clip-path="url(#clip840)" d="M4825.5 4600.26 Q4821.88 4600.26 4820.06 4603.82 Q4818.25 4607.36 4818.25 4614.49 Q4818.25 4621.6 4820.06 4625.17 Q4821.88 4628.71 4825.5 4628.71 Q4829.13 4628.71 4830.94 4625.17 Q4832.76 4621.6 4832.76 4614.49 Q4832.76 4607.36 4830.94 4603.82 Q4829.13 4600.26 4825.5 4600.26 M4825.5 4596.55 Q4831.31 4596.55 4834.36 4601.16 Q4837.44 4605.74 4837.44 4614.49 Q4837.44 4623.22 4834.36 4627.83 Q4831.31 4632.41 4825.5 4632.41 Q4819.69 4632.41 4816.61 4627.83 Q4813.55 4623.22 4813.55 4614.49 Q4813.55 4605.74 4816.61 4601.16 Q4819.69 4596.55 4825.5 4596.55 Z" fill="#000000" fill-rule="evenodd" fill-opacity="1" /><path clip-path="url(#clip840)" d="M4846.47 4627.8 L4854.11 4627.8 L4854.11 4601.44 L4845.8 4603.11 L4845.8 4598.85 L4854.06 4597.18 L4858.74 4597.18 L4858.74 4627.8 L4866.38 4627.8 L4866.38 4631.74 L4846.47 4631.74 L4846.47 4627.8 Z" fill="#000000" fill-rule="evenodd" fill-opacity="1" /><path clip-path="url(#clip840)" d="M2430.99 4683.48 L2437.42 4683.48 L2437.42 4731 L2430.99 4731 L2430.99 4683.48 Z" fill="#000000" fill-rule="evenodd" fill-opacity="1" /><path clip-path="url(#clip840)" d="M2479.6 4709.49 L2479.6 4731 L2473.74 4731 L2473.74 4709.68 Q2473.74 4704.62 2471.77 4702.1 Q2469.79 4699.59 2465.85 4699.59 Q2461.1 4699.59 2458.37 4702.61 Q2455.63 4705.64 2455.63 4710.86 L2455.63 4731 L2449.74 4731 L2449.74 4695.36 L2455.63 4695.36 L2455.63 4700.89 Q2457.73 4697.68 2460.56 4696.09 Q2463.43 4694.5 2467.15 4694.5 Q2473.29 4694.5 2476.44 4698.32 Q2479.6 4702.1 2479.6 4709.49 Z" fill="#000000" fill-rule="evenodd" fill-opacity="1" /><path clip-path="url(#clip840)" d="M2514.73 4700.77 L2514.73 4681.48 L2520.59 4681.48 L2520.59 4731 L2514.73 4731 L2514.73 4725.66 Q2512.89 4728.84 2510.06 4730.4 Q2507.25 4731.93 2503.31 4731.93 Q2496.85 4731.93 2492.77 4726.77 Q2488.73 4721.61 2488.73 4713.21 Q2488.73 4704.81 2492.77 4699.65 Q2496.85 4694.5 2503.31 4694.5 Q2507.25 4694.5 2510.06 4696.06 Q2512.89 4697.58 2514.73 4700.77 M2494.78 4713.21 Q2494.78 4719.67 2497.42 4723.36 Q2500.09 4727.03 2504.74 4727.03 Q2509.39 4727.03 2512.06 4723.36 Q2514.73 4719.67 2514.73 4713.21 Q2514.73 4706.75 2512.06 4703.09 Q2509.39 4699.4 2504.74 4699.4 Q2500.09 4699.4 2497.42 4703.09 Q2494.78 4706.75 2494.78 4713.21 Z" fill="#000000" fill-rule="evenodd" fill-opacity="1" /><path clip-path="url(#clip840)" d="M2563.15 4711.72 L2563.15 4714.58 L2536.22 4714.58 Q2536.6 4720.63 2539.85 4723.81 Q2543.12 4726.96 2548.95 4726.96 Q2552.32 4726.96 2555.47 4726.13 Q2558.66 4725.31 2561.78 4723.65 L2561.78 4729.19 Q2558.63 4730.53 2555.32 4731.23 Q2552.01 4731.93 2548.6 4731.93 Q2540.07 4731.93 2535.07 4726.96 Q2530.11 4722 2530.11 4713.53 Q2530.11 4704.78 2534.82 4699.65 Q2539.56 4694.5 2547.58 4694.5 Q2554.77 4694.5 2558.94 4699.14 Q2563.15 4703.76 2563.15 4711.72 M2557.29 4710 Q2557.22 4705.19 2554.58 4702.33 Q2551.97 4699.46 2547.64 4699.46 Q2542.74 4699.46 2539.78 4702.23 Q2536.85 4705 2536.41 4710.03 L2557.29 4710 Z" fill="#000000" fill-rule="evenodd" fill-opacity="1" /><path clip-path="url(#clip840)" d="M2601.24 4695.36 L2588.35 4712.7 L2601.91 4731 L2595.01 4731 L2584.63 4717 L2574.25 4731 L2567.35 4731 L2581.19 4712.35 L2568.52 4695.36 L2575.43 4695.36 L2584.88 4708.06 L2594.34 4695.36 L2601.24 4695.36 Z" fill="#000000" fill-rule="evenodd" fill-opacity="1" /><polyline clip-path="url(#clip842)" style="stroke:#000000; stroke-linecap:butt; stroke-linejoin:round; stroke-width:2; stroke-opacity:0.1; fill:none" points="
  280.149,4542.1 4752.76,4542.1 
  "/>
<polyline clip-path="url(#clip842)" style="stroke:#000000; stroke-linecap:butt; stroke-linejoin:round; stroke-width:2; stroke-opacity:0.1; fill:none" points="
  280.149,3805.04 4752.76,3805.04 
  "/>
<polyline clip-path="url(#clip842)" style="stroke:#000000; stroke-linecap:butt; stroke-linejoin:round; stroke-width:2; stroke-opacity:0.1; fill:none" points="
  280.149,3067.98 4752.76,3067.98 
  "/>
<polyline clip-path="url(#clip842)" style="stroke:#000000; stroke-linecap:butt; stroke-linejoin:round; stroke-width:2; stroke-opacity:0.1; fill:none" points="
  280.149,2330.91 4752.76,2330.91 
  "/>
<polyline clip-path="url(#clip842)" style="stroke:#000000; stroke-linecap:butt; stroke-linejoin:round; stroke-width:2; stroke-opacity:0.1; fill:none" points="
  280.149,1593.85 4752.76,1593.85 
  "/>
<polyline clip-path="url(#clip842)" style="stroke:#000000; stroke-linecap:butt; stroke-linejoin:round; stroke-width:2; stroke-opacity:0.1; fill:none" points="
  280.149,856.785 4752.76,856.785 
  "/>
<polyline clip-path="url(#clip842)" style="stroke:#000000; stroke-linecap:butt; stroke-linejoin:round; stroke-width:2; stroke-opacity:0.1; fill:none" points="
  280.149,119.722 4752.76,119.722 
  "/>
<polyline clip-path="url(#clip840)" style="stroke:#000000; stroke-linecap:butt; stroke-linejoin:round; stroke-width:4; stroke-opacity:1; fill:none" points="
  280.149,4550.14 280.149,47.2441 
  "/>
<polyline clip-path="url(#clip840)" style="stroke:#000000; stroke-linecap:butt; stroke-linejoin:round; stroke-width:4; stroke-opacity:1; fill:none" points="
  280.149,4542.1 299.047,4542.1 
  "/>
<polyline clip-path="url(#clip840)" style="stroke:#000000; stroke-linecap:butt; stroke-linejoin:round; stroke-width:4; stroke-opacity:1; fill:none" points="
  280.149,3805.04 299.047,3805.04 
  "/>
<polyline clip-path="url(#clip840)" style="stroke:#000000; stroke-linecap:butt; stroke-linejoin:round; stroke-width:4; stroke-opacity:1; fill:none" points="
  280.149,3067.98 299.047,3067.98 
  "/>
<polyline clip-path="url(#clip840)" style="stroke:#000000; stroke-linecap:butt; stroke-linejoin:round; stroke-width:4; stroke-opacity:1; fill:none" points="
  280.149,2330.91 299.047,2330.91 
  "/>
<polyline clip-path="url(#clip840)" style="stroke:#000000; stroke-linecap:butt; stroke-linejoin:round; stroke-width:4; stroke-opacity:1; fill:none" points="
  280.149,1593.85 299.047,1593.85 
  "/>
<polyline clip-path="url(#clip840)" style="stroke:#000000; stroke-linecap:butt; stroke-linejoin:round; stroke-width:4; stroke-opacity:1; fill:none" points="
  280.149,856.785 299.047,856.785 
  "/>
<polyline clip-path="url(#clip840)" style="stroke:#000000; stroke-linecap:butt; stroke-linejoin:round; stroke-width:4; stroke-opacity:1; fill:none" points="
  280.149,119.722 299.047,119.722 
  "/>
<path clip-path="url(#clip840)" d="M127.687 4555.45 L135.326 4555.45 L135.326 4529.08 L127.016 4530.75 L127.016 4526.49 L135.279 4524.82 L139.955 4524.82 L139.955 4555.45 L147.594 4555.45 L147.594 4559.38 L127.687 4559.38 L127.687 4555.45 Z" fill="#000000" fill-rule="evenodd" fill-opacity="1" /><path clip-path="url(#clip840)" d="M157.849 4555.45 L165.488 4555.45 L165.488 4529.08 L157.177 4530.75 L157.177 4526.49 L165.441 4524.82 L170.117 4524.82 L170.117 4555.45 L177.756 4555.45 L177.756 4559.38 L157.849 4559.38 L157.849 4555.45 Z" fill="#000000" fill-rule="evenodd" fill-opacity="1" /><path clip-path="url(#clip840)" d="M187.247 4524.82 L205.603 4524.82 L205.603 4528.76 L191.529 4528.76 L191.529 4537.23 Q192.548 4536.88 193.566 4536.72 Q194.585 4536.54 195.603 4536.54 Q201.39 4536.54 204.77 4539.71 Q208.149 4542.88 208.149 4548.3 Q208.149 4553.87 204.677 4556.98 Q201.205 4560.05 194.886 4560.05 Q192.71 4560.05 190.441 4559.68 Q188.196 4559.31 185.788 4558.57 L185.788 4553.87 Q187.872 4555.01 190.094 4555.56 Q192.316 4556.12 194.793 4556.12 Q198.798 4556.12 201.135 4554.01 Q203.473 4551.91 203.473 4548.3 Q203.473 4544.68 201.135 4542.58 Q198.798 4540.47 194.793 4540.47 Q192.918 4540.47 191.043 4540.89 Q189.191 4541.3 187.247 4542.18 L187.247 4524.82 Z" fill="#000000" fill-rule="evenodd" fill-opacity="1" /><path clip-path="url(#clip840)" d="M126.691 3818.38 L134.33 3818.38 L134.33 3792.02 L126.02 3793.69 L126.02 3789.43 L134.284 3787.76 L138.96 3787.76 L138.96 3818.38 L146.599 3818.38 L146.599 3822.32 L126.691 3822.32 L126.691 3818.38 Z" fill="#000000" fill-rule="evenodd" fill-opacity="1" /><path clip-path="url(#clip840)" d="M160.071 3818.38 L176.39 3818.38 L176.39 3822.32 L154.446 3822.32 L154.446 3818.38 Q157.108 3815.63 161.691 3811 Q166.298 3806.35 167.478 3805.01 Q169.724 3802.48 170.603 3800.75 Q171.506 3798.99 171.506 3797.3 Q171.506 3794.54 169.562 3792.81 Q167.64 3791.07 164.538 3791.07 Q162.339 3791.07 159.886 3791.83 Q157.455 3792.6 154.677 3794.15 L154.677 3789.43 Q157.501 3788.29 159.955 3787.71 Q162.409 3787.13 164.446 3787.13 Q169.816 3787.13 173.011 3789.82 Q176.205 3792.51 176.205 3797 Q176.205 3799.13 175.395 3801.05 Q174.608 3802.94 172.501 3805.54 Q171.923 3806.21 168.821 3809.43 Q165.719 3812.62 160.071 3818.38 Z" fill="#000000" fill-rule="evenodd" fill-opacity="1" /><path clip-path="url(#clip840)" d="M196.205 3790.84 Q192.594 3790.84 190.765 3794.4 Q188.96 3797.94 188.96 3805.07 Q188.96 3812.18 190.765 3815.75 Q192.594 3819.29 196.205 3819.29 Q199.839 3819.29 201.645 3815.75 Q203.473 3812.18 203.473 3805.07 Q203.473 3797.94 201.645 3794.4 Q199.839 3790.84 196.205 3790.84 M196.205 3787.13 Q202.015 3787.13 205.071 3791.74 Q208.149 3796.32 208.149 3805.07 Q208.149 3813.8 205.071 3818.41 Q202.015 3822.99 196.205 3822.99 Q190.395 3822.99 187.316 3818.41 Q184.261 3813.8 184.261 3805.07 Q184.261 3796.32 187.316 3791.74 Q190.395 3787.13 196.205 3787.13 Z" fill="#000000" fill-rule="evenodd" fill-opacity="1" /><path clip-path="url(#clip840)" d="M127.687 3081.32 L135.326 3081.32 L135.326 3054.96 L127.016 3056.62 L127.016 3052.36 L135.279 3050.7 L139.955 3050.7 L139.955 3081.32 L147.594 3081.32 L147.594 3085.26 L127.687 3085.26 L127.687 3081.32 Z" fill="#000000" fill-rule="evenodd" fill-opacity="1" /><path clip-path="url(#clip840)" d="M161.066 3081.32 L177.386 3081.32 L177.386 3085.26 L155.441 3085.26 L155.441 3081.32 Q158.103 3078.57 162.687 3073.94 Q167.293 3069.28 168.474 3067.94 Q170.719 3065.42 171.599 3063.68 Q172.501 3061.92 172.501 3060.23 Q172.501 3057.48 170.557 3055.74 Q168.636 3054.01 165.534 3054.01 Q163.335 3054.01 160.881 3054.77 Q158.451 3055.53 155.673 3057.09 L155.673 3052.36 Q158.497 3051.23 160.951 3050.65 Q163.404 3050.07 165.441 3050.07 Q170.812 3050.07 174.006 3052.76 Q177.2 3055.44 177.2 3059.93 Q177.2 3062.06 176.39 3063.98 Q175.603 3065.88 173.497 3068.47 Q172.918 3069.15 169.816 3072.36 Q166.714 3075.56 161.066 3081.32 Z" fill="#000000" fill-rule="evenodd" fill-opacity="1" /><path clip-path="url(#clip840)" d="M187.247 3050.7 L205.603 3050.7 L205.603 3054.63 L191.529 3054.63 L191.529 3063.1 Q192.548 3062.76 193.566 3062.59 Q194.585 3062.41 195.603 3062.41 Q201.39 3062.41 204.77 3065.58 Q208.149 3068.75 208.149 3074.17 Q208.149 3079.75 204.677 3082.85 Q201.205 3085.93 194.886 3085.93 Q192.71 3085.93 190.441 3085.56 Q188.196 3085.19 185.788 3084.45 L185.788 3079.75 Q187.872 3080.88 190.094 3081.44 Q192.316 3081.99 194.793 3081.99 Q198.798 3081.99 201.135 3079.89 Q203.473 3077.78 203.473 3074.17 Q203.473 3070.56 201.135 3068.45 Q198.798 3066.34 194.793 3066.34 Q192.918 3066.34 191.043 3066.76 Q189.191 3067.18 187.247 3068.06 L187.247 3050.7 Z" fill="#000000" fill-rule="evenodd" fill-opacity="1" /><path clip-path="url(#clip840)" d="M126.691 2344.26 L134.33 2344.26 L134.33 2317.89 L126.02 2319.56 L126.02 2315.3 L134.284 2313.63 L138.96 2313.63 L138.96 2344.26 L146.599 2344.26 L146.599 2348.19 L126.691 2348.19 L126.691 2344.26 Z" fill="#000000" fill-rule="evenodd" fill-opacity="1" /><path clip-path="url(#clip840)" d="M170.21 2329.56 Q173.566 2330.28 175.441 2332.54 Q177.339 2334.81 177.339 2338.15 Q177.339 2343.26 173.821 2346.06 Q170.302 2348.86 163.821 2348.86 Q161.645 2348.86 159.33 2348.42 Q157.039 2348.01 154.585 2347.15 L154.585 2342.64 Q156.529 2343.77 158.844 2344.35 Q161.159 2344.93 163.682 2344.93 Q168.08 2344.93 170.372 2343.19 Q172.687 2341.46 172.687 2338.15 Q172.687 2335.09 170.534 2333.38 Q168.404 2331.64 164.585 2331.64 L160.557 2331.64 L160.557 2327.8 L164.77 2327.8 Q168.219 2327.8 170.048 2326.43 Q171.876 2325.04 171.876 2322.45 Q171.876 2319.79 169.978 2318.38 Q168.103 2316.94 164.585 2316.94 Q162.663 2316.94 160.464 2317.36 Q158.265 2317.78 155.626 2318.66 L155.626 2314.49 Q158.289 2313.75 160.603 2313.38 Q162.941 2313.01 165.001 2313.01 Q170.325 2313.01 173.427 2315.44 Q176.529 2317.85 176.529 2321.97 Q176.529 2324.84 174.886 2326.83 Q173.242 2328.79 170.21 2329.56 Z" fill="#000000" fill-rule="evenodd" fill-opacity="1" /><path clip-path="url(#clip840)" d="M196.205 2316.71 Q192.594 2316.71 190.765 2320.28 Q188.96 2323.82 188.96 2330.95 Q188.96 2338.05 190.765 2341.62 Q192.594 2345.16 196.205 2345.16 Q199.839 2345.16 201.645 2341.62 Q203.473 2338.05 203.473 2330.95 Q203.473 2323.82 201.645 2320.28 Q199.839 2316.71 196.205 2316.71 M196.205 2313.01 Q202.015 2313.01 205.071 2317.61 Q208.149 2322.2 208.149 2330.95 Q208.149 2339.67 205.071 2344.28 Q202.015 2348.86 196.205 2348.86 Q190.395 2348.86 187.316 2344.28 Q184.261 2339.67 184.261 2330.95 Q184.261 2322.2 187.316 2317.61 Q190.395 2313.01 196.205 2313.01 Z" fill="#000000" fill-rule="evenodd" fill-opacity="1" /><path clip-path="url(#clip840)" d="M127.687 1607.19 L135.326 1607.19 L135.326 1580.83 L127.016 1582.49 L127.016 1578.24 L135.279 1576.57 L139.955 1576.57 L139.955 1607.19 L147.594 1607.19 L147.594 1611.13 L127.687 1611.13 L127.687 1607.19 Z" fill="#000000" fill-rule="evenodd" fill-opacity="1" /><path clip-path="url(#clip840)" d="M171.205 1592.49 Q174.562 1593.21 176.437 1595.48 Q178.335 1597.75 178.335 1601.08 Q178.335 1606.2 174.816 1609 Q171.298 1611.8 164.816 1611.8 Q162.64 1611.8 160.326 1611.36 Q158.034 1610.94 155.58 1610.09 L155.58 1605.57 Q157.525 1606.71 159.839 1607.29 Q162.154 1607.87 164.677 1607.87 Q169.075 1607.87 171.367 1606.13 Q173.682 1604.39 173.682 1601.08 Q173.682 1598.03 171.529 1596.31 Q169.4 1594.58 165.58 1594.58 L161.552 1594.58 L161.552 1590.74 L165.765 1590.74 Q169.214 1590.74 171.043 1589.37 Q172.872 1587.98 172.872 1585.39 Q172.872 1582.73 170.974 1581.31 Q169.099 1579.88 165.58 1579.88 Q163.659 1579.88 161.46 1580.3 Q159.261 1580.71 156.622 1581.59 L156.622 1577.43 Q159.284 1576.68 161.599 1576.31 Q163.937 1575.94 165.997 1575.94 Q171.321 1575.94 174.423 1578.37 Q177.525 1580.78 177.525 1584.9 Q177.525 1587.77 175.881 1589.76 Q174.237 1591.73 171.205 1592.49 Z" fill="#000000" fill-rule="evenodd" fill-opacity="1" /><path clip-path="url(#clip840)" d="M187.247 1576.57 L205.603 1576.57 L205.603 1580.5 L191.529 1580.5 L191.529 1588.98 Q192.548 1588.63 193.566 1588.47 Q194.585 1588.28 195.603 1588.28 Q201.39 1588.28 204.77 1591.45 Q208.149 1594.62 208.149 1600.04 Q208.149 1605.62 204.677 1608.72 Q201.205 1611.8 194.886 1611.8 Q192.71 1611.8 190.441 1611.43 Q188.196 1611.06 185.788 1610.32 L185.788 1605.62 Q187.872 1606.75 190.094 1607.31 Q192.316 1607.87 194.793 1607.87 Q198.798 1607.87 201.135 1605.76 Q203.473 1603.65 203.473 1600.04 Q203.473 1596.43 201.135 1594.32 Q198.798 1592.22 194.793 1592.22 Q192.918 1592.22 191.043 1592.63 Q189.191 1593.05 187.247 1593.93 L187.247 1576.57 Z" fill="#000000" fill-rule="evenodd" fill-opacity="1" /><path clip-path="url(#clip840)" d="M126.691 870.13 L134.33 870.13 L134.33 843.765 L126.02 845.431 L126.02 841.172 L134.284 839.505 L138.96 839.505 L138.96 870.13 L146.599 870.13 L146.599 874.065 L126.691 874.065 L126.691 870.13 Z" fill="#000000" fill-rule="evenodd" fill-opacity="1" /><path clip-path="url(#clip840)" d="M168.89 843.579 L157.085 862.028 L168.89 862.028 L168.89 843.579 M167.663 839.505 L173.543 839.505 L173.543 862.028 L178.474 862.028 L178.474 865.917 L173.543 865.917 L173.543 874.065 L168.89 874.065 L168.89 865.917 L153.289 865.917 L153.289 861.403 L167.663 839.505 Z" fill="#000000" fill-rule="evenodd" fill-opacity="1" /><path clip-path="url(#clip840)" d="M196.205 842.584 Q192.594 842.584 190.765 846.149 Q188.96 849.691 188.96 856.82 Q188.96 863.927 190.765 867.491 Q192.594 871.033 196.205 871.033 Q199.839 871.033 201.645 867.491 Q203.473 863.927 203.473 856.82 Q203.473 849.691 201.645 846.149 Q199.839 842.584 196.205 842.584 M196.205 838.88 Q202.015 838.88 205.071 843.487 Q208.149 848.07 208.149 856.82 Q208.149 865.547 205.071 870.153 Q202.015 874.737 196.205 874.737 Q190.395 874.737 187.316 870.153 Q184.261 865.547 184.261 856.82 Q184.261 848.07 187.316 843.487 Q190.395 838.88 196.205 838.88 Z" fill="#000000" fill-rule="evenodd" fill-opacity="1" /><path clip-path="url(#clip840)" d="M127.687 133.067 L135.326 133.067 L135.326 106.701 L127.016 108.368 L127.016 104.109 L135.279 102.442 L139.955 102.442 L139.955 133.067 L147.594 133.067 L147.594 137.002 L127.687 137.002 L127.687 133.067 Z" fill="#000000" fill-rule="evenodd" fill-opacity="1" /><path clip-path="url(#clip840)" d="M169.886 106.516 L158.08 124.965 L169.886 124.965 L169.886 106.516 M168.659 102.442 L174.538 102.442 L174.538 124.965 L179.469 124.965 L179.469 128.854 L174.538 128.854 L174.538 137.002 L169.886 137.002 L169.886 128.854 L154.284 128.854 L154.284 124.34 L168.659 102.442 Z" fill="#000000" fill-rule="evenodd" fill-opacity="1" /><path clip-path="url(#clip840)" d="M187.247 102.442 L205.603 102.442 L205.603 106.377 L191.529 106.377 L191.529 114.849 Q192.548 114.502 193.566 114.34 Q194.585 114.155 195.603 114.155 Q201.39 114.155 204.77 117.326 Q208.149 120.497 208.149 125.914 Q208.149 131.493 204.677 134.594 Q201.205 137.673 194.886 137.673 Q192.71 137.673 190.441 137.303 Q188.196 136.932 185.788 136.192 L185.788 131.493 Q187.872 132.627 190.094 133.182 Q192.316 133.738 194.793 133.738 Q198.798 133.738 201.135 131.632 Q203.473 129.525 203.473 125.914 Q203.473 122.303 201.135 120.196 Q198.798 118.09 194.793 118.09 Q192.918 118.09 191.043 118.507 Q189.191 118.923 187.247 119.803 L187.247 102.442 Z" fill="#000000" fill-rule="evenodd" fill-opacity="1" /><path clip-path="url(#clip840)" d="M-4.09556 2421.63 L2.68392 2421.63 Q-0.339794 2424.88 -1.83574 2428.57 Q-3.33168 2432.23 -3.33168 2436.37 Q-3.33168 2444.51 1.6654 2448.84 Q6.63065 2453.17 16.0519 2453.17 Q25.4413 2453.17 30.4384 2448.84 Q35.4036 2444.51 35.4036 2436.37 Q35.4036 2432.23 33.9077 2428.57 Q32.4118 2424.88 29.3881 2421.63 L36.1039 2421.63 Q38.3955 2425 39.5414 2428.79 Q40.6872 2432.55 40.6872 2436.75 Q40.6872 2447.54 34.0987 2453.74 Q27.4783 2459.95 16.0519 2459.95 Q4.59363 2459.95 -1.99488 2453.74 Q-8.61521 2447.54 -8.61521 2436.75 Q-8.61521 2432.48 -7.46939 2428.73 Q-6.35539 2424.94 -4.09556 2421.63 Z" fill="#000000" fill-rule="evenodd" fill-opacity="1" /><path clip-path="url(#clip840)" d="M-9.76104 2411.95 L-9.76104 2406.1 L39.7642 2406.1 L39.7642 2411.95 L-9.76104 2411.95 Z" fill="#000000" fill-rule="evenodd" fill-opacity="1" /><path clip-path="url(#clip840)" d="M8.22208 2380.03 Q8.22208 2384.74 11.9142 2387.48 Q15.5745 2390.21 21.972 2390.21 Q28.3695 2390.21 32.0617 2387.51 Q35.7219 2384.77 35.7219 2380.03 Q35.7219 2375.35 32.0298 2372.61 Q28.3377 2369.88 21.972 2369.88 Q15.6381 2369.88 11.946 2372.61 Q8.22208 2375.35 8.22208 2380.03 M3.25683 2380.03 Q3.25683 2372.39 8.22208 2368.03 Q13.1873 2363.67 21.972 2363.67 Q30.7249 2363.67 35.7219 2368.03 Q40.6872 2372.39 40.6872 2380.03 Q40.6872 2387.7 35.7219 2392.06 Q30.7249 2396.39 21.972 2396.39 Q13.1873 2396.39 8.22208 2392.06 Q3.25683 2387.7 3.25683 2380.03 Z" fill="#000000" fill-rule="evenodd" fill-opacity="1" /><path clip-path="url(#clip840)" d="M5.16654 2331.24 L10.7047 2331.24 Q9.43157 2333.72 8.79499 2336.39 Q8.15842 2339.07 8.15842 2341.93 Q8.15842 2346.29 9.49522 2348.49 Q10.832 2350.65 13.5056 2350.65 Q15.5426 2350.65 16.7203 2349.09 Q17.8661 2347.53 18.9165 2342.82 L19.3621 2340.82 Q20.6989 2334.58 23.1497 2331.97 Q25.5686 2329.33 29.9291 2329.33 Q34.8944 2329.33 37.7908 2333.27 Q40.6872 2337.19 40.6872 2344.06 Q40.6872 2346.93 40.1143 2350.05 Q39.5732 2353.13 38.4592 2356.57 L32.4118 2356.57 Q34.0987 2353.33 34.958 2350.17 Q35.7856 2347.02 35.7856 2343.94 Q35.7856 2339.8 34.3851 2337.57 Q32.9529 2335.34 30.3747 2335.34 Q27.9876 2335.34 26.7145 2336.97 Q25.4413 2338.56 24.2637 2344 L23.7862 2346.04 Q22.6404 2351.48 20.2851 2353.9 Q17.898 2356.32 13.7602 2356.32 Q8.73134 2356.32 5.99408 2352.75 Q3.25683 2349.19 3.25683 2342.63 Q3.25683 2339.38 3.73426 2336.52 Q4.21169 2333.66 5.16654 2331.24 Z" fill="#000000" fill-rule="evenodd" fill-opacity="1" /><path clip-path="url(#clip840)" d="M20.4761 2289.51 L23.3406 2289.51 L23.3406 2316.44 Q29.3881 2316.05 32.5709 2312.81 Q35.7219 2309.53 35.7219 2303.7 Q35.7219 2300.33 34.8944 2297.18 Q34.0669 2294 32.4118 2290.88 L37.9499 2290.88 Q39.2867 2294.03 39.987 2297.34 Q40.6872 2300.65 40.6872 2304.06 Q40.6872 2312.59 35.7219 2317.58 Q30.7567 2322.55 22.2903 2322.55 Q13.5374 2322.55 8.41305 2317.84 Q3.25683 2313.09 3.25683 2305.07 Q3.25683 2297.88 7.9038 2293.71 Q12.5189 2289.51 20.4761 2289.51 M18.7573 2295.37 Q13.9512 2295.43 11.0866 2298.07 Q8.22208 2300.68 8.22208 2305.01 Q8.22208 2309.91 10.9912 2312.87 Q13.7602 2315.8 18.7892 2316.25 L18.7573 2295.37 Z" fill="#000000" fill-rule="evenodd" fill-opacity="1" /><path clip-path="url(#clip840)" d="M50.5859 2252.81 L55.1373 2252.81 L55.1373 2286.68 L50.5859 2286.68 L50.5859 2252.81 Z" fill="#000000" fill-rule="evenodd" fill-opacity="1" /><path clip-path="url(#clip840)" d="M-9.76104 2247.3 L-9.76104 2241.45 L39.7642 2241.45 L39.7642 2247.3 L-9.76104 2247.3 Z" fill="#000000" fill-rule="evenodd" fill-opacity="1" /><path clip-path="url(#clip840)" d="M21.8447 2212.99 Q21.8447 2220.09 23.4679 2222.83 Q25.0912 2225.57 29.0061 2225.57 Q32.1253 2225.57 33.9714 2223.53 Q35.7856 2221.46 35.7856 2217.93 Q35.7856 2213.06 32.3481 2210.13 Q28.8788 2207.17 23.1497 2207.17 L21.8447 2207.17 L21.8447 2212.99 M19.4257 2201.31 L39.7642 2201.31 L39.7642 2207.17 L34.3533 2207.17 Q37.5998 2209.17 39.1594 2212.17 Q40.6872 2215.16 40.6872 2219.49 Q40.6872 2224.96 37.6316 2228.21 Q34.5443 2231.42 29.3881 2231.42 Q23.3725 2231.42 20.3169 2227.41 Q17.2614 2223.37 17.2614 2215.38 L17.2614 2207.17 L16.6885 2207.17 Q12.6462 2207.17 10.4501 2209.84 Q8.22208 2212.48 8.22208 2217.29 Q8.22208 2220.35 8.95414 2223.24 Q9.68619 2226.14 11.1503 2228.81 L5.73946 2228.81 Q4.49814 2225.6 3.8934 2222.57 Q3.25683 2219.55 3.25683 2216.69 Q3.25683 2208.95 7.26723 2205.13 Q11.2776 2201.31 19.4257 2201.31 Z" fill="#000000" fill-rule="evenodd" fill-opacity="1" /><path clip-path="url(#clip840)" d="M5.16654 2166.52 L10.7047 2166.52 Q9.43157 2169.01 8.79499 2171.68 Q8.15842 2174.35 8.15842 2177.22 Q8.15842 2181.58 9.49522 2183.78 Q10.832 2185.94 13.5056 2185.94 Q15.5426 2185.94 16.7203 2184.38 Q17.8661 2182.82 18.9165 2178.11 L19.3621 2176.1 Q20.6989 2169.87 23.1497 2167.26 Q25.5686 2164.61 29.9291 2164.61 Q34.8944 2164.61 37.7908 2168.56 Q40.6872 2172.48 40.6872 2179.35 Q40.6872 2182.22 40.1143 2185.33 Q39.5732 2188.42 38.4592 2191.86 L32.4118 2191.86 Q34.0987 2188.61 34.958 2185.46 Q35.7856 2182.31 35.7856 2179.22 Q35.7856 2175.09 34.3851 2172.86 Q32.9529 2170.63 30.3747 2170.63 Q27.9876 2170.63 26.7145 2172.25 Q25.4413 2173.84 24.2637 2179.29 L23.7862 2181.32 Q22.6404 2186.77 20.2851 2189.19 Q17.898 2191.6 13.7602 2191.6 Q8.73134 2191.6 5.99408 2188.04 Q3.25683 2184.48 3.25683 2177.92 Q3.25683 2174.67 3.73426 2171.81 Q4.21169 2168.94 5.16654 2166.52 Z" fill="#000000" fill-rule="evenodd" fill-opacity="1" /><path clip-path="url(#clip840)" d="M-6.00527 2149.5 L4.1162 2149.5 L4.1162 2137.43 L8.66768 2137.43 L8.66768 2149.5 L28.0194 2149.5 Q32.3799 2149.5 33.6213 2148.32 Q34.8626 2147.11 34.8626 2143.45 L34.8626 2137.43 L39.7642 2137.43 L39.7642 2143.45 Q39.7642 2150.23 37.2497 2152.81 Q34.7034 2155.38 28.0194 2155.38 L8.66768 2155.38 L8.66768 2159.68 L4.1162 2159.68 L4.1162 2155.38 L-6.00527 2155.38 L-6.00527 2149.5 Z" fill="#000000" fill-rule="evenodd" fill-opacity="1" /><polyline clip-path="url(#clip842)" style="stroke:#009af9; stroke-linecap:butt; stroke-linejoin:round; stroke-width:4; stroke-opacity:1; fill:none" points="
  406.733,1499.43 489.467,994.897 572.201,1104.82 654.935,1096.37 737.669,1237.3 820.403,718.674 903.137,174.685 985.871,1324.67 1068.61,800.412 1151.34,1761.56 
  1234.07,1550.16 1316.81,1919.4 1399.54,1575.53 1482.28,1629.08 1565.01,1187.97 1647.74,1316.22 1730.48,1889.8 1813.21,1847.52 1895.95,1823.57 1978.68,2184.35 
  2061.41,2436.61 2144.15,2118.11 2226.88,1296.49 2309.62,1310.58 2392.35,1114.69 2475.09,3472.45 2557.82,3864.23 2640.55,3272.88 2723.29,3958.35 2806.02,4387.32 
  2888.76,4422.7 2971.49,3976.04 3054.22,3202.12 3136.96,2714.19 3207.87,2238.04 3302.43,1791.38 3385.16,1618.91 3467.9,1710.3 3550.63,2426.73 3633.36,1667.56 
  3716.1,1276.91 3798.83,1934.37 3881.57,3163.79 3964.3,3188.85 4047.03,2829.17 4129.77,3221.29 4212.5,2513.71 4295.24,2131.9 4377.97,2308.8 4460.7,2665.54 
  4531.62,2838.01 4626.17,1114.76 
  "/>
<path clip-path="url(#clip840)" d="
M3872.15 301.021 L4603.67 301.021 L4603.67 197.341 L3872.15 197.341  Z
  " fill="#ffffff" fill-rule="evenodd" fill-opacity="1"/>
<polyline clip-path="url(#clip840)" style="stroke:#000000; stroke-linecap:butt; stroke-linejoin:round; stroke-width:4; stroke-opacity:1; fill:none" points="
  3872.15,301.021 4603.67,301.021 4603.67,197.341 3872.15,197.341 3872.15,301.021 
  "/>
<polyline clip-path="url(#clip840)" style="stroke:#009af9; stroke-linecap:butt; stroke-linejoin:round; stroke-width:4; stroke-opacity:1; fill:none" points="
  3921.85,249.181 4220.02,249.181 
  "/>
<path clip-path="url(#clip840)" d="M4297.59 234.563 L4297.59 239.493 Q4295.23 237.294 4292.54 236.206 Q4289.88 235.118 4286.87 235.118 Q4280.95 235.118 4277.8 238.752 Q4274.65 242.364 4274.65 249.215 Q4274.65 256.044 4277.8 259.678 Q4280.95 263.289 4286.87 263.289 Q4289.88 263.289 4292.54 262.201 Q4295.23 261.113 4297.59 258.914 L4297.59 263.799 Q4295.14 265.465 4292.38 266.299 Q4289.65 267.132 4286.59 267.132 Q4278.75 267.132 4274.23 262.34 Q4269.72 257.525 4269.72 249.215 Q4269.72 240.882 4274.23 236.09 Q4278.75 231.276 4286.59 231.276 Q4289.7 231.276 4292.43 232.109 Q4295.18 232.919 4297.59 234.563 Z" fill="#000000" fill-rule="evenodd" fill-opacity="1" /><path clip-path="url(#clip840)" d="M4304.63 230.442 L4308.89 230.442 L4308.89 266.461 L4304.63 266.461 L4304.63 230.442 Z" fill="#000000" fill-rule="evenodd" fill-opacity="1" /><path clip-path="url(#clip840)" d="M4327.84 243.521 Q4324.42 243.521 4322.43 246.206 Q4320.44 248.868 4320.44 253.521 Q4320.44 258.174 4322.4 260.859 Q4324.39 263.521 4327.84 263.521 Q4331.25 263.521 4333.24 260.836 Q4335.23 258.15 4335.23 253.521 Q4335.23 248.914 4333.24 246.229 Q4331.25 243.521 4327.84 243.521 M4327.84 239.91 Q4333.4 239.91 4336.57 243.521 Q4339.74 247.132 4339.74 253.521 Q4339.74 259.887 4336.57 263.521 Q4333.4 267.132 4327.84 267.132 Q4322.26 267.132 4319.09 263.521 Q4315.95 259.887 4315.95 253.521 Q4315.95 247.132 4319.09 243.521 Q4322.26 239.91 4327.84 239.91 Z" fill="#000000" fill-rule="evenodd" fill-opacity="1" /><path clip-path="url(#clip840)" d="M4363.33 241.299 L4363.33 245.326 Q4361.52 244.401 4359.58 243.938 Q4357.64 243.475 4355.55 243.475 Q4352.38 243.475 4350.78 244.447 Q4349.21 245.419 4349.21 247.363 Q4349.21 248.845 4350.34 249.701 Q4351.48 250.535 4354.9 251.299 L4356.36 251.623 Q4360.9 252.595 4362.8 254.377 Q4364.72 256.137 4364.72 259.308 Q4364.72 262.919 4361.85 265.025 Q4359 267.132 4354 267.132 Q4351.92 267.132 4349.65 266.715 Q4347.4 266.322 4344.9 265.512 L4344.9 261.113 Q4347.26 262.34 4349.56 262.965 Q4351.85 263.567 4354.09 263.567 Q4357.1 263.567 4358.72 262.549 Q4360.34 261.507 4360.34 259.632 Q4360.34 257.896 4359.16 256.97 Q4358.01 256.044 4354.05 255.188 L4352.57 254.84 Q4348.61 254.007 4346.85 252.294 Q4345.09 250.558 4345.09 247.549 Q4345.09 243.891 4347.68 241.901 Q4350.27 239.91 4355.04 239.91 Q4357.4 239.91 4359.49 240.257 Q4361.57 240.604 4363.33 241.299 Z" fill="#000000" fill-rule="evenodd" fill-opacity="1" /><path clip-path="url(#clip840)" d="M4393.68 252.433 L4393.68 254.516 L4374.09 254.516 Q4374.37 258.914 4376.73 261.229 Q4379.12 263.521 4383.35 263.521 Q4385.81 263.521 4388.1 262.919 Q4390.41 262.317 4392.68 261.113 L4392.68 265.141 Q4390.39 266.113 4387.98 266.623 Q4385.57 267.132 4383.1 267.132 Q4376.89 267.132 4373.26 263.521 Q4369.65 259.91 4369.65 253.752 Q4369.65 247.387 4373.07 243.66 Q4376.52 239.91 4382.36 239.91 Q4387.59 239.91 4390.62 243.289 Q4393.68 246.646 4393.68 252.433 M4389.42 251.183 Q4389.37 247.688 4387.45 245.604 Q4385.55 243.521 4382.4 243.521 Q4378.84 243.521 4376.69 245.535 Q4374.56 247.549 4374.23 251.206 L4389.42 251.183 Z" fill="#000000" fill-rule="evenodd" fill-opacity="1" /><path clip-path="url(#clip840)" d="M4420.37 274.331 L4420.37 277.641 L4395.74 277.641 L4395.74 274.331 L4420.37 274.331 Z" fill="#000000" fill-rule="evenodd" fill-opacity="1" /><path clip-path="url(#clip840)" d="M4424.37 230.442 L4428.63 230.442 L4428.63 266.461 L4424.37 266.461 L4424.37 230.442 Z" fill="#000000" fill-rule="evenodd" fill-opacity="1" /><path clip-path="url(#clip840)" d="M4449.32 253.428 Q4444.16 253.428 4442.17 254.609 Q4440.18 255.789 4440.18 258.637 Q4440.18 260.905 4441.66 262.248 Q4443.17 263.567 4445.74 263.567 Q4449.28 263.567 4451.41 261.067 Q4453.56 258.544 4453.56 254.377 L4453.56 253.428 L4449.32 253.428 M4457.82 251.669 L4457.82 266.461 L4453.56 266.461 L4453.56 262.525 Q4452.1 264.887 4449.93 266.021 Q4447.75 267.132 4444.6 267.132 Q4440.62 267.132 4438.26 264.91 Q4435.92 262.664 4435.92 258.914 Q4435.92 254.539 4438.84 252.317 Q4441.78 250.095 4447.59 250.095 L4453.56 250.095 L4453.56 249.678 Q4453.56 246.739 4451.62 245.141 Q4449.69 243.521 4446.2 243.521 Q4443.98 243.521 4441.87 244.053 Q4439.76 244.586 4437.82 245.651 L4437.82 241.715 Q4440.16 240.813 4442.36 240.373 Q4444.56 239.91 4446.64 239.91 Q4452.26 239.91 4455.04 242.826 Q4457.82 245.743 4457.82 251.669 Z" fill="#000000" fill-rule="evenodd" fill-opacity="1" /><path clip-path="url(#clip840)" d="M4483.12 241.299 L4483.12 245.326 Q4481.31 244.401 4479.37 243.938 Q4477.43 243.475 4475.34 243.475 Q4472.17 243.475 4470.57 244.447 Q4469 245.419 4469 247.363 Q4469 248.845 4470.13 249.701 Q4471.27 250.535 4474.69 251.299 L4476.15 251.623 Q4480.69 252.595 4482.59 254.377 Q4484.51 256.137 4484.51 259.308 Q4484.51 262.919 4481.64 265.025 Q4478.79 267.132 4473.79 267.132 Q4471.71 267.132 4469.44 266.715 Q4467.19 266.322 4464.69 265.512 L4464.69 261.113 Q4467.06 262.34 4469.35 262.965 Q4471.64 263.567 4473.88 263.567 Q4476.89 263.567 4478.51 262.549 Q4480.13 261.507 4480.13 259.632 Q4480.13 257.896 4478.95 256.97 Q4477.8 256.044 4473.84 255.188 L4472.36 254.84 Q4468.4 254.007 4466.64 252.294 Q4464.88 250.558 4464.88 247.549 Q4464.88 243.891 4467.47 241.901 Q4470.06 239.91 4474.83 239.91 Q4477.19 239.91 4479.28 240.257 Q4481.36 240.604 4483.12 241.299 Z" fill="#000000" fill-rule="evenodd" fill-opacity="1" /><path clip-path="url(#clip840)" d="M4495.5 233.174 L4495.5 240.535 L4504.28 240.535 L4504.28 243.845 L4495.5 243.845 L4495.5 257.919 Q4495.5 261.09 4496.36 261.993 Q4497.24 262.896 4499.9 262.896 L4504.28 262.896 L4504.28 266.461 L4499.9 266.461 Q4494.97 266.461 4493.1 264.632 Q4491.22 262.78 4491.22 257.919 L4491.22 243.845 L4488.1 243.845 L4488.1 240.535 L4491.22 240.535 L4491.22 233.174 L4495.5 233.174 Z" fill="#000000" fill-rule="evenodd" fill-opacity="1" /></svg>
