<?xml version="1.0" encoding="utf-8"?>
<svg xmlns="http://www.w3.org/2000/svg" xmlns:xlink="http://www.w3.org/1999/xlink" width="600" height="600" viewBox="0 0 2400 2400">
<defs>
  <clipPath id="clip880">
    <rect x="0" y="0" width="2400" height="2400"/>
  </clipPath>
</defs>
<path clip-path="url(#clip880)" d="
M0 2400 L2400 2400 L2400 0 L0 0  Z
  " fill="#ffffff" fill-rule="evenodd" fill-opacity="1"/>
<defs>
  <clipPath id="clip881">
    <rect x="480" y="240" width="1681" height="1681"/>
  </clipPath>
</defs>
<path clip-path="url(#clip880)" d="
M256.149 2174.14 L2352.76 2174.14 L2352.76 47.2441 L256.149 47.2441  Z
  " fill="#ffffff" fill-rule="evenodd" fill-opacity="1"/>
<defs>
  <clipPath id="clip882">
    <rect x="256" y="47" width="2098" height="2128"/>
  </clipPath>
</defs>
<polyline clip-path="url(#clip882)" style="stroke:#000000; stroke-linecap:butt; stroke-linejoin:round; stroke-width:2; stroke-opacity:0.1; fill:none" points="
  321.028,2174.14 321.028,47.2441 
  "/>
<polyline clip-path="url(#clip882)" style="stroke:#000000; stroke-linecap:butt; stroke-linejoin:round; stroke-width:2; stroke-opacity:0.1; fill:none" points="
  830.747,2174.14 830.747,47.2441 
  "/>
<polyline clip-path="url(#clip882)" style="stroke:#000000; stroke-linecap:butt; stroke-linejoin:round; stroke-width:2; stroke-opacity:0.1; fill:none" points="
  1340.47,2174.14 1340.47,47.2441 
  "/>
<polyline clip-path="url(#clip882)" style="stroke:#000000; stroke-linecap:butt; stroke-linejoin:round; stroke-width:2; stroke-opacity:0.1; fill:none" points="
  1850.18,2174.14 1850.18,47.2441 
  "/>
<polyline clip-path="url(#clip882)" style="stroke:#000000; stroke-linecap:butt; stroke-linejoin:round; stroke-width:2; stroke-opacity:0.1; fill:none" points="
  2343.28,2174.14 2343.28,47.2441 
  "/>
<polyline clip-path="url(#clip880)" style="stroke:#000000; stroke-linecap:butt; stroke-linejoin:round; stroke-width:4; stroke-opacity:1; fill:none" points="
  256.149,2174.14 2352.76,2174.14 
  "/>
<polyline clip-path="url(#clip880)" style="stroke:#000000; stroke-linecap:butt; stroke-linejoin:round; stroke-width:4; stroke-opacity:1; fill:none" points="
  321.028,2174.14 321.028,2155.24 
  "/>
<polyline clip-path="url(#clip880)" style="stroke:#000000; stroke-linecap:butt; stroke-linejoin:round; stroke-width:4; stroke-opacity:1; fill:none" points="
  830.747,2174.14 830.747,2155.24 
  "/>
<polyline clip-path="url(#clip880)" style="stroke:#000000; stroke-linecap:butt; stroke-linejoin:round; stroke-width:4; stroke-opacity:1; fill:none" points="
  1340.47,2174.14 1340.47,2155.24 
  "/>
<polyline clip-path="url(#clip880)" style="stroke:#000000; stroke-linecap:butt; stroke-linejoin:round; stroke-width:4; stroke-opacity:1; fill:none" points="
  1850.18,2174.14 1850.18,2155.24 
  "/>
<polyline clip-path="url(#clip880)" style="stroke:#000000; stroke-linecap:butt; stroke-linejoin:round; stroke-width:4; stroke-opacity:1; fill:none" points="
  2343.28,2174.14 2343.28,2155.24 
  "/>
<path clip-path="url(#clip880)" d="M192.822 2232.6 L209.142 2232.6 L209.142 2236.54 L187.197 2236.54 L187.197 2232.6 Q189.859 2229.85 194.443 2225.22 Q199.049 2220.57 200.23 2219.23 Q202.475 2216.7 203.355 2214.97 Q204.257 2213.21 204.257 2211.52 Q204.257 2208.76 202.313 2207.03 Q200.392 2205.29 197.29 2205.29 Q195.091 2205.29 192.637 2206.05 Q190.207 2206.82 187.429 2208.37 L187.429 2203.65 Q190.253 2202.51 192.707 2201.93 Q195.16 2201.35 197.197 2201.35 Q202.568 2201.35 205.762 2204.04 Q208.957 2206.73 208.957 2211.22 Q208.957 2213.35 208.146 2215.27 Q207.359 2217.16 205.253 2219.76 Q204.674 2220.43 201.572 2223.65 Q198.47 2226.84 192.822 2232.6 Z" fill="#000000" fill-rule="evenodd" fill-opacity="1" /><path clip-path="url(#clip880)" d="M228.956 2205.06 Q225.345 2205.06 223.517 2208.62 Q221.711 2212.16 221.711 2219.29 Q221.711 2226.4 223.517 2229.97 Q225.345 2233.51 228.956 2233.51 Q232.591 2233.51 234.396 2229.97 Q236.225 2226.4 236.225 2219.29 Q236.225 2212.16 234.396 2208.62 Q232.591 2205.06 228.956 2205.06 M228.956 2201.35 Q234.767 2201.35 237.822 2205.96 Q240.901 2210.54 240.901 2219.29 Q240.901 2228.02 237.822 2232.63 Q234.767 2237.21 228.956 2237.21 Q223.146 2237.21 220.068 2232.63 Q217.012 2228.02 217.012 2219.29 Q217.012 2210.54 220.068 2205.96 Q223.146 2201.35 228.956 2201.35 Z" fill="#000000" fill-rule="evenodd" fill-opacity="1" /><path clip-path="url(#clip880)" d="M253.146 2232.6 L269.465 2232.6 L269.465 2236.54 L247.521 2236.54 L247.521 2232.6 Q250.183 2229.85 254.766 2225.22 Q259.373 2220.57 260.553 2219.23 Q262.799 2216.7 263.678 2214.97 Q264.581 2213.21 264.581 2211.52 Q264.581 2208.76 262.637 2207.03 Q260.716 2205.29 257.614 2205.29 Q255.415 2205.29 252.961 2206.05 Q250.53 2206.82 247.753 2208.37 L247.753 2203.65 Q250.577 2202.51 253.03 2201.93 Q255.484 2201.35 257.521 2201.35 Q262.891 2201.35 266.086 2204.04 Q269.28 2206.73 269.28 2211.22 Q269.28 2213.35 268.47 2215.27 Q267.683 2217.16 265.577 2219.76 Q264.998 2220.43 261.896 2223.65 Q258.794 2226.84 253.146 2232.6 Z" fill="#000000" fill-rule="evenodd" fill-opacity="1" /><path clip-path="url(#clip880)" d="M280.09 2232.6 L287.729 2232.6 L287.729 2206.24 L279.419 2207.91 L279.419 2203.65 L287.683 2201.98 L292.359 2201.98 L292.359 2232.6 L299.998 2232.6 L299.998 2236.54 L280.09 2236.54 L280.09 2232.6 Z" fill="#000000" fill-rule="evenodd" fill-opacity="1" /><path clip-path="url(#clip880)" d="M306.687 2221.66 L319.164 2221.66 L319.164 2225.45 L306.687 2225.45 L306.687 2221.66 Z" fill="#000000" fill-rule="evenodd" fill-opacity="1" /><path clip-path="url(#clip880)" d="M336.548 2205.06 Q332.937 2205.06 331.109 2208.62 Q329.303 2212.16 329.303 2219.29 Q329.303 2226.4 331.109 2229.97 Q332.937 2233.51 336.548 2233.51 Q340.183 2233.51 341.988 2229.97 Q343.817 2226.4 343.817 2219.29 Q343.817 2212.16 341.988 2208.62 Q340.183 2205.06 336.548 2205.06 M336.548 2201.35 Q342.359 2201.35 345.414 2205.96 Q348.493 2210.54 348.493 2219.29 Q348.493 2228.02 345.414 2232.63 Q342.359 2237.21 336.548 2237.21 Q330.738 2237.21 327.66 2232.63 Q324.604 2228.02 324.604 2219.29 Q324.604 2210.54 327.66 2205.96 Q330.738 2201.35 336.548 2201.35 Z" fill="#000000" fill-rule="evenodd" fill-opacity="1" /><path clip-path="url(#clip880)" d="M356.757 2201.98 L375.113 2201.98 L375.113 2205.92 L361.039 2205.92 L361.039 2214.39 Q362.058 2214.04 363.076 2213.88 Q364.095 2213.69 365.113 2213.69 Q370.9 2213.69 374.28 2216.86 Q377.659 2220.04 377.659 2225.45 Q377.659 2231.03 374.187 2234.13 Q370.715 2237.21 364.396 2237.21 Q362.22 2237.21 359.951 2236.84 Q357.706 2236.47 355.298 2235.73 L355.298 2231.03 Q357.382 2232.16 359.604 2232.72 Q361.826 2233.28 364.303 2233.28 Q368.308 2233.28 370.645 2231.17 Q372.983 2229.06 372.983 2225.45 Q372.983 2221.84 370.645 2219.73 Q368.308 2217.63 364.303 2217.63 Q362.428 2217.63 360.553 2218.04 Q358.701 2218.46 356.757 2219.34 L356.757 2201.98 Z" fill="#000000" fill-rule="evenodd" fill-opacity="1" /><path clip-path="url(#clip880)" d="M384.118 2221.66 L396.594 2221.66 L396.594 2225.45 L384.118 2225.45 L384.118 2221.66 Z" fill="#000000" fill-rule="evenodd" fill-opacity="1" /><path clip-path="url(#clip880)" d="M413.979 2205.06 Q410.367 2205.06 408.539 2208.62 Q406.733 2212.16 406.733 2219.29 Q406.733 2226.4 408.539 2229.97 Q410.367 2233.51 413.979 2233.51 Q417.613 2233.51 419.418 2229.97 Q421.247 2226.4 421.247 2219.29 Q421.247 2212.16 419.418 2208.62 Q417.613 2205.06 413.979 2205.06 M413.979 2201.35 Q419.789 2201.35 422.844 2205.96 Q425.923 2210.54 425.923 2219.29 Q425.923 2228.02 422.844 2232.63 Q419.789 2237.21 413.979 2237.21 Q408.168 2237.21 405.09 2232.63 Q402.034 2228.02 402.034 2219.29 Q402.034 2210.54 405.09 2205.96 Q408.168 2201.35 413.979 2201.35 Z" fill="#000000" fill-rule="evenodd" fill-opacity="1" /><path clip-path="url(#clip880)" d="M434.951 2232.6 L442.59 2232.6 L442.59 2206.24 L434.279 2207.91 L434.279 2203.65 L442.543 2201.98 L447.219 2201.98 L447.219 2232.6 L454.858 2232.6 L454.858 2236.54 L434.951 2236.54 L434.951 2232.6 Z" fill="#000000" fill-rule="evenodd" fill-opacity="1" /><path clip-path="url(#clip880)" d="M702.541 2232.6 L718.861 2232.6 L718.861 2236.54 L696.916 2236.54 L696.916 2232.6 Q699.578 2229.85 704.162 2225.22 Q708.768 2220.57 709.949 2219.23 Q712.194 2216.7 713.074 2214.97 Q713.976 2213.21 713.976 2211.52 Q713.976 2208.76 712.032 2207.03 Q710.111 2205.29 707.009 2205.29 Q704.81 2205.29 702.356 2206.05 Q699.925 2206.82 697.148 2208.37 L697.148 2203.65 Q699.972 2202.51 702.425 2201.93 Q704.879 2201.35 706.916 2201.35 Q712.287 2201.35 715.481 2204.04 Q718.675 2206.73 718.675 2211.22 Q718.675 2213.35 717.865 2215.27 Q717.078 2217.16 714.972 2219.76 Q714.393 2220.43 711.291 2223.65 Q708.189 2226.84 702.541 2232.6 Z" fill="#000000" fill-rule="evenodd" fill-opacity="1" /><path clip-path="url(#clip880)" d="M738.675 2205.06 Q735.064 2205.06 733.235 2208.62 Q731.43 2212.16 731.43 2219.29 Q731.43 2226.4 733.235 2229.97 Q735.064 2233.51 738.675 2233.51 Q742.31 2233.51 744.115 2229.97 Q745.944 2226.4 745.944 2219.29 Q745.944 2212.16 744.115 2208.62 Q742.31 2205.06 738.675 2205.06 M738.675 2201.35 Q744.485 2201.35 747.541 2205.96 Q750.62 2210.54 750.62 2219.29 Q750.62 2228.02 747.541 2232.63 Q744.485 2237.21 738.675 2237.21 Q732.865 2237.21 729.786 2232.63 Q726.731 2228.02 726.731 2219.29 Q726.731 2210.54 729.786 2205.96 Q732.865 2201.35 738.675 2201.35 Z" fill="#000000" fill-rule="evenodd" fill-opacity="1" /><path clip-path="url(#clip880)" d="M762.865 2232.6 L779.184 2232.6 L779.184 2236.54 L757.24 2236.54 L757.24 2232.6 Q759.902 2229.85 764.485 2225.22 Q769.092 2220.57 770.272 2219.23 Q772.518 2216.7 773.397 2214.97 Q774.3 2213.21 774.3 2211.52 Q774.3 2208.76 772.356 2207.03 Q770.434 2205.29 767.333 2205.29 Q765.133 2205.29 762.68 2206.05 Q760.249 2206.82 757.471 2208.37 L757.471 2203.65 Q760.296 2202.51 762.749 2201.93 Q765.203 2201.35 767.24 2201.35 Q772.61 2201.35 775.805 2204.04 Q778.999 2206.73 778.999 2211.22 Q778.999 2213.35 778.189 2215.27 Q777.402 2217.16 775.295 2219.76 Q774.717 2220.43 771.615 2223.65 Q768.513 2226.84 762.865 2232.6 Z" fill="#000000" fill-rule="evenodd" fill-opacity="1" /><path clip-path="url(#clip880)" d="M789.809 2232.6 L797.448 2232.6 L797.448 2206.24 L789.138 2207.91 L789.138 2203.65 L797.402 2201.98 L802.078 2201.98 L802.078 2232.6 L809.717 2232.6 L809.717 2236.54 L789.809 2236.54 L789.809 2232.6 Z" fill="#000000" fill-rule="evenodd" fill-opacity="1" /><path clip-path="url(#clip880)" d="M816.406 2221.66 L828.883 2221.66 L828.883 2225.45 L816.406 2225.45 L816.406 2221.66 Z" fill="#000000" fill-rule="evenodd" fill-opacity="1" /><path clip-path="url(#clip880)" d="M846.267 2205.06 Q842.656 2205.06 840.827 2208.62 Q839.022 2212.16 839.022 2219.29 Q839.022 2226.4 840.827 2229.97 Q842.656 2233.51 846.267 2233.51 Q849.902 2233.51 851.707 2229.97 Q853.536 2226.4 853.536 2219.29 Q853.536 2212.16 851.707 2208.62 Q849.902 2205.06 846.267 2205.06 M846.267 2201.35 Q852.077 2201.35 855.133 2205.96 Q858.212 2210.54 858.212 2219.29 Q858.212 2228.02 855.133 2232.63 Q852.077 2237.21 846.267 2237.21 Q840.457 2237.21 837.378 2232.63 Q834.323 2228.02 834.323 2219.29 Q834.323 2210.54 837.378 2205.96 Q840.457 2201.35 846.267 2201.35 Z" fill="#000000" fill-rule="evenodd" fill-opacity="1" /><path clip-path="url(#clip880)" d="M876.429 2220.13 Q873.096 2220.13 871.175 2221.91 Q869.276 2223.69 869.276 2226.82 Q869.276 2229.94 871.175 2231.73 Q873.096 2233.51 876.429 2233.51 Q879.762 2233.51 881.684 2231.73 Q883.605 2229.92 883.605 2226.82 Q883.605 2223.69 881.684 2221.91 Q879.786 2220.13 876.429 2220.13 M871.753 2218.14 Q868.744 2217.4 867.054 2215.34 Q865.388 2213.28 865.388 2210.31 Q865.388 2206.17 868.327 2203.76 Q871.29 2201.35 876.429 2201.35 Q881.591 2201.35 884.531 2203.76 Q887.471 2206.17 887.471 2210.31 Q887.471 2213.28 885.781 2215.34 Q884.114 2217.4 881.128 2218.14 Q884.508 2218.92 886.383 2221.22 Q888.281 2223.51 888.281 2226.82 Q888.281 2231.84 885.202 2234.53 Q882.147 2237.21 876.429 2237.21 Q870.712 2237.21 867.633 2234.53 Q864.577 2231.84 864.577 2226.82 Q864.577 2223.51 866.476 2221.22 Q868.374 2218.92 871.753 2218.14 M870.04 2210.75 Q870.04 2213.44 871.707 2214.94 Q873.397 2216.45 876.429 2216.45 Q879.438 2216.45 881.128 2214.94 Q882.841 2213.44 882.841 2210.75 Q882.841 2208.07 881.128 2206.56 Q879.438 2205.06 876.429 2205.06 Q873.397 2205.06 871.707 2206.56 Q870.04 2208.07 870.04 2210.75 Z" fill="#000000" fill-rule="evenodd" fill-opacity="1" /><path clip-path="url(#clip880)" d="M893.836 2221.66 L906.313 2221.66 L906.313 2225.45 L893.836 2225.45 L893.836 2221.66 Z" fill="#000000" fill-rule="evenodd" fill-opacity="1" /><path clip-path="url(#clip880)" d="M923.697 2205.06 Q920.086 2205.06 918.258 2208.62 Q916.452 2212.16 916.452 2219.29 Q916.452 2226.4 918.258 2229.97 Q920.086 2233.51 923.697 2233.51 Q927.332 2233.51 929.137 2229.97 Q930.966 2226.4 930.966 2219.29 Q930.966 2212.16 929.137 2208.62 Q927.332 2205.06 923.697 2205.06 M923.697 2201.35 Q929.508 2201.35 932.563 2205.96 Q935.642 2210.54 935.642 2219.29 Q935.642 2228.02 932.563 2232.63 Q929.508 2237.21 923.697 2237.21 Q917.887 2237.21 914.809 2232.63 Q911.753 2228.02 911.753 2219.29 Q911.753 2210.54 914.809 2205.96 Q917.887 2201.35 923.697 2201.35 Z" fill="#000000" fill-rule="evenodd" fill-opacity="1" /><path clip-path="url(#clip880)" d="M944.67 2232.6 L952.308 2232.6 L952.308 2206.24 L943.998 2207.91 L943.998 2203.65 L952.262 2201.98 L956.938 2201.98 L956.938 2232.6 L964.577 2232.6 L964.577 2236.54 L944.67 2236.54 L944.67 2232.6 Z" fill="#000000" fill-rule="evenodd" fill-opacity="1" /><path clip-path="url(#clip880)" d="M1212.26 2232.6 L1228.58 2232.6 L1228.58 2236.54 L1206.64 2236.54 L1206.64 2232.6 Q1209.3 2229.85 1213.88 2225.22 Q1218.49 2220.57 1219.67 2219.23 Q1221.91 2216.7 1222.79 2214.97 Q1223.7 2213.21 1223.7 2211.52 Q1223.7 2208.76 1221.75 2207.03 Q1219.83 2205.29 1216.73 2205.29 Q1214.53 2205.29 1212.07 2206.05 Q1209.64 2206.82 1206.87 2208.37 L1206.87 2203.65 Q1209.69 2202.51 1212.14 2201.93 Q1214.6 2201.35 1216.64 2201.35 Q1222.01 2201.35 1225.2 2204.04 Q1228.39 2206.73 1228.39 2211.22 Q1228.39 2213.35 1227.58 2215.27 Q1226.8 2217.16 1224.69 2219.76 Q1224.11 2220.43 1221.01 2223.65 Q1217.91 2226.84 1212.26 2232.6 Z" fill="#000000" fill-rule="evenodd" fill-opacity="1" /><path clip-path="url(#clip880)" d="M1248.39 2205.06 Q1244.78 2205.06 1242.95 2208.62 Q1241.15 2212.16 1241.15 2219.29 Q1241.15 2226.4 1242.95 2229.97 Q1244.78 2233.51 1248.39 2233.51 Q1252.03 2233.51 1253.83 2229.97 Q1255.66 2226.4 1255.66 2219.29 Q1255.66 2212.16 1253.83 2208.62 Q1252.03 2205.06 1248.39 2205.06 M1248.39 2201.35 Q1254.2 2201.35 1257.26 2205.96 Q1260.34 2210.54 1260.34 2219.29 Q1260.34 2228.02 1257.26 2232.63 Q1254.2 2237.21 1248.39 2237.21 Q1242.58 2237.21 1239.51 2232.63 Q1236.45 2228.02 1236.45 2219.29 Q1236.45 2210.54 1239.51 2205.96 Q1242.58 2201.35 1248.39 2201.35 Z" fill="#000000" fill-rule="evenodd" fill-opacity="1" /><path clip-path="url(#clip880)" d="M1272.58 2232.6 L1288.9 2232.6 L1288.9 2236.54 L1266.96 2236.54 L1266.96 2232.6 Q1269.62 2229.85 1274.2 2225.22 Q1278.81 2220.57 1279.99 2219.23 Q1282.24 2216.7 1283.12 2214.97 Q1284.02 2213.21 1284.02 2211.52 Q1284.02 2208.76 1282.07 2207.03 Q1280.15 2205.29 1277.05 2205.29 Q1274.85 2205.29 1272.4 2206.05 Q1269.97 2206.82 1267.19 2208.37 L1267.19 2203.65 Q1270.01 2202.51 1272.47 2201.93 Q1274.92 2201.35 1276.96 2201.35 Q1282.33 2201.35 1285.52 2204.04 Q1288.72 2206.73 1288.72 2211.22 Q1288.72 2213.35 1287.91 2215.27 Q1287.12 2217.16 1285.01 2219.76 Q1284.44 2220.43 1281.33 2223.65 Q1278.23 2226.84 1272.58 2232.6 Z" fill="#000000" fill-rule="evenodd" fill-opacity="1" /><path clip-path="url(#clip880)" d="M1299.53 2232.6 L1307.17 2232.6 L1307.17 2206.24 L1298.86 2207.91 L1298.86 2203.65 L1307.12 2201.98 L1311.8 2201.98 L1311.8 2232.6 L1319.44 2232.6 L1319.44 2236.54 L1299.53 2236.54 L1299.53 2232.6 Z" fill="#000000" fill-rule="evenodd" fill-opacity="1" /><path clip-path="url(#clip880)" d="M1326.13 2221.66 L1338.6 2221.66 L1338.6 2225.45 L1326.13 2225.45 L1326.13 2221.66 Z" fill="#000000" fill-rule="evenodd" fill-opacity="1" /><path clip-path="url(#clip880)" d="M1346.8 2232.6 L1354.44 2232.6 L1354.44 2206.24 L1346.13 2207.91 L1346.13 2203.65 L1354.39 2201.98 L1359.06 2201.98 L1359.06 2232.6 L1366.7 2232.6 L1366.7 2236.54 L1346.8 2236.54 L1346.8 2232.6 Z" fill="#000000" fill-rule="evenodd" fill-opacity="1" /><path clip-path="url(#clip880)" d="M1376.96 2232.6 L1384.6 2232.6 L1384.6 2206.24 L1376.29 2207.91 L1376.29 2203.65 L1384.55 2201.98 L1389.23 2201.98 L1389.23 2232.6 L1396.87 2232.6 L1396.87 2236.54 L1376.96 2236.54 L1376.96 2232.6 Z" fill="#000000" fill-rule="evenodd" fill-opacity="1" /><path clip-path="url(#clip880)" d="M1403.56 2221.66 L1416.03 2221.66 L1416.03 2225.45 L1403.56 2225.45 L1403.56 2221.66 Z" fill="#000000" fill-rule="evenodd" fill-opacity="1" /><path clip-path="url(#clip880)" d="M1433.42 2205.06 Q1429.81 2205.06 1427.98 2208.62 Q1426.17 2212.16 1426.17 2219.29 Q1426.17 2226.4 1427.98 2229.97 Q1429.81 2233.51 1433.42 2233.51 Q1437.05 2233.51 1438.86 2229.97 Q1440.68 2226.4 1440.68 2219.29 Q1440.68 2212.16 1438.86 2208.62 Q1437.05 2205.06 1433.42 2205.06 M1433.42 2201.35 Q1439.23 2201.35 1442.28 2205.96 Q1445.36 2210.54 1445.36 2219.29 Q1445.36 2228.02 1442.28 2232.63 Q1439.23 2237.21 1433.42 2237.21 Q1427.61 2237.21 1424.53 2232.63 Q1421.47 2228.02 1421.47 2219.29 Q1421.47 2210.54 1424.53 2205.96 Q1427.61 2201.35 1433.42 2201.35 Z" fill="#000000" fill-rule="evenodd" fill-opacity="1" /><path clip-path="url(#clip880)" d="M1454.39 2232.6 L1462.03 2232.6 L1462.03 2206.24 L1453.72 2207.91 L1453.72 2203.65 L1461.98 2201.98 L1466.66 2201.98 L1466.66 2232.6 L1474.3 2232.6 L1474.3 2236.54 L1454.39 2236.54 L1454.39 2232.6 Z" fill="#000000" fill-rule="evenodd" fill-opacity="1" /><path clip-path="url(#clip880)" d="M1721.98 2232.6 L1738.3 2232.6 L1738.3 2236.54 L1716.35 2236.54 L1716.35 2232.6 Q1719.02 2229.85 1723.6 2225.22 Q1728.21 2220.57 1729.39 2219.23 Q1731.63 2216.7 1732.51 2214.97 Q1733.41 2213.21 1733.41 2211.52 Q1733.41 2208.76 1731.47 2207.03 Q1729.55 2205.29 1726.45 2205.29 Q1724.25 2205.29 1721.79 2206.05 Q1719.36 2206.82 1716.59 2208.37 L1716.59 2203.65 Q1719.41 2202.51 1721.86 2201.93 Q1724.32 2201.35 1726.35 2201.35 Q1731.72 2201.35 1734.92 2204.04 Q1738.11 2206.73 1738.11 2211.22 Q1738.11 2213.35 1737.3 2215.27 Q1736.52 2217.16 1734.41 2219.76 Q1733.83 2220.43 1730.73 2223.65 Q1727.63 2226.84 1721.98 2232.6 Z" fill="#000000" fill-rule="evenodd" fill-opacity="1" /><path clip-path="url(#clip880)" d="M1758.11 2205.06 Q1754.5 2205.06 1752.67 2208.62 Q1750.87 2212.16 1750.87 2219.29 Q1750.87 2226.4 1752.67 2229.97 Q1754.5 2233.51 1758.11 2233.51 Q1761.75 2233.51 1763.55 2229.97 Q1765.38 2226.4 1765.38 2219.29 Q1765.38 2212.16 1763.55 2208.62 Q1761.75 2205.06 1758.11 2205.06 M1758.11 2201.35 Q1763.92 2201.35 1766.98 2205.96 Q1770.06 2210.54 1770.06 2219.29 Q1770.06 2228.02 1766.98 2232.63 Q1763.92 2237.21 1758.11 2237.21 Q1752.3 2237.21 1749.22 2232.63 Q1746.17 2228.02 1746.17 2219.29 Q1746.17 2210.54 1749.22 2205.96 Q1752.3 2201.35 1758.11 2201.35 Z" fill="#000000" fill-rule="evenodd" fill-opacity="1" /><path clip-path="url(#clip880)" d="M1782.3 2232.6 L1798.62 2232.6 L1798.62 2236.54 L1776.68 2236.54 L1776.68 2232.6 Q1779.34 2229.85 1783.92 2225.22 Q1788.53 2220.57 1789.71 2219.23 Q1791.96 2216.7 1792.83 2214.97 Q1793.74 2213.21 1793.74 2211.52 Q1793.74 2208.76 1791.79 2207.03 Q1789.87 2205.29 1786.77 2205.29 Q1784.57 2205.29 1782.12 2206.05 Q1779.69 2206.82 1776.91 2208.37 L1776.91 2203.65 Q1779.73 2202.51 1782.19 2201.93 Q1784.64 2201.35 1786.68 2201.35 Q1792.05 2201.35 1795.24 2204.04 Q1798.44 2206.73 1798.44 2211.22 Q1798.44 2213.35 1797.63 2215.27 Q1796.84 2217.16 1794.73 2219.76 Q1794.15 2220.43 1791.05 2223.65 Q1787.95 2226.84 1782.3 2232.6 Z" fill="#000000" fill-rule="evenodd" fill-opacity="1" /><path clip-path="url(#clip880)" d="M1812.46 2232.6 L1828.78 2232.6 L1828.78 2236.54 L1806.84 2236.54 L1806.84 2232.6 Q1809.5 2229.85 1814.08 2225.22 Q1818.69 2220.57 1819.87 2219.23 Q1822.12 2216.7 1823 2214.97 Q1823.9 2213.21 1823.9 2211.52 Q1823.9 2208.76 1821.96 2207.03 Q1820.03 2205.29 1816.93 2205.29 Q1814.73 2205.29 1812.28 2206.05 Q1809.85 2206.82 1807.07 2208.37 L1807.07 2203.65 Q1809.9 2202.51 1812.35 2201.93 Q1814.8 2201.35 1816.84 2201.35 Q1822.21 2201.35 1825.4 2204.04 Q1828.6 2206.73 1828.6 2211.22 Q1828.6 2213.35 1827.79 2215.27 Q1827 2217.16 1824.89 2219.76 Q1824.32 2220.43 1821.21 2223.65 Q1818.11 2226.84 1812.46 2232.6 Z" fill="#000000" fill-rule="evenodd" fill-opacity="1" /><path clip-path="url(#clip880)" d="M1835.84 2221.66 L1848.32 2221.66 L1848.32 2225.45 L1835.84 2225.45 L1835.84 2221.66 Z" fill="#000000" fill-rule="evenodd" fill-opacity="1" /><path clip-path="url(#clip880)" d="M1865.7 2205.06 Q1862.09 2205.06 1860.27 2208.62 Q1858.46 2212.16 1858.46 2219.29 Q1858.46 2226.4 1860.27 2229.97 Q1862.09 2233.51 1865.7 2233.51 Q1869.34 2233.51 1871.14 2229.97 Q1872.97 2226.4 1872.97 2219.29 Q1872.97 2212.16 1871.14 2208.62 Q1869.34 2205.06 1865.7 2205.06 M1865.7 2201.35 Q1871.52 2201.35 1874.57 2205.96 Q1877.65 2210.54 1877.65 2219.29 Q1877.65 2228.02 1874.57 2232.63 Q1871.52 2237.21 1865.7 2237.21 Q1859.89 2237.21 1856.82 2232.63 Q1853.76 2228.02 1853.76 2219.29 Q1853.76 2210.54 1856.82 2205.96 Q1859.89 2201.35 1865.7 2201.35 Z" fill="#000000" fill-rule="evenodd" fill-opacity="1" /><path clip-path="url(#clip880)" d="M1889.89 2232.6 L1906.21 2232.6 L1906.21 2236.54 L1884.27 2236.54 L1884.27 2232.6 Q1886.93 2229.85 1891.52 2225.22 Q1896.12 2220.57 1897.3 2219.23 Q1899.55 2216.7 1900.43 2214.97 Q1901.33 2213.21 1901.33 2211.52 Q1901.33 2208.76 1899.39 2207.03 Q1897.46 2205.29 1894.36 2205.29 Q1892.16 2205.29 1889.71 2206.05 Q1887.28 2206.82 1884.5 2208.37 L1884.5 2203.65 Q1887.33 2202.51 1889.78 2201.93 Q1892.23 2201.35 1894.27 2201.35 Q1899.64 2201.35 1902.83 2204.04 Q1906.03 2206.73 1906.03 2211.22 Q1906.03 2213.35 1905.22 2215.27 Q1904.43 2217.16 1902.33 2219.76 Q1901.75 2220.43 1898.64 2223.65 Q1895.54 2226.84 1889.89 2232.6 Z" fill="#000000" fill-rule="evenodd" fill-opacity="1" /><path clip-path="url(#clip880)" d="M1913.27 2221.66 L1925.75 2221.66 L1925.75 2225.45 L1913.27 2225.45 L1913.27 2221.66 Z" fill="#000000" fill-rule="evenodd" fill-opacity="1" /><path clip-path="url(#clip880)" d="M1943.14 2205.06 Q1939.52 2205.06 1937.7 2208.62 Q1935.89 2212.16 1935.89 2219.29 Q1935.89 2226.4 1937.7 2229.97 Q1939.52 2233.51 1943.14 2233.51 Q1946.77 2233.51 1948.57 2229.97 Q1950.4 2226.4 1950.4 2219.29 Q1950.4 2212.16 1948.57 2208.62 Q1946.77 2205.06 1943.14 2205.06 M1943.14 2201.35 Q1948.95 2201.35 1952 2205.96 Q1955.08 2210.54 1955.08 2219.29 Q1955.08 2228.02 1952 2232.63 Q1948.95 2237.21 1943.14 2237.21 Q1937.32 2237.21 1934.25 2232.63 Q1931.19 2228.02 1931.19 2219.29 Q1931.19 2210.54 1934.25 2205.96 Q1937.32 2201.35 1943.14 2201.35 Z" fill="#000000" fill-rule="evenodd" fill-opacity="1" /><path clip-path="url(#clip880)" d="M1964.11 2232.6 L1971.75 2232.6 L1971.75 2206.24 L1963.44 2207.91 L1963.44 2203.65 L1971.7 2201.98 L1976.38 2201.98 L1976.38 2232.6 L1984.01 2232.6 L1984.01 2236.54 L1964.11 2236.54 L1964.11 2232.6 Z" fill="#000000" fill-rule="evenodd" fill-opacity="1" /><path clip-path="url(#clip880)" d="M2215.08 2232.6 L2231.4 2232.6 L2231.4 2236.54 L2209.45 2236.54 L2209.45 2232.6 Q2212.11 2229.85 2216.7 2225.22 Q2221.3 2220.57 2222.48 2219.23 Q2224.73 2216.7 2225.61 2214.97 Q2226.51 2213.21 2226.51 2211.52 Q2226.51 2208.76 2224.57 2207.03 Q2222.65 2205.29 2219.54 2205.29 Q2217.34 2205.29 2214.89 2206.05 Q2212.46 2206.82 2209.68 2208.37 L2209.68 2203.65 Q2212.51 2202.51 2214.96 2201.93 Q2217.41 2201.35 2219.45 2201.35 Q2224.82 2201.35 2228.02 2204.04 Q2231.21 2206.73 2231.21 2211.22 Q2231.21 2213.35 2230.4 2215.27 Q2229.61 2217.16 2227.51 2219.76 Q2226.93 2220.43 2223.83 2223.65 Q2220.72 2226.84 2215.08 2232.6 Z" fill="#000000" fill-rule="evenodd" fill-opacity="1" /><path clip-path="url(#clip880)" d="M2251.21 2205.06 Q2247.6 2205.06 2245.77 2208.62 Q2243.97 2212.16 2243.97 2219.29 Q2243.97 2226.4 2245.77 2229.97 Q2247.6 2233.51 2251.21 2233.51 Q2254.84 2233.51 2256.65 2229.97 Q2258.48 2226.4 2258.48 2219.29 Q2258.48 2212.16 2256.65 2208.62 Q2254.84 2205.06 2251.21 2205.06 M2251.21 2201.35 Q2257.02 2201.35 2260.08 2205.96 Q2263.15 2210.54 2263.15 2219.29 Q2263.15 2228.02 2260.08 2232.63 Q2257.02 2237.21 2251.21 2237.21 Q2245.4 2237.21 2242.32 2232.63 Q2239.27 2228.02 2239.27 2219.29 Q2239.27 2210.54 2242.32 2205.96 Q2245.4 2201.35 2251.21 2201.35 Z" fill="#000000" fill-rule="evenodd" fill-opacity="1" /><path clip-path="url(#clip880)" d="M2275.4 2232.6 L2291.72 2232.6 L2291.72 2236.54 L2269.78 2236.54 L2269.78 2232.6 Q2272.44 2229.85 2277.02 2225.22 Q2281.63 2220.57 2282.81 2219.23 Q2285.05 2216.7 2285.93 2214.97 Q2286.84 2213.21 2286.84 2211.52 Q2286.84 2208.76 2284.89 2207.03 Q2282.97 2205.29 2279.87 2205.29 Q2277.67 2205.29 2275.22 2206.05 Q2272.78 2206.82 2270.01 2208.37 L2270.01 2203.65 Q2272.83 2202.51 2275.28 2201.93 Q2277.74 2201.35 2279.78 2201.35 Q2285.15 2201.35 2288.34 2204.04 Q2291.53 2206.73 2291.53 2211.22 Q2291.53 2213.35 2290.72 2215.27 Q2289.94 2217.16 2287.83 2219.76 Q2287.25 2220.43 2284.15 2223.65 Q2281.05 2226.84 2275.4 2232.6 Z" fill="#000000" fill-rule="evenodd" fill-opacity="1" /><path clip-path="url(#clip880)" d="M2305.56 2232.6 L2321.88 2232.6 L2321.88 2236.54 L2299.94 2236.54 L2299.94 2232.6 Q2302.6 2229.85 2307.18 2225.22 Q2311.79 2220.57 2312.97 2219.23 Q2315.21 2216.7 2316.09 2214.97 Q2317 2213.21 2317 2211.52 Q2317 2208.76 2315.05 2207.03 Q2313.13 2205.29 2310.03 2205.29 Q2307.83 2205.29 2305.38 2206.05 Q2302.95 2206.82 2300.17 2208.37 L2300.17 2203.65 Q2302.99 2202.51 2305.45 2201.93 Q2307.9 2201.35 2309.94 2201.35 Q2315.31 2201.35 2318.5 2204.04 Q2321.7 2206.73 2321.7 2211.22 Q2321.7 2213.35 2320.89 2215.27 Q2320.1 2217.16 2317.99 2219.76 Q2317.41 2220.43 2314.31 2223.65 Q2311.21 2226.84 2305.56 2232.6 Z" fill="#000000" fill-rule="evenodd" fill-opacity="1" /><path clip-path="url(#clip880)" d="M2328.94 2221.66 L2341.42 2221.66 L2341.42 2225.45 L2328.94 2225.45 L2328.94 2221.66 Z" fill="#000000" fill-rule="evenodd" fill-opacity="1" /><path clip-path="url(#clip880)" d="M2358.8 2205.06 Q2355.19 2205.06 2353.36 2208.62 Q2351.56 2212.16 2351.56 2219.29 Q2351.56 2226.4 2353.36 2229.97 Q2355.19 2233.51 2358.8 2233.51 Q2362.44 2233.51 2364.24 2229.97 Q2366.07 2226.4 2366.07 2219.29 Q2366.07 2212.16 2364.24 2208.62 Q2362.44 2205.06 2358.8 2205.06 M2358.8 2201.35 Q2364.61 2201.35 2367.67 2205.96 Q2370.75 2210.54 2370.75 2219.29 Q2370.75 2228.02 2367.67 2232.63 Q2364.61 2237.21 2358.8 2237.21 Q2352.99 2237.21 2349.91 2232.63 Q2346.86 2228.02 2346.86 2219.29 Q2346.86 2210.54 2349.91 2205.96 Q2352.99 2201.35 2358.8 2201.35 Z" fill="#000000" fill-rule="evenodd" fill-opacity="1" /><path clip-path="url(#clip880)" d="M2379.01 2201.98 L2397.37 2201.98 L2397.37 2205.92 L2383.29 2205.92 L2383.29 2214.39 Q2384.31 2214.04 2385.33 2213.88 Q2386.35 2213.69 2387.37 2213.69 Q2393.15 2213.69 2396.53 2216.86 Q2399.91 2220.04 2399.91 2225.45 Q2399.91 2231.03 2396.44 2234.13 Q2392.97 2237.21 2386.65 2237.21 Q2384.47 2237.21 2382.21 2236.84 Q2379.96 2236.47 2377.55 2235.73 L2377.55 2231.03 Q2379.64 2232.16 2381.86 2232.72 Q2384.08 2233.28 2386.56 2233.28 Q2390.56 2233.28 2392.9 2231.17 Q2395.24 2229.06 2395.24 2225.45 Q2395.24 2221.84 2392.9 2219.73 Q2390.56 2217.63 2386.56 2217.63 Q2384.68 2217.63 2382.81 2218.04 Q2380.96 2218.46 2379.01 2219.34 L2379.01 2201.98 Z" fill="#000000" fill-rule="evenodd" fill-opacity="1" /><path clip-path="url(#clip880)" d="M2406.37 2221.66 L2418.85 2221.66 L2418.85 2225.45 L2406.37 2225.45 L2406.37 2221.66 Z" fill="#000000" fill-rule="evenodd" fill-opacity="1" /><path clip-path="url(#clip880)" d="M2436.23 2205.06 Q2432.62 2205.06 2430.79 2208.62 Q2428.99 2212.16 2428.99 2219.29 Q2428.99 2226.4 2430.79 2229.97 Q2432.62 2233.51 2436.23 2233.51 Q2439.87 2233.51 2441.67 2229.97 Q2443.5 2226.4 2443.5 2219.29 Q2443.5 2212.16 2441.67 2208.62 Q2439.87 2205.06 2436.23 2205.06 M2436.23 2201.35 Q2442.04 2201.35 2445.1 2205.96 Q2448.18 2210.54 2448.18 2219.29 Q2448.18 2228.02 2445.1 2232.63 Q2442.04 2237.21 2436.23 2237.21 Q2430.42 2237.21 2427.34 2232.63 Q2424.29 2228.02 2424.29 2219.29 Q2424.29 2210.54 2427.34 2205.96 Q2430.42 2201.35 2436.23 2201.35 Z" fill="#000000" fill-rule="evenodd" fill-opacity="1" /><path clip-path="url(#clip880)" d="M2457.2 2232.6 L2464.84 2232.6 L2464.84 2206.24 L2456.53 2207.91 L2456.53 2203.65 L2464.8 2201.98 L2469.47 2201.98 L2469.47 2232.6 L2477.11 2232.6 L2477.11 2236.54 L2457.2 2236.54 L2457.2 2232.6 Z" fill="#000000" fill-rule="evenodd" fill-opacity="1" /><path clip-path="url(#clip880)" d="M1218.99 2271.48 L1225.42 2271.48 L1225.42 2319 L1218.99 2319 L1218.99 2271.48 Z" fill="#000000" fill-rule="evenodd" fill-opacity="1" /><path clip-path="url(#clip880)" d="M1267.6 2297.49 L1267.6 2319 L1261.74 2319 L1261.74 2297.68 Q1261.74 2292.62 1259.77 2290.1 Q1257.79 2287.59 1253.85 2287.59 Q1249.1 2287.59 1246.37 2290.61 Q1243.63 2293.64 1243.63 2298.86 L1243.63 2319 L1237.74 2319 L1237.74 2283.36 L1243.63 2283.36 L1243.63 2288.89 Q1245.73 2285.68 1248.56 2284.09 Q1251.43 2282.5 1255.15 2282.5 Q1261.29 2282.5 1264.44 2286.32 Q1267.6 2290.1 1267.6 2297.49 Z" fill="#000000" fill-rule="evenodd" fill-opacity="1" /><path clip-path="url(#clip880)" d="M1302.73 2288.77 L1302.73 2269.48 L1308.59 2269.48 L1308.59 2319 L1302.73 2319 L1302.73 2313.66 Q1300.89 2316.84 1298.06 2318.4 Q1295.25 2319.93 1291.31 2319.93 Q1284.85 2319.93 1280.77 2314.77 Q1276.73 2309.61 1276.73 2301.21 Q1276.73 2292.81 1280.77 2287.65 Q1284.85 2282.5 1291.31 2282.5 Q1295.25 2282.5 1298.06 2284.06 Q1300.89 2285.58 1302.73 2288.77 M1282.78 2301.21 Q1282.78 2307.67 1285.42 2311.36 Q1288.09 2315.03 1292.74 2315.03 Q1297.39 2315.03 1300.06 2311.36 Q1302.73 2307.67 1302.73 2301.21 Q1302.73 2294.75 1300.06 2291.09 Q1297.39 2287.4 1292.74 2287.4 Q1288.09 2287.4 1285.42 2291.09 Q1282.78 2294.75 1282.78 2301.21 Z" fill="#000000" fill-rule="evenodd" fill-opacity="1" /><path clip-path="url(#clip880)" d="M1351.15 2299.72 L1351.15 2302.58 L1324.22 2302.58 Q1324.6 2308.63 1327.85 2311.81 Q1331.12 2314.96 1336.95 2314.96 Q1340.32 2314.96 1343.47 2314.13 Q1346.66 2313.31 1349.78 2311.65 L1349.78 2317.19 Q1346.63 2318.53 1343.32 2319.23 Q1340.01 2319.93 1336.6 2319.93 Q1328.07 2319.93 1323.07 2314.96 Q1318.11 2310 1318.11 2301.53 Q1318.11 2292.78 1322.82 2287.65 Q1327.56 2282.5 1335.58 2282.5 Q1342.77 2282.5 1346.94 2287.14 Q1351.15 2291.76 1351.15 2299.72 M1345.29 2298 Q1345.22 2293.19 1342.58 2290.33 Q1339.97 2287.46 1335.64 2287.46 Q1330.74 2287.46 1327.78 2290.23 Q1324.85 2293 1324.41 2298.03 L1345.29 2298 Z" fill="#000000" fill-rule="evenodd" fill-opacity="1" /><path clip-path="url(#clip880)" d="M1389.24 2283.36 L1376.35 2300.7 L1389.91 2319 L1383.01 2319 L1372.63 2305 L1362.25 2319 L1355.35 2319 L1369.19 2300.35 L1356.52 2283.36 L1363.43 2283.36 L1372.88 2296.06 L1382.34 2283.36 L1389.24 2283.36 Z" fill="#000000" fill-rule="evenodd" fill-opacity="1" /><polyline clip-path="url(#clip882)" style="stroke:#000000; stroke-linecap:butt; stroke-linejoin:round; stroke-width:2; stroke-opacity:0.1; fill:none" points="
  256.149,2170.34 2352.76,2170.34 
  "/>
<polyline clip-path="url(#clip882)" style="stroke:#000000; stroke-linecap:butt; stroke-linejoin:round; stroke-width:2; stroke-opacity:0.1; fill:none" points="
  256.149,1822.2 2352.76,1822.2 
  "/>
<polyline clip-path="url(#clip882)" style="stroke:#000000; stroke-linecap:butt; stroke-linejoin:round; stroke-width:2; stroke-opacity:0.1; fill:none" points="
  256.149,1474.06 2352.76,1474.06 
  "/>
<polyline clip-path="url(#clip882)" style="stroke:#000000; stroke-linecap:butt; stroke-linejoin:round; stroke-width:2; stroke-opacity:0.1; fill:none" points="
  256.149,1125.91 2352.76,1125.91 
  "/>
<polyline clip-path="url(#clip882)" style="stroke:#000000; stroke-linecap:butt; stroke-linejoin:round; stroke-width:2; stroke-opacity:0.1; fill:none" points="
  256.149,777.767 2352.76,777.767 
  "/>
<polyline clip-path="url(#clip882)" style="stroke:#000000; stroke-linecap:butt; stroke-linejoin:round; stroke-width:2; stroke-opacity:0.1; fill:none" points="
  256.149,429.622 2352.76,429.622 
  "/>
<polyline clip-path="url(#clip882)" style="stroke:#000000; stroke-linecap:butt; stroke-linejoin:round; stroke-width:2; stroke-opacity:0.1; fill:none" points="
  256.149,81.4782 2352.76,81.4782 
  "/>
<polyline clip-path="url(#clip880)" style="stroke:#000000; stroke-linecap:butt; stroke-linejoin:round; stroke-width:4; stroke-opacity:1; fill:none" points="
  256.149,2174.14 256.149,47.2441 
  "/>
<polyline clip-path="url(#clip880)" style="stroke:#000000; stroke-linecap:butt; stroke-linejoin:round; stroke-width:4; stroke-opacity:1; fill:none" points="
  256.149,2170.34 275.047,2170.34 
  "/>
<polyline clip-path="url(#clip880)" style="stroke:#000000; stroke-linecap:butt; stroke-linejoin:round; stroke-width:4; stroke-opacity:1; fill:none" points="
  256.149,1822.2 275.047,1822.2 
  "/>
<polyline clip-path="url(#clip880)" style="stroke:#000000; stroke-linecap:butt; stroke-linejoin:round; stroke-width:4; stroke-opacity:1; fill:none" points="
  256.149,1474.06 275.047,1474.06 
  "/>
<polyline clip-path="url(#clip880)" style="stroke:#000000; stroke-linecap:butt; stroke-linejoin:round; stroke-width:4; stroke-opacity:1; fill:none" points="
  256.149,1125.91 275.047,1125.91 
  "/>
<polyline clip-path="url(#clip880)" style="stroke:#000000; stroke-linecap:butt; stroke-linejoin:round; stroke-width:4; stroke-opacity:1; fill:none" points="
  256.149,777.767 275.047,777.767 
  "/>
<polyline clip-path="url(#clip880)" style="stroke:#000000; stroke-linecap:butt; stroke-linejoin:round; stroke-width:4; stroke-opacity:1; fill:none" points="
  256.149,429.622 275.047,429.622 
  "/>
<polyline clip-path="url(#clip880)" style="stroke:#000000; stroke-linecap:butt; stroke-linejoin:round; stroke-width:4; stroke-opacity:1; fill:none" points="
  256.149,81.4782 275.047,81.4782 
  "/>
<path clip-path="url(#clip880)" d="M139.687 2183.69 L147.326 2183.69 L147.326 2157.32 L139.016 2158.99 L139.016 2154.73 L147.279 2153.06 L151.955 2153.06 L151.955 2183.69 L159.594 2183.69 L159.594 2187.62 L139.687 2187.62 L139.687 2183.69 Z" fill="#000000" fill-rule="evenodd" fill-opacity="1" /><path clip-path="url(#clip880)" d="M169.849 2183.69 L177.488 2183.69 L177.488 2157.32 L169.177 2158.99 L169.177 2154.73 L177.441 2153.06 L182.117 2153.06 L182.117 2183.69 L189.756 2183.69 L189.756 2187.62 L169.849 2187.62 L169.849 2183.69 Z" fill="#000000" fill-rule="evenodd" fill-opacity="1" /><path clip-path="url(#clip880)" d="M199.247 2153.06 L217.603 2153.06 L217.603 2157 L203.529 2157 L203.529 2165.47 Q204.548 2165.12 205.566 2164.96 Q206.585 2164.78 207.603 2164.78 Q213.39 2164.78 216.77 2167.95 Q220.149 2171.12 220.149 2176.54 Q220.149 2182.11 216.677 2185.22 Q213.205 2188.3 206.886 2188.3 Q204.71 2188.3 202.441 2187.92 Q200.196 2187.55 197.788 2186.81 L197.788 2182.11 Q199.872 2183.25 202.094 2183.8 Q204.316 2184.36 206.793 2184.36 Q210.798 2184.36 213.135 2182.25 Q215.473 2180.15 215.473 2176.54 Q215.473 2172.92 213.135 2170.82 Q210.798 2168.71 206.793 2168.71 Q204.918 2168.71 203.043 2169.13 Q201.191 2169.55 199.247 2170.42 L199.247 2153.06 Z" fill="#000000" fill-rule="evenodd" fill-opacity="1" /><path clip-path="url(#clip880)" d="M138.691 1835.54 L146.33 1835.54 L146.33 1809.18 L138.02 1810.85 L138.02 1806.59 L146.284 1804.92 L150.96 1804.92 L150.96 1835.54 L158.599 1835.54 L158.599 1839.48 L138.691 1839.48 L138.691 1835.54 Z" fill="#000000" fill-rule="evenodd" fill-opacity="1" /><path clip-path="url(#clip880)" d="M172.071 1835.54 L188.39 1835.54 L188.39 1839.48 L166.446 1839.48 L166.446 1835.54 Q169.108 1832.79 173.691 1828.16 Q178.298 1823.51 179.478 1822.16 Q181.724 1819.64 182.603 1817.91 Q183.506 1816.15 183.506 1814.46 Q183.506 1811.7 181.562 1809.97 Q179.64 1808.23 176.538 1808.23 Q174.339 1808.23 171.886 1808.99 Q169.455 1809.76 166.677 1811.31 L166.677 1806.59 Q169.501 1805.45 171.955 1804.87 Q174.409 1804.29 176.446 1804.29 Q181.816 1804.29 185.011 1806.98 Q188.205 1809.66 188.205 1814.16 Q188.205 1816.29 187.395 1818.21 Q186.608 1820.1 184.501 1822.7 Q183.923 1823.37 180.821 1826.59 Q177.719 1829.78 172.071 1835.54 Z" fill="#000000" fill-rule="evenodd" fill-opacity="1" /><path clip-path="url(#clip880)" d="M208.205 1808 Q204.594 1808 202.765 1811.56 Q200.96 1815.1 200.96 1822.23 Q200.96 1829.34 202.765 1832.91 Q204.594 1836.45 208.205 1836.45 Q211.839 1836.45 213.645 1832.91 Q215.473 1829.34 215.473 1822.23 Q215.473 1815.1 213.645 1811.56 Q211.839 1808 208.205 1808 M208.205 1804.29 Q214.015 1804.29 217.071 1808.9 Q220.149 1813.48 220.149 1822.23 Q220.149 1830.96 217.071 1835.57 Q214.015 1840.15 208.205 1840.15 Q202.395 1840.15 199.316 1835.57 Q196.261 1830.96 196.261 1822.23 Q196.261 1813.48 199.316 1808.9 Q202.395 1804.29 208.205 1804.29 Z" fill="#000000" fill-rule="evenodd" fill-opacity="1" /><path clip-path="url(#clip880)" d="M139.687 1487.4 L147.326 1487.4 L147.326 1461.03 L139.016 1462.7 L139.016 1458.44 L147.279 1456.78 L151.955 1456.78 L151.955 1487.4 L159.594 1487.4 L159.594 1491.34 L139.687 1491.34 L139.687 1487.4 Z" fill="#000000" fill-rule="evenodd" fill-opacity="1" /><path clip-path="url(#clip880)" d="M173.066 1487.4 L189.386 1487.4 L189.386 1491.34 L167.441 1491.34 L167.441 1487.4 Q170.103 1484.65 174.687 1480.02 Q179.293 1475.36 180.474 1474.02 Q182.719 1471.5 183.599 1469.76 Q184.501 1468 184.501 1466.31 Q184.501 1463.56 182.557 1461.82 Q180.636 1460.09 177.534 1460.09 Q175.335 1460.09 172.881 1460.85 Q170.451 1461.61 167.673 1463.16 L167.673 1458.44 Q170.497 1457.31 172.951 1456.73 Q175.404 1456.15 177.441 1456.15 Q182.812 1456.15 186.006 1458.84 Q189.2 1461.52 189.2 1466.01 Q189.2 1468.14 188.39 1470.06 Q187.603 1471.96 185.497 1474.55 Q184.918 1475.22 181.816 1478.44 Q178.714 1481.64 173.066 1487.4 Z" fill="#000000" fill-rule="evenodd" fill-opacity="1" /><path clip-path="url(#clip880)" d="M199.247 1456.78 L217.603 1456.78 L217.603 1460.71 L203.529 1460.71 L203.529 1469.18 Q204.548 1468.84 205.566 1468.67 Q206.585 1468.49 207.603 1468.49 Q213.39 1468.49 216.77 1471.66 Q220.149 1474.83 220.149 1480.25 Q220.149 1485.83 216.677 1488.93 Q213.205 1492.01 206.886 1492.01 Q204.71 1492.01 202.441 1491.64 Q200.196 1491.27 197.788 1490.53 L197.788 1485.83 Q199.872 1486.96 202.094 1487.52 Q204.316 1488.07 206.793 1488.07 Q210.798 1488.07 213.135 1485.97 Q215.473 1483.86 215.473 1480.25 Q215.473 1476.64 213.135 1474.53 Q210.798 1472.42 206.793 1472.42 Q204.918 1472.42 203.043 1472.84 Q201.191 1473.26 199.247 1474.14 L199.247 1456.78 Z" fill="#000000" fill-rule="evenodd" fill-opacity="1" /><path clip-path="url(#clip880)" d="M138.691 1139.26 L146.33 1139.26 L146.33 1112.89 L138.02 1114.56 L138.02 1110.3 L146.284 1108.63 L150.96 1108.63 L150.96 1139.26 L158.599 1139.26 L158.599 1143.19 L138.691 1143.19 L138.691 1139.26 Z" fill="#000000" fill-rule="evenodd" fill-opacity="1" /><path clip-path="url(#clip880)" d="M182.21 1124.56 Q185.566 1125.27 187.441 1127.54 Q189.339 1129.81 189.339 1133.14 Q189.339 1138.26 185.821 1141.06 Q182.302 1143.86 175.821 1143.86 Q173.645 1143.86 171.33 1143.42 Q169.039 1143.01 166.585 1142.15 L166.585 1137.64 Q168.529 1138.77 170.844 1139.35 Q173.159 1139.93 175.682 1139.93 Q180.08 1139.93 182.372 1138.19 Q184.687 1136.45 184.687 1133.14 Q184.687 1130.09 182.534 1128.38 Q180.404 1126.64 176.585 1126.64 L172.557 1126.64 L172.557 1122.8 L176.77 1122.8 Q180.219 1122.8 182.048 1121.43 Q183.876 1120.04 183.876 1117.45 Q183.876 1114.79 181.978 1113.38 Q180.103 1111.94 176.585 1111.94 Q174.663 1111.94 172.464 1112.36 Q170.265 1112.77 167.626 1113.65 L167.626 1109.49 Q170.289 1108.75 172.603 1108.38 Q174.941 1108.01 177.001 1108.01 Q182.325 1108.01 185.427 1110.44 Q188.529 1112.84 188.529 1116.96 Q188.529 1119.83 186.886 1121.83 Q185.242 1123.79 182.21 1124.56 Z" fill="#000000" fill-rule="evenodd" fill-opacity="1" /><path clip-path="url(#clip880)" d="M208.205 1111.71 Q204.594 1111.71 202.765 1115.27 Q200.96 1118.82 200.96 1125.95 Q200.96 1133.05 202.765 1136.62 Q204.594 1140.16 208.205 1140.16 Q211.839 1140.16 213.645 1136.62 Q215.473 1133.05 215.473 1125.95 Q215.473 1118.82 213.645 1115.27 Q211.839 1111.71 208.205 1111.71 M208.205 1108.01 Q214.015 1108.01 217.071 1112.61 Q220.149 1117.2 220.149 1125.95 Q220.149 1134.67 217.071 1139.28 Q214.015 1143.86 208.205 1143.86 Q202.395 1143.86 199.316 1139.28 Q196.261 1134.67 196.261 1125.95 Q196.261 1117.2 199.316 1112.61 Q202.395 1108.01 208.205 1108.01 Z" fill="#000000" fill-rule="evenodd" fill-opacity="1" /><path clip-path="url(#clip880)" d="M139.687 791.112 L147.326 791.112 L147.326 764.746 L139.016 766.413 L139.016 762.153 L147.279 760.487 L151.955 760.487 L151.955 791.112 L159.594 791.112 L159.594 795.047 L139.687 795.047 L139.687 791.112 Z" fill="#000000" fill-rule="evenodd" fill-opacity="1" /><path clip-path="url(#clip880)" d="M183.205 776.413 Q186.562 777.13 188.437 779.399 Q190.335 781.667 190.335 785.001 Q190.335 790.116 186.816 792.917 Q183.298 795.718 176.816 795.718 Q174.64 795.718 172.326 795.278 Q170.034 794.862 167.58 794.005 L167.58 789.491 Q169.525 790.626 171.839 791.204 Q174.154 791.783 176.677 791.783 Q181.075 791.783 183.367 790.047 Q185.682 788.311 185.682 785.001 Q185.682 781.945 183.529 780.232 Q181.4 778.496 177.58 778.496 L173.552 778.496 L173.552 774.653 L177.765 774.653 Q181.214 774.653 183.043 773.288 Q184.872 771.899 184.872 769.306 Q184.872 766.644 182.974 765.232 Q181.099 763.797 177.58 763.797 Q175.659 763.797 173.46 764.214 Q171.261 764.63 168.622 765.51 L168.622 761.343 Q171.284 760.603 173.599 760.232 Q175.937 759.862 177.997 759.862 Q183.321 759.862 186.423 762.292 Q189.525 764.7 189.525 768.82 Q189.525 771.69 187.881 773.681 Q186.237 775.649 183.205 776.413 Z" fill="#000000" fill-rule="evenodd" fill-opacity="1" /><path clip-path="url(#clip880)" d="M199.247 760.487 L217.603 760.487 L217.603 764.422 L203.529 764.422 L203.529 772.894 Q204.548 772.547 205.566 772.385 Q206.585 772.2 207.603 772.2 Q213.39 772.2 216.77 775.371 Q220.149 778.542 220.149 783.959 Q220.149 789.538 216.677 792.639 Q213.205 795.718 206.886 795.718 Q204.71 795.718 202.441 795.348 Q200.196 794.977 197.788 794.237 L197.788 789.538 Q199.872 790.672 202.094 791.227 Q204.316 791.783 206.793 791.783 Q210.798 791.783 213.135 789.676 Q215.473 787.57 215.473 783.959 Q215.473 780.348 213.135 778.241 Q210.798 776.135 206.793 776.135 Q204.918 776.135 203.043 776.552 Q201.191 776.968 199.247 777.848 L199.247 760.487 Z" fill="#000000" fill-rule="evenodd" fill-opacity="1" /><path clip-path="url(#clip880)" d="M138.691 442.967 L146.33 442.967 L146.33 416.602 L138.02 418.268 L138.02 414.009 L146.284 412.342 L150.96 412.342 L150.96 442.967 L158.599 442.967 L158.599 446.902 L138.691 446.902 L138.691 442.967 Z" fill="#000000" fill-rule="evenodd" fill-opacity="1" /><path clip-path="url(#clip880)" d="M180.89 416.417 L169.085 434.866 L180.89 434.866 L180.89 416.417 M179.663 412.342 L185.543 412.342 L185.543 434.866 L190.474 434.866 L190.474 438.754 L185.543 438.754 L185.543 446.902 L180.89 446.902 L180.89 438.754 L165.289 438.754 L165.289 434.241 L179.663 412.342 Z" fill="#000000" fill-rule="evenodd" fill-opacity="1" /><path clip-path="url(#clip880)" d="M208.205 415.421 Q204.594 415.421 202.765 418.986 Q200.96 422.528 200.96 429.657 Q200.96 436.764 202.765 440.328 Q204.594 443.87 208.205 443.87 Q211.839 443.87 213.645 440.328 Q215.473 436.764 215.473 429.657 Q215.473 422.528 213.645 418.986 Q211.839 415.421 208.205 415.421 M208.205 411.717 Q214.015 411.717 217.071 416.324 Q220.149 420.907 220.149 429.657 Q220.149 438.384 217.071 442.99 Q214.015 447.574 208.205 447.574 Q202.395 447.574 199.316 442.99 Q196.261 438.384 196.261 429.657 Q196.261 420.907 199.316 416.324 Q202.395 411.717 208.205 411.717 Z" fill="#000000" fill-rule="evenodd" fill-opacity="1" /><path clip-path="url(#clip880)" d="M139.687 94.823 L147.326 94.823 L147.326 68.4574 L139.016 70.1241 L139.016 65.8649 L147.279 64.1982 L151.955 64.1982 L151.955 94.823 L159.594 94.823 L159.594 98.7582 L139.687 98.7582 L139.687 94.823 Z" fill="#000000" fill-rule="evenodd" fill-opacity="1" /><path clip-path="url(#clip880)" d="M181.886 68.2723 L170.08 86.7212 L181.886 86.7212 L181.886 68.2723 M180.659 64.1982 L186.538 64.1982 L186.538 86.7212 L191.469 86.7212 L191.469 90.6101 L186.538 90.6101 L186.538 98.7582 L181.886 98.7582 L181.886 90.6101 L166.284 90.6101 L166.284 86.0962 L180.659 64.1982 Z" fill="#000000" fill-rule="evenodd" fill-opacity="1" /><path clip-path="url(#clip880)" d="M199.247 64.1982 L217.603 64.1982 L217.603 68.1334 L203.529 68.1334 L203.529 76.6055 Q204.548 76.2583 205.566 76.0963 Q206.585 75.9111 207.603 75.9111 Q213.39 75.9111 216.77 79.0824 Q220.149 82.2537 220.149 87.6703 Q220.149 93.249 216.677 96.3508 Q213.205 99.4295 206.886 99.4295 Q204.71 99.4295 202.441 99.0591 Q200.196 98.6888 197.788 97.948 L197.788 93.249 Q199.872 94.3832 202.094 94.9388 Q204.316 95.4943 206.793 95.4943 Q210.798 95.4943 213.135 93.3879 Q215.473 91.2814 215.473 87.6703 Q215.473 84.0592 213.135 81.9527 Q210.798 79.8463 206.793 79.8463 Q204.918 79.8463 203.043 80.2629 Q201.191 80.6796 199.247 81.5592 L199.247 64.1982 Z" fill="#000000" fill-rule="evenodd" fill-opacity="1" /><path clip-path="url(#clip880)" d="M43.9044 1233.63 L50.6839 1233.63 Q47.6602 1236.88 46.1643 1240.57 Q44.6683 1244.23 44.6683 1248.37 Q44.6683 1256.51 49.6654 1260.84 Q54.6307 1265.17 64.0519 1265.17 Q73.4413 1265.17 78.4384 1260.84 Q83.4036 1256.51 83.4036 1248.37 Q83.4036 1244.23 81.9077 1240.57 Q80.4118 1236.88 77.3881 1233.63 L84.1039 1233.63 Q86.3955 1237 87.5414 1240.79 Q88.6872 1244.55 88.6872 1248.75 Q88.6872 1259.54 82.0987 1265.74 Q75.4783 1271.95 64.0519 1271.95 Q52.5936 1271.95 46.0051 1265.74 Q39.3848 1259.54 39.3848 1248.75 Q39.3848 1244.48 40.5306 1240.73 Q41.6446 1236.94 43.9044 1233.63 Z" fill="#000000" fill-rule="evenodd" fill-opacity="1" /><path clip-path="url(#clip880)" d="M38.239 1223.95 L38.239 1218.1 L87.7642 1218.1 L87.7642 1223.95 L38.239 1223.95 Z" fill="#000000" fill-rule="evenodd" fill-opacity="1" /><path clip-path="url(#clip880)" d="M56.2221 1192.03 Q56.2221 1196.74 59.9142 1199.48 Q63.5745 1202.21 69.972 1202.21 Q76.3695 1202.21 80.0617 1199.51 Q83.7219 1196.77 83.7219 1192.03 Q83.7219 1187.35 80.0298 1184.61 Q76.3377 1181.88 69.972 1181.88 Q63.6381 1181.88 59.946 1184.61 Q56.2221 1187.35 56.2221 1192.03 M51.2568 1192.03 Q51.2568 1184.39 56.2221 1180.03 Q61.1873 1175.67 69.972 1175.67 Q78.7249 1175.67 83.7219 1180.03 Q88.6872 1184.39 88.6872 1192.03 Q88.6872 1199.7 83.7219 1204.06 Q78.7249 1208.39 69.972 1208.39 Q61.1873 1208.39 56.2221 1204.06 Q51.2568 1199.7 51.2568 1192.03 Z" fill="#000000" fill-rule="evenodd" fill-opacity="1" /><path clip-path="url(#clip880)" d="M53.1665 1143.24 L58.7047 1143.24 Q57.4316 1145.72 56.795 1148.39 Q56.1584 1151.07 56.1584 1153.93 Q56.1584 1158.29 57.4952 1160.49 Q58.832 1162.65 61.5056 1162.65 Q63.5426 1162.65 64.7203 1161.09 Q65.8661 1159.53 66.9165 1154.82 L67.3621 1152.82 Q68.6989 1146.58 71.1497 1143.97 Q73.5686 1141.33 77.9291 1141.33 Q82.8944 1141.33 85.7908 1145.27 Q88.6872 1149.19 88.6872 1156.06 Q88.6872 1158.93 88.1143 1162.05 Q87.5732 1165.13 86.4592 1168.57 L80.4118 1168.57 Q82.0987 1165.33 82.958 1162.17 Q83.7856 1159.02 83.7856 1155.94 Q83.7856 1151.8 82.3851 1149.57 Q80.9529 1147.34 78.3747 1147.34 Q75.9876 1147.34 74.7145 1148.97 Q73.4413 1150.56 72.2637 1156 L71.7862 1158.04 Q70.6404 1163.48 68.2851 1165.9 Q65.898 1168.32 61.7602 1168.32 Q56.7313 1168.32 53.9941 1164.75 Q51.2568 1161.19 51.2568 1154.63 Q51.2568 1151.38 51.7343 1148.52 Q52.2117 1145.66 53.1665 1143.24 Z" fill="#000000" fill-rule="evenodd" fill-opacity="1" /><path clip-path="url(#clip880)" d="M68.4761 1101.51 L71.3406 1101.51 L71.3406 1128.44 Q77.3881 1128.05 80.5709 1124.81 Q83.7219 1121.53 83.7219 1115.7 Q83.7219 1112.33 82.8944 1109.18 Q82.0669 1106 80.4118 1102.88 L85.9499 1102.88 Q87.2867 1106.03 87.987 1109.34 Q88.6872 1112.65 88.6872 1116.06 Q88.6872 1124.59 83.7219 1129.58 Q78.7567 1134.55 70.2903 1134.55 Q61.5374 1134.55 56.4131 1129.84 Q51.2568 1125.09 51.2568 1117.07 Q51.2568 1109.88 55.9038 1105.71 Q60.5189 1101.51 68.4761 1101.51 M66.7573 1107.37 Q61.9512 1107.43 59.0866 1110.07 Q56.2221 1112.68 56.2221 1117.01 Q56.2221 1121.91 58.9912 1124.87 Q61.7602 1127.8 66.7892 1128.25 L66.7573 1107.37 Z" fill="#000000" fill-rule="evenodd" fill-opacity="1" /><path clip-path="url(#clip880)" d="M98.5859 1064.81 L103.137 1064.81 L103.137 1098.68 L98.5859 1098.68 L98.5859 1064.81 Z" fill="#000000" fill-rule="evenodd" fill-opacity="1" /><path clip-path="url(#clip880)" d="M38.239 1059.3 L38.239 1053.45 L87.7642 1053.45 L87.7642 1059.3 L38.239 1059.3 Z" fill="#000000" fill-rule="evenodd" fill-opacity="1" /><path clip-path="url(#clip880)" d="M69.8447 1024.99 Q69.8447 1032.09 71.4679 1034.83 Q73.0912 1037.57 77.0061 1037.57 Q80.1253 1037.57 81.9714 1035.53 Q83.7856 1033.46 83.7856 1029.93 Q83.7856 1025.06 80.3481 1022.13 Q76.8788 1019.17 71.1497 1019.17 L69.8447 1019.17 L69.8447 1024.99 M67.4257 1013.31 L87.7642 1013.31 L87.7642 1019.17 L82.3533 1019.17 Q85.5998 1021.17 87.1594 1024.17 Q88.6872 1027.16 88.6872 1031.49 Q88.6872 1036.96 85.6316 1040.21 Q82.5443 1043.42 77.3881 1043.42 Q71.3725 1043.42 68.3169 1039.41 Q65.2614 1035.37 65.2614 1027.38 L65.2614 1019.17 L64.6885 1019.17 Q60.6462 1019.17 58.4501 1021.84 Q56.2221 1024.48 56.2221 1029.29 Q56.2221 1032.35 56.9541 1035.24 Q57.6862 1038.14 59.1503 1040.81 L53.7395 1040.81 Q52.4981 1037.6 51.8934 1034.57 Q51.2568 1031.55 51.2568 1028.69 Q51.2568 1020.95 55.2672 1017.13 Q59.2776 1013.31 67.4257 1013.31 Z" fill="#000000" fill-rule="evenodd" fill-opacity="1" /><path clip-path="url(#clip880)" d="M53.1665 978.524 L58.7047 978.524 Q57.4316 981.007 56.795 983.68 Q56.1584 986.354 56.1584 989.218 Q56.1584 993.579 57.4952 995.775 Q58.832 997.939 61.5056 997.939 Q63.5426 997.939 64.7203 996.38 Q65.8661 994.82 66.9165 990.11 L67.3621 988.104 Q68.6989 981.866 71.1497 979.256 Q73.5686 976.614 77.9291 976.614 Q82.8944 976.614 85.7908 980.561 Q88.6872 984.476 88.6872 991.351 Q88.6872 994.215 88.1143 997.335 Q87.5732 1000.42 86.4592 1003.86 L80.4118 1003.86 Q82.0987 1000.61 82.958 997.462 Q83.7856 994.311 83.7856 991.224 Q83.7856 987.086 82.3851 984.858 Q80.9529 982.63 78.3747 982.63 Q75.9876 982.63 74.7145 984.253 Q73.4413 985.845 72.2637 991.287 L71.7862 993.324 Q70.6404 998.767 68.2851 1001.19 Q65.898 1003.6 61.7602 1003.6 Q56.7313 1003.6 53.9941 1000.04 Q51.2568 996.475 51.2568 989.919 Q51.2568 986.672 51.7343 983.808 Q52.2117 980.943 53.1665 978.524 Z" fill="#000000" fill-rule="evenodd" fill-opacity="1" /><path clip-path="url(#clip880)" d="M41.9947 961.496 L52.1162 961.496 L52.1162 949.433 L56.6677 949.433 L56.6677 961.496 L76.0194 961.496 Q80.3799 961.496 81.6213 960.318 Q82.8626 959.109 82.8626 955.448 L82.8626 949.433 L87.7642 949.433 L87.7642 955.448 Q87.7642 962.228 85.2497 964.806 Q82.7034 967.384 76.0194 967.384 L56.6677 967.384 L56.6677 971.681 L52.1162 971.681 L52.1162 967.384 L41.9947 967.384 L41.9947 961.496 Z" fill="#000000" fill-rule="evenodd" fill-opacity="1" /><polyline clip-path="url(#clip882)" style="stroke:#009af9; stroke-linecap:butt; stroke-linejoin:round; stroke-width:4; stroke-opacity:1; fill:none" points="
  315.487,733.167 354.27,494.858 393.053,546.78 431.836,542.786 470.619,609.353 509.402,364.387 548.185,107.439 586.968,650.624 625.751,402.995 664.534,856.981 
  703.317,757.131 742.1,931.537 780.883,769.113 819.666,794.408 858.449,586.055 897.232,646.63 936.015,917.557 974.798,897.587 1013.58,886.271 1052.36,1056.68 
  1091.15,1175.84 1129.93,1025.4 1168.71,637.311 1207.5,643.968 1246.28,551.44 1285.06,1665.1 1323.84,1850.16 1362.63,1570.84 1401.41,1894.61 1440.19,2097.23 
  1478.98,2113.94 1517.76,1902.97 1556.54,1537.42 1595.32,1306.95 1628.57,1082.04 1672.89,871.069 1711.67,789.604 1750.46,832.773 1789.24,1171.17 1828.02,812.581 
  1866.81,628.065 1905.59,938.609 1944.37,1519.31 1983.15,1531.15 2021.94,1361.26 2060.72,1546.47 2099.5,1212.25 2138.29,1031.91 2177.07,1115.47 2215.85,1283.97 
  2249.09,1365.43 2293.42,551.473 
  "/>
<path clip-path="url(#clip880)" d="
M1815.35 221.821 L2282.87 221.821 L2282.87 118.141 L1815.35 118.141  Z
  " fill="#ffffff" fill-rule="evenodd" fill-opacity="1"/>
<polyline clip-path="url(#clip880)" style="stroke:#000000; stroke-linecap:butt; stroke-linejoin:round; stroke-width:4; stroke-opacity:1; fill:none" points="
  1815.35,221.821 2282.87,221.821 2282.87,118.141 1815.35,118.141 1815.35,221.821 
  "/>
<polyline clip-path="url(#clip880)" style="stroke:#009af9; stroke-linecap:butt; stroke-linejoin:round; stroke-width:4; stroke-opacity:1; fill:none" points="
  1838.65,169.981 1978.42,169.981 
  "/>
<path clip-path="url(#clip880)" d="M2029.59 155.363 L2029.59 160.293 Q2027.23 158.094 2024.54 157.006 Q2021.88 155.918 2018.87 155.918 Q2012.95 155.918 2009.8 159.552 Q2006.65 163.164 2006.65 170.015 Q2006.65 176.844 2009.8 180.478 Q2012.95 184.089 2018.87 184.089 Q2021.88 184.089 2024.54 183.001 Q2027.23 181.913 2029.59 179.714 L2029.59 184.599 Q2027.14 186.265 2024.38 187.099 Q2021.65 187.932 2018.59 187.932 Q2010.75 187.932 2006.23 183.14 Q2001.72 178.325 2001.72 170.015 Q2001.72 161.682 2006.23 156.89 Q2010.75 152.076 2018.59 152.076 Q2021.7 152.076 2024.43 152.909 Q2027.18 153.719 2029.59 155.363 Z" fill="#000000" fill-rule="evenodd" fill-opacity="1" /><path clip-path="url(#clip880)" d="M2036.63 151.242 L2040.89 151.242 L2040.89 187.261 L2036.63 187.261 L2036.63 151.242 Z" fill="#000000" fill-rule="evenodd" fill-opacity="1" /><path clip-path="url(#clip880)" d="M2059.84 164.321 Q2056.42 164.321 2054.43 167.006 Q2052.44 169.668 2052.44 174.321 Q2052.44 178.974 2054.4 181.659 Q2056.39 184.321 2059.84 184.321 Q2063.25 184.321 2065.24 181.636 Q2067.23 178.95 2067.23 174.321 Q2067.23 169.714 2065.24 167.029 Q2063.25 164.321 2059.84 164.321 M2059.84 160.71 Q2065.4 160.71 2068.57 164.321 Q2071.74 167.932 2071.74 174.321 Q2071.74 180.687 2068.57 184.321 Q2065.4 187.932 2059.84 187.932 Q2054.26 187.932 2051.09 184.321 Q2047.95 180.687 2047.95 174.321 Q2047.95 167.932 2051.09 164.321 Q2054.26 160.71 2059.84 160.71 Z" fill="#000000" fill-rule="evenodd" fill-opacity="1" /><path clip-path="url(#clip880)" d="M2095.33 162.099 L2095.33 166.126 Q2093.52 165.201 2091.58 164.738 Q2089.64 164.275 2087.55 164.275 Q2084.38 164.275 2082.78 165.247 Q2081.21 166.219 2081.21 168.163 Q2081.21 169.645 2082.34 170.501 Q2083.48 171.335 2086.9 172.099 L2088.36 172.423 Q2092.9 173.395 2094.8 175.177 Q2096.72 176.937 2096.72 180.108 Q2096.72 183.719 2093.85 185.825 Q2091 187.932 2086 187.932 Q2083.92 187.932 2081.65 187.515 Q2079.4 187.122 2076.9 186.312 L2076.9 181.913 Q2079.26 183.14 2081.56 183.765 Q2083.85 184.367 2086.09 184.367 Q2089.1 184.367 2090.72 183.349 Q2092.34 182.307 2092.34 180.432 Q2092.34 178.696 2091.16 177.77 Q2090.01 176.844 2086.05 175.988 L2084.57 175.64 Q2080.61 174.807 2078.85 173.094 Q2077.09 171.358 2077.09 168.349 Q2077.09 164.691 2079.68 162.701 Q2082.27 160.71 2087.04 160.71 Q2089.4 160.71 2091.49 161.057 Q2093.57 161.404 2095.33 162.099 Z" fill="#000000" fill-rule="evenodd" fill-opacity="1" /><path clip-path="url(#clip880)" d="M2125.68 173.233 L2125.68 175.316 L2106.09 175.316 Q2106.37 179.714 2108.73 182.029 Q2111.12 184.321 2115.35 184.321 Q2117.81 184.321 2120.1 183.719 Q2122.41 183.117 2124.68 181.913 L2124.68 185.941 Q2122.39 186.913 2119.98 187.423 Q2117.57 187.932 2115.1 187.932 Q2108.89 187.932 2105.26 184.321 Q2101.65 180.71 2101.65 174.552 Q2101.65 168.187 2105.07 164.46 Q2108.52 160.71 2114.36 160.71 Q2119.59 160.71 2122.62 164.089 Q2125.68 167.446 2125.68 173.233 M2121.42 171.983 Q2121.37 168.488 2119.45 166.404 Q2117.55 164.321 2114.4 164.321 Q2110.84 164.321 2108.69 166.335 Q2106.56 168.349 2106.23 172.006 L2121.42 171.983 Z" fill="#000000" fill-rule="evenodd" fill-opacity="1" /><path clip-path="url(#clip880)" d="M2152.37 195.131 L2152.37 198.441 L2127.74 198.441 L2127.74 195.131 L2152.37 195.131 Z" fill="#000000" fill-rule="evenodd" fill-opacity="1" /><path clip-path="url(#clip880)" d="M2156.37 151.242 L2160.63 151.242 L2160.63 187.261 L2156.37 187.261 L2156.37 151.242 Z" fill="#000000" fill-rule="evenodd" fill-opacity="1" /><path clip-path="url(#clip880)" d="M2181.32 174.228 Q2176.16 174.228 2174.17 175.409 Q2172.18 176.589 2172.18 179.437 Q2172.18 181.705 2173.66 183.048 Q2175.17 184.367 2177.74 184.367 Q2181.28 184.367 2183.41 181.867 Q2185.56 179.344 2185.56 175.177 L2185.56 174.228 L2181.32 174.228 M2189.82 172.469 L2189.82 187.261 L2185.56 187.261 L2185.56 183.325 Q2184.1 185.687 2181.93 186.821 Q2179.75 187.932 2176.6 187.932 Q2172.62 187.932 2170.26 185.71 Q2167.92 183.464 2167.92 179.714 Q2167.92 175.339 2170.84 173.117 Q2173.78 170.895 2179.59 170.895 L2185.56 170.895 L2185.56 170.478 Q2185.56 167.539 2183.62 165.941 Q2181.69 164.321 2178.2 164.321 Q2175.98 164.321 2173.87 164.853 Q2171.76 165.386 2169.82 166.451 L2169.82 162.515 Q2172.16 161.613 2174.36 161.173 Q2176.56 160.71 2178.64 160.71 Q2184.26 160.71 2187.04 163.626 Q2189.82 166.543 2189.82 172.469 Z" fill="#000000" fill-rule="evenodd" fill-opacity="1" /><path clip-path="url(#clip880)" d="M2215.12 162.099 L2215.12 166.126 Q2213.31 165.201 2211.37 164.738 Q2209.43 164.275 2207.34 164.275 Q2204.17 164.275 2202.57 165.247 Q2201 166.219 2201 168.163 Q2201 169.645 2202.13 170.501 Q2203.27 171.335 2206.69 172.099 L2208.15 172.423 Q2212.69 173.395 2214.59 175.177 Q2216.51 176.937 2216.51 180.108 Q2216.51 183.719 2213.64 185.825 Q2210.79 187.932 2205.79 187.932 Q2203.71 187.932 2201.44 187.515 Q2199.19 187.122 2196.69 186.312 L2196.69 181.913 Q2199.06 183.14 2201.35 183.765 Q2203.64 184.367 2205.88 184.367 Q2208.89 184.367 2210.51 183.349 Q2212.13 182.307 2212.13 180.432 Q2212.13 178.696 2210.95 177.77 Q2209.8 176.844 2205.84 175.988 L2204.36 175.64 Q2200.4 174.807 2198.64 173.094 Q2196.88 171.358 2196.88 168.349 Q2196.88 164.691 2199.47 162.701 Q2202.06 160.71 2206.83 160.71 Q2209.19 160.71 2211.28 161.057 Q2213.36 161.404 2215.12 162.099 Z" fill="#000000" fill-rule="evenodd" fill-opacity="1" /><path clip-path="url(#clip880)" d="M2227.5 153.974 L2227.5 161.335 L2236.28 161.335 L2236.28 164.645 L2227.5 164.645 L2227.5 178.719 Q2227.5 181.89 2228.36 182.793 Q2229.24 183.696 2231.9 183.696 L2236.28 183.696 L2236.28 187.261 L2231.9 187.261 Q2226.97 187.261 2225.1 185.432 Q2223.22 183.58 2223.22 178.719 L2223.22 164.645 L2220.1 164.645 L2220.1 161.335 L2223.22 161.335 L2223.22 153.974 L2227.5 153.974 Z" fill="#000000" fill-rule="evenodd" fill-opacity="1" /></svg>
